<svg width="323" height="380" viewBox="0 0 323 380" fill="none" xmlns="http://www.w3.org/2000/svg">
    <g filter="url(#filter0_b_63_162)">
        <rect x="108.2" y="263.986" width="93.1952" height="115.241" rx="19.2482" fill="#060311"/>
        <rect x="108.2" y="263.986" width="93.1952" height="115.241" rx="19.2482" fill="url(#paint0_radial_63_162)"/>
        <rect x="108.734" y="264.521" width="92.1258" height="114.172" rx="18.7135" stroke="#3B3636"
              stroke-width="1.06934"/>
    </g>
    <path fill-rule="evenodd" clip-rule="evenodd"
          d="M155.2 288C148.572 288 143.2 292.605 143.2 298.285C143.2 298.996 143.284 299.69 143.444 300.36C144.354 301.926 145.049 301.532 147.016 300.417L147.016 300.417L147.016 300.417C147.613 300.079 148.327 299.674 149.2 299.238C152.005 297.835 150.687 299.934 149.262 302.204C148.748 303.023 148.22 303.864 147.866 304.571C147.456 305.391 147.678 306.085 148.24 306.654C150.204 307.857 152.602 308.571 155.2 308.571C161.827 308.571 167.2 303.967 167.2 298.285C167.2 292.605 161.827 288 155.2 288ZM157.099 304.298C156.836 305.195 155.459 305.581 154.024 305.159C152.588 304.737 151.638 303.669 151.902 302.771C152.165 301.874 153.542 301.489 154.977 301.911C156.412 302.332 157.362 303.4 157.099 304.298ZM149.866 295.237C150.971 295.237 151.866 294.342 151.866 293.237C151.866 292.133 150.971 291.237 149.866 291.237C148.762 291.237 147.866 292.133 147.866 293.237C147.866 294.342 148.762 295.237 149.866 295.237ZM158.533 291.905C158.533 293.009 157.637 293.905 156.533 293.905C155.428 293.905 154.533 293.009 154.533 291.905C154.533 290.8 155.428 289.905 156.533 289.905C157.637 289.905 158.533 290.8 158.533 291.905ZM162.533 297.904C163.638 297.904 164.533 297.009 164.533 295.904C164.533 294.8 163.638 293.904 162.533 293.904C161.428 293.904 160.533 294.8 160.533 295.904C160.533 297.009 161.428 297.904 162.533 297.904ZM163.866 301.904C163.866 303.009 162.971 303.904 161.866 303.904C160.762 303.904 159.866 303.009 159.866 301.904C159.866 300.799 160.762 299.904 161.866 299.904C162.971 299.904 163.866 300.799 163.866 301.904Z"
          fill="#A7A7A7"/>
    <path d="M138.285 345.384C139.885 345.384 141.373 346.008 142.253 347.144L140.973 348.12C140.301 347.272 139.293 346.824 138.237 346.824C135.709 346.824 134.013 348.856 134.013 351.432C134.013 353.864 135.661 355.848 138.237 355.848C139.549 355.848 140.509 355.288 141.197 354.328L142.493 355.304C141.613 356.488 140.029 357.288 138.205 357.288C134.557 357.288 132.381 354.216 132.381 351.416C132.381 347.992 134.717 345.384 138.285 345.384ZM147.647 349.224C149.791 349.224 151.679 350.888 151.679 353.208C151.679 355.416 149.903 357.192 147.647 357.192C145.455 357.192 143.615 355.464 143.615 353.208C143.615 351 145.391 349.224 147.647 349.224ZM145.151 353.208C145.151 354.792 146.159 355.848 147.647 355.848C149.151 355.848 150.143 354.776 150.143 353.208C150.143 351.608 149.119 350.568 147.631 350.568C146.159 350.568 145.151 351.656 145.151 353.208ZM155.035 344.904V357H153.595V344.904H155.035ZM160.991 349.224C163.135 349.224 165.023 350.888 165.023 353.208C165.023 355.416 163.247 357.192 160.991 357.192C158.799 357.192 156.959 355.464 156.959 353.208C156.959 351 158.735 349.224 160.991 349.224ZM158.495 353.208C158.495 354.792 159.503 355.848 160.991 355.848C162.495 355.848 163.487 354.776 163.487 353.208C163.487 351.608 162.463 350.568 160.975 350.568C159.503 350.568 158.495 351.656 158.495 353.208ZM166.827 357V349.416H168.267V350.584H168.299C168.683 349.768 169.627 349.224 170.571 349.224C170.811 349.224 171.051 349.256 171.211 349.32L171.147 350.872C170.907 350.808 170.683 350.76 170.427 350.76C169.003 350.76 168.267 351.592 168.267 353.128V357H166.827ZM175.309 349.224C176.461 349.224 177.421 349.672 177.901 350.472L176.781 351.32C176.429 350.904 175.949 350.568 175.229 350.568C174.509 350.568 173.965 350.92 173.965 351.416C173.965 352.04 174.573 352.328 175.453 352.504C177.261 352.856 178.109 353.432 178.109 354.808C178.109 356.472 176.605 357.192 175.021 357.192C173.629 357.192 172.765 356.76 172.109 355.848L173.197 354.952C173.853 355.624 174.413 355.848 175.037 355.848C175.837 355.848 176.573 355.512 176.573 354.888C176.573 354.312 176.045 354.008 175.133 353.8C173.357 353.432 172.429 352.936 172.429 351.56C172.429 349.992 173.869 349.224 175.309 349.224Z"
          fill="#A7A7A7"/>
    <g filter="url(#filter1_b_63_162)">
        <rect x="108.2" y="11" width="93.1952" height="115.241" rx="19.2482" fill="#060311"/>
        <rect x="108.2" y="11" width="93.1952" height="115.241" rx="19.2482" fill="url(#paint1_radial_63_162)"/>
        <rect x="108.734" y="11.5347" width="92.1258" height="114.172" rx="18.7135" stroke="#3B3636"
              stroke-width="1.06934"/>
    </g>
    <path d="M163.698 44.5967C163.858 44.8627 163.944 45.1666 163.948 45.4771C163.952 45.7875 163.873 46.0934 163.719 46.3634C163.565 46.6265 163.342 46.8429 163.074 46.9901C162.807 47.1373 162.505 47.2098 162.2 47.2H151.7C151.394 47.21 151.092 47.1376 150.824 46.9904C150.557 46.8432 150.334 46.6266 150.179 46.3634C150.025 46.0934 149.947 45.7875 149.95 45.4771C149.954 45.1666 150.041 44.8627 150.201 44.5967L155.451 35.8461C155.606 35.5879 155.826 35.3744 156.089 35.2261C156.351 35.0779 156.648 35 156.949 35C157.251 35 157.547 35.0779 157.81 35.2261C158.072 35.3744 158.292 35.5879 158.448 35.8461L163.698 44.5967ZM156.95 52.0618C156.95 51.4816 157.18 50.9251 157.59 50.5149C158.001 50.1046 158.557 49.8741 159.137 49.8741H167.012C167.592 49.8741 168.149 50.1046 168.559 50.5149C168.969 50.9251 169.2 51.4816 169.2 52.0618V59.9373C169.2 60.5175 168.969 61.0739 168.559 61.4842C168.149 61.8945 167.592 62.1249 167.012 62.1249H159.137C158.557 62.1249 158.001 61.8945 157.59 61.4842C157.18 61.0739 156.95 60.5175 156.95 59.9373V52.0618ZM141.2 55.9995C141.2 54.615 141.61 53.2615 142.379 52.1103C143.148 50.9591 144.242 50.0618 145.521 49.5319C146.8 49.0021 148.207 48.8635 149.565 49.1336C150.923 49.4037 152.17 50.0704 153.149 51.0495C154.128 52.0285 154.795 53.2759 155.065 54.6338C155.335 55.9918 155.197 57.3993 154.667 58.6785C154.137 59.9577 153.24 61.051 152.089 61.8202C150.937 62.5894 149.584 63 148.2 63C146.343 63 144.563 62.2625 143.25 60.9496C141.937 59.6368 141.2 57.8562 141.2 55.9995Z"
          fill="#A7A7A7"/>
    <path d="M124.711 94.11C126.211 94.11 127.606 94.695 128.431 95.76L127.231 96.675C126.601 95.88 125.656 95.46 124.666 95.46C122.296 95.46 120.706 97.365 120.706 99.78C120.706 102.06 122.251 103.92 124.666 103.92C125.896 103.92 126.796 103.395 127.441 102.495L128.656 103.41C127.831 104.52 126.346 105.27 124.636 105.27C121.216 105.27 119.176 102.39 119.176 99.765C119.176 96.555 121.366 94.11 124.711 94.11ZM132.167 105.18C130.742 105.18 129.707 104.37 129.707 103.05C129.707 101.625 130.817 100.59 133.607 100.59H134.612V100.335C134.612 99.375 133.907 98.79 132.902 98.79C132.137 98.79 131.672 98.97 130.892 99.6L130.082 98.76C130.832 98.07 131.882 97.71 132.902 97.71C135.047 97.71 135.872 98.925 135.872 100.035V103.845C135.872 104.055 135.887 104.625 135.932 105H134.732C134.702 104.64 134.687 104.34 134.687 103.92H134.657C134.042 104.835 133.247 105.18 132.167 105.18ZM133.847 101.58C131.657 101.58 131.057 102.255 131.057 102.945C131.057 103.68 131.552 104.1 132.587 104.1C133.802 104.1 134.612 103.35 134.612 101.97V101.58H133.847ZM138.355 99.06H136.795V97.89H138.355V95.895H139.705V97.89H141.64V99.06H139.705V102.48C139.705 103.395 139.885 103.92 140.725 103.92C141.025 103.92 141.415 103.875 141.685 103.71V104.94C141.43 105.09 140.845 105.18 140.455 105.18C138.37 105.18 138.355 103.83 138.355 102.855V99.06ZM146.637 97.71C148.737 97.71 150.102 99.105 150.102 101.565V101.94H144.402C144.402 103.17 145.557 104.01 146.802 104.01C147.627 104.01 148.227 103.59 148.752 102.945L149.772 103.725C149.007 104.7 147.987 105.18 146.622 105.18C144.507 105.18 142.962 103.71 142.962 101.445C142.962 99.345 144.477 97.71 146.637 97.71ZM148.662 100.86C148.617 99.525 147.867 98.79 146.607 98.79C145.182 98.79 144.402 100.005 144.402 100.86H148.662ZM151.372 101.475C151.372 99.195 152.902 97.71 154.987 97.71C155.992 97.71 156.937 98.16 157.462 98.91H157.492V97.89H158.842V105C158.842 106.905 157.447 108.6 154.957 108.6C153.607 108.6 152.467 108.255 151.477 107.325L152.392 106.185C153.097 106.935 153.877 107.34 154.942 107.34C156.622 107.34 157.492 106.41 157.492 104.91V103.83H157.447C156.967 104.655 156.007 105.09 154.987 105.09C152.992 105.09 151.372 103.62 151.372 101.475ZM155.137 98.97C153.757 98.97 152.812 99.99 152.812 101.445C152.812 102.855 153.697 103.83 155.152 103.83C156.577 103.83 157.492 102.9 157.492 101.445C157.492 99.945 156.532 98.97 155.137 98.97ZM164.322 97.71C166.332 97.71 168.102 99.27 168.102 101.445C168.102 103.515 166.437 105.18 164.322 105.18C162.267 105.18 160.542 103.56 160.542 101.445C160.542 99.375 162.207 97.71 164.322 97.71ZM161.982 101.445C161.982 102.93 162.927 103.92 164.322 103.92C165.732 103.92 166.662 102.915 166.662 101.445C166.662 99.945 165.702 98.97 164.307 98.97C162.927 98.97 161.982 99.99 161.982 101.445ZM169.793 105V97.89H171.143V98.985H171.173C171.533 98.22 172.418 97.71 173.303 97.71C173.528 97.71 173.753 97.74 173.903 97.8L173.843 99.255C173.618 99.195 173.408 99.15 173.168 99.15C171.833 99.15 171.143 99.93 171.143 101.37V105H169.793ZM176.125 94.35C176.665 94.35 177.115 94.8 177.115 95.34C177.115 95.895 176.65 96.33 176.125 96.33C175.57 96.33 175.135 95.895 175.135 95.34C175.135 94.785 175.6 94.35 176.125 94.35ZM176.8 97.89V105H175.45V97.89H176.8ZM182.204 97.71C184.304 97.71 185.669 99.105 185.669 101.565V101.94H179.969C179.969 103.17 181.124 104.01 182.369 104.01C183.194 104.01 183.794 103.59 184.319 102.945L185.339 103.725C184.574 104.7 183.554 105.18 182.189 105.18C180.074 105.18 178.529 103.71 178.529 101.445C178.529 99.345 180.044 97.71 182.204 97.71ZM184.229 100.86C184.184 99.525 183.434 98.79 182.174 98.79C180.749 98.79 179.969 100.005 179.969 100.86H184.229ZM189.684 97.71C190.764 97.71 191.664 98.13 192.114 98.88L191.064 99.675C190.734 99.285 190.284 98.97 189.609 98.97C188.934 98.97 188.424 99.3 188.424 99.765C188.424 100.35 188.994 100.62 189.819 100.785C191.514 101.115 192.309 101.655 192.309 102.945C192.309 104.505 190.899 105.18 189.414 105.18C188.109 105.18 187.299 104.775 186.684 103.92L187.704 103.08C188.319 103.71 188.844 103.92 189.429 103.92C190.179 103.92 190.869 103.605 190.869 103.02C190.869 102.48 190.374 102.195 189.519 102C187.854 101.655 186.984 101.19 186.984 99.9C186.984 98.43 188.334 97.71 189.684 97.71Z"
          fill="#A7A7A7"/>
    <g filter="url(#filter2_b_63_162)">
        <rect x="210.2" y="10.5767" width="93.1952" height="115.241" rx="19.2482" fill="#060311"/>
        <rect x="210.2" y="10.5767" width="93.1952" height="115.241" rx="19.2482" fill="url(#paint2_radial_63_162)"/>
        <rect x="210.734" y="11.1113" width="92.1258" height="114.172" rx="18.7135" stroke="#3B3636"
              stroke-width="1.06934"/>
    </g>
    <path d="M247.18 40.6238L243.542 36.9898C243.086 36.5341 243.086 35.7975 243.542 35.3418C243.998 34.8861 244.735 34.8861 245.192 35.3418L248.829 38.9758L247.18 40.6238ZM260.189 55.8078L261.456 57.0735L265.227 53.3066L263.96 52.0409L260.189 55.8078ZM269.571 57.5537L265.825 61.3322C264.766 62.4021 263.354 62.9942 261.849 63H261.826C260.33 63 258.921 62.4196 257.859 61.3637L247.693 51.2892C246.746 50.3509 246.261 49.0503 246.368 47.7204L247.18 40.6249L251.453 44.8941C251.402 45.0853 251.367 45.2834 251.367 45.4909C251.367 46.7787 252.411 47.8218 253.701 47.8218C254.99 47.8218 256.034 46.7787 256.034 45.4909C256.034 44.203 254.99 43.1599 253.701 43.1599C253.493 43.1599 253.296 43.196 253.103 43.2461L248.829 38.9758L255.6 38.2182C256.971 38.0399 258.376 38.5154 259.358 39.4886L269.542 49.5934C271.741 51.781 271.754 55.3532 269.571 57.556V57.5537ZM267.702 52.4815L264.785 49.5677C264.329 49.112 263.591 49.112 263.135 49.5677L257.714 54.9826C257.258 55.4383 257.258 56.1749 257.714 56.6306L260.631 59.5443C260.859 59.7716 261.157 59.8858 261.456 59.8858C261.755 59.8858 262.053 59.7716 262.281 59.5443L267.702 54.1295C268.158 53.6738 268.158 52.9372 267.702 52.4815Z"
          fill="#A7A7A7"/>
    <path d="M233.117 105V93.672H237.117C238.877 93.672 240.493 94.52 240.493 96.504C240.493 97.688 239.821 98.568 238.541 99V99.032H238.557C240.333 99.224 240.989 100.776 240.989 101.848C240.989 103.8 239.309 105 237.069 105H233.117ZM234.653 103.656H236.973C238.285 103.656 239.357 103.048 239.357 101.736C239.357 100.456 238.461 99.72 236.941 99.72H234.653V103.656ZM234.653 98.376H236.797C238.077 98.376 238.861 97.768 238.861 96.68C238.861 95.656 238.157 95.016 237.117 95.016H234.653V98.376ZM242.827 105V97.416H244.267V98.584H244.299C244.683 97.768 245.627 97.224 246.571 97.224C246.811 97.224 247.051 97.256 247.211 97.32L247.147 98.872C246.907 98.808 246.683 98.76 246.427 98.76C245.003 98.76 244.267 99.592 244.267 101.128V105H242.827ZM251.005 105.192C249.485 105.192 248.381 104.328 248.381 102.92C248.381 101.4 249.565 100.296 252.541 100.296H253.613V100.024C253.613 99 252.861 98.376 251.789 98.376C250.973 98.376 250.477 98.568 249.645 99.24L248.781 98.344C249.581 97.608 250.701 97.224 251.789 97.224C254.077 97.224 254.957 98.52 254.957 99.704V103.768C254.957 103.992 254.973 104.6 255.021 105H253.741C253.709 104.616 253.693 104.296 253.693 103.848H253.661C253.005 104.824 252.157 105.192 251.005 105.192ZM252.797 101.352C250.461 101.352 249.821 102.072 249.821 102.808C249.821 103.592 250.349 104.04 251.453 104.04C252.749 104.04 253.613 103.24 253.613 101.768V101.352H252.797ZM257.045 97.416H258.485V98.584H258.517C258.917 97.736 259.909 97.224 261.013 97.224C262.709 97.224 263.765 98.344 263.765 100.056V105H262.325V100.472C262.325 99.304 261.685 98.568 260.597 98.568C259.269 98.568 258.485 99.512 258.485 101.032V105H257.045V97.416ZM269.424 105.192C267.184 105.192 265.568 103.56 265.568 101.208C265.568 98.856 267.184 97.224 269.424 97.224C270.464 97.224 271.52 97.688 272.064 98.504H272.096V92.904H273.536V105H272.096V103.912H272.064C271.504 104.728 270.48 105.192 269.424 105.192ZM267.104 101.208C267.104 102.792 268.112 103.848 269.6 103.848C271.104 103.848 272.096 102.776 272.096 101.208C272.096 99.608 271.072 98.568 269.584 98.568C268.112 98.568 267.104 99.624 267.104 101.208ZM278.277 97.224C279.429 97.224 280.389 97.672 280.869 98.472L279.749 99.32C279.397 98.904 278.917 98.568 278.197 98.568C277.477 98.568 276.933 98.92 276.933 99.416C276.933 100.04 277.541 100.328 278.421 100.504C280.229 100.856 281.077 101.432 281.077 102.808C281.077 104.472 279.573 105.192 277.989 105.192C276.597 105.192 275.733 104.76 275.077 103.848L276.165 102.952C276.821 103.624 277.381 103.848 278.005 103.848C278.805 103.848 279.541 103.512 279.541 102.888C279.541 102.312 279.013 102.008 278.101 101.8C276.325 101.432 275.397 100.936 275.397 99.56C275.397 97.992 276.837 97.224 278.277 97.224Z"
          fill="#A7A7A7"/>
    <g filter="url(#filter3_bd_63_162)">
        <rect y="11.2593" width="94.8527" height="117.291" rx="19.2482" transform="rotate(-6.81727 0 11.2593)"
              fill="#060311"/>
        <rect y="11.2593" width="94.8527" height="117.291" rx="19.2482" transform="rotate(-6.81727 0 11.2593)"
              fill="url(#paint3_radial_63_162)"/>
        <rect x="0.594359" y="11.7267" width="93.7834" height="116.222" rx="18.7135"
              transform="rotate(-6.81727 0.594359 11.7267)" stroke="url(#paint4_linear_63_162)" stroke-width="1.06934"/>
    </g>
    <path d="M36.2692 87.2227C39.7295 86.8088 42.8026 89.0266 43.2488 92.757C43.6687 96.268 41.434 99.3431 37.7711 99.7812C34.277 100.199 31.2296 97.9097 30.7915 94.2468C30.3615 90.6515 32.6907 87.6506 36.2692 87.2227ZM32.5133 94.0409C32.8242 96.6404 34.838 98.591 37.5894 98.262C40.2058 97.9491 41.8521 95.6805 41.527 92.9629C41.2121 90.3297 39.1854 88.4148 36.434 88.7439C33.8345 89.0547 32.1882 91.3233 32.5133 94.0409ZM45.9051 98.5002L44.9482 90.4992L46.4674 90.3175L46.6147 91.5497L46.6485 91.5457C46.9507 90.6364 47.8779 89.9434 48.8738 89.8243C49.127 89.794 49.3843 89.7975 49.5611 89.8448L49.6894 91.4902C49.4282 91.453 49.1858 91.4306 48.9157 91.4629C47.4134 91.6425 46.7419 92.6132 46.9357 94.2336L47.4243 98.3185L45.9051 98.5002ZM55.5599 97.551C53.1967 97.8336 51.2859 96.3158 50.9892 93.8344C50.6924 91.3531 52.1914 89.4275 54.5545 89.1449C55.6517 89.0136 56.8243 89.3699 57.5012 90.1621L57.5349 90.1581L56.8284 84.2502L58.3475 84.0685L59.8737 96.8296L58.3545 97.0113L58.2173 95.8635L58.1835 95.8675C57.6957 96.799 56.6739 97.4177 55.5599 97.551ZM52.6096 93.6406C52.8095 95.3117 54.0061 96.2986 55.576 96.1109C57.1626 95.9211 58.0739 94.665 57.8761 93.0108C57.6742 91.3228 56.4627 90.3548 54.8929 90.5426C53.34 90.7283 52.4098 91.9695 52.6096 93.6406ZM64.8567 87.9128C67.2198 87.6301 68.9436 89.0162 69.2747 91.7845L69.3252 92.2065L62.9109 92.9736C63.0764 94.3578 64.4892 95.1476 65.8902 94.98C66.8186 94.869 67.4373 94.3156 67.9413 93.5191L69.1941 94.2596C68.4644 95.4597 67.3812 96.1372 65.8451 96.3209C63.4651 96.6055 61.5286 95.1592 61.2238 92.6104C60.9412 90.2472 62.426 88.2035 64.8567 87.9128ZM67.5594 91.185C67.3291 89.6887 66.3862 88.9626 64.9683 89.1321C63.3647 89.3239 62.6505 90.7962 62.7655 91.7583L67.5594 91.185ZM71.5543 95.4326L70.5975 87.4316L72.1166 87.2499L72.264 88.4822L72.2978 88.4781C72.5999 87.5688 73.5272 86.8758 74.5231 86.7567C74.7763 86.7264 75.0335 86.7299 75.2104 86.7772L75.3387 88.4226C75.0774 88.3854 74.835 88.363 74.565 88.3953C73.0627 88.575 72.3912 89.5456 72.585 91.166L73.0735 95.2509L71.5543 95.4326ZM79.5214 86.1589C80.7368 86.0135 81.8061 86.3651 82.4134 87.1485L81.3388 88.1844C80.915 87.79 80.3662 87.496 79.6066 87.5869C78.847 87.6777 78.3175 88.1177 78.3801 88.641C78.4589 89.2993 79.1366 89.5264 80.0872 89.6011C82.039 89.7443 83.0063 90.245 83.1799 91.6966C83.3899 93.4521 81.894 94.4015 80.223 94.6013C78.7544 94.777 77.7884 94.4302 76.9813 93.5509L78.016 92.4683C78.7929 93.0945 79.412 93.2602 80.0703 93.1814C80.9142 93.0805 81.6483 92.6331 81.5696 91.9748C81.4969 91.3672 80.9015 91.1131 79.9131 91.0087C77.9931 90.8446 76.9515 90.4384 76.7778 88.9867C76.58 87.3325 78.0023 86.3406 79.5214 86.1589Z"
          fill="url(#paint5_linear_63_162)"/>
    <path d="M63.0843 37.0481C63.0626 36.9663 63.0275 36.8886 62.9804 36.8182C62.9437 36.7519 62.9021 36.6885 62.8559 36.6285C62.7966 36.5591 62.7259 36.5035 62.6681 36.4463L58.4172 31.9858C58.2803 31.8444 58.1129 31.7363 57.9277 31.6698C57.7425 31.6034 57.5446 31.5803 57.3491 31.6024L42.2361 33.4099C42.0405 33.4332 41.853 33.5018 41.6886 33.6101C41.5241 33.7185 41.3871 33.8638 41.2885 34.0343L38.2102 39.3714C38.1563 39.4402 38.1096 39.5143 38.0707 39.5927C38.04 39.6619 38.0145 39.7334 37.9944 39.8064C37.9652 39.8859 37.9494 39.9697 37.9477 40.0544C37.9424 40.1394 37.9441 40.2247 37.9527 40.3094L40.0613 57.9402C40.1818 58.9418 40.6949 59.8547 41.4878 60.4785C42.2808 61.1022 43.2889 61.3857 44.2908 61.2668L61.9225 59.1581C62.9234 59.0357 63.8351 58.5219 64.4585 57.7293C65.0818 56.9366 65.366 55.9294 65.249 54.9278L63.1404 37.297C63.1286 37.2126 63.1098 37.1294 63.0843 37.0481ZM51.9008 50.1378C50.2308 50.3371 48.55 49.865 47.2279 48.8254C45.9059 47.7858 45.0508 46.2637 44.8506 44.5938C44.8301 44.4283 44.8426 44.2603 44.8873 44.0996C44.9321 43.9389 45.0082 43.7887 45.1113 43.6575C45.2144 43.5264 45.3425 43.417 45.4881 43.3356C45.6337 43.2542 45.794 43.2025 45.9597 43.1834C46.2934 43.1449 46.6288 43.2399 46.8927 43.4477C47.1566 43.6555 47.3276 43.9593 47.3684 44.2927C47.4889 45.2945 48.0021 46.2075 48.7953 46.8313C49.5885 47.455 50.5968 47.7384 51.5988 47.6193C52.5997 47.4968 53.5114 46.9831 54.1348 46.1904C54.7581 45.3977 55.0423 44.3905 54.9253 43.3889C54.9049 43.2234 54.9175 43.0555 54.9623 42.8948C55.0071 42.7342 55.0832 42.584 55.1863 42.4529C55.2894 42.3218 55.4174 42.2124 55.563 42.1309C55.7085 42.0495 55.8688 41.9977 56.0344 41.9785C56.3684 41.9395 56.7042 42.0342 56.9685 42.242C57.2328 42.4499 57.404 42.7539 57.4449 43.0876C57.6418 44.7572 57.1688 46.4367 56.1296 47.7582C55.0904 49.0798 53.5698 49.9355 51.9008 50.1378ZM41.5796 38.5978L43.1676 35.8532L57.0208 34.1964L59.2113 36.4891L41.5796 38.5978Z"
          fill="url(#paint6_linear_63_162)"/>
    <g filter="url(#filter4_b_63_162)">
        <rect x="5.19958" y="138" width="93.1952" height="115.241" rx="19.2482" fill="#060311"/>
        <rect x="5.19958" y="138" width="93.1952" height="115.241" rx="19.2482" fill="url(#paint7_radial_63_162)"/>
        <rect x="5.73426" y="138.535" width="92.1258" height="114.172" rx="18.7135" stroke="#3B3636"
              stroke-width="1.06934"/>
    </g>
    <path d="M22.6681 231H21.1321V219.672H25.1961C27.3721 219.672 28.7481 220.808 28.7481 222.84C28.7481 224.888 27.3401 226.008 25.1961 226.008H22.6681V231ZM22.6681 221.016V224.664H24.7481C26.3321 224.664 27.1161 224.088 27.1161 222.84C27.1161 221.608 26.3161 221.016 24.7481 221.016H22.6681ZM30.2485 231V223.416H31.6885V224.584H31.7205C32.1045 223.768 33.0485 223.224 33.9925 223.224C34.2325 223.224 34.4725 223.256 34.6325 223.32L34.5685 224.872C34.3285 224.808 34.1045 224.76 33.8485 224.76C32.4245 224.76 31.6885 225.592 31.6885 227.128V231H30.2485ZM39.5531 223.224C41.6971 223.224 43.5851 224.888 43.5851 227.208C43.5851 229.416 41.8091 231.192 39.5531 231.192C37.3611 231.192 35.5211 229.464 35.5211 227.208C35.5211 225 37.2971 223.224 39.5531 223.224ZM37.0571 227.208C37.0571 228.792 38.0651 229.848 39.5531 229.848C41.0571 229.848 42.0491 228.776 42.0491 227.208C42.0491 225.608 41.0251 224.568 39.5371 224.568C38.0651 224.568 37.0571 225.656 37.0571 227.208ZM48.8771 231.192C46.6371 231.192 45.0211 229.56 45.0211 227.208C45.0211 224.856 46.6371 223.224 48.8771 223.224C49.9171 223.224 50.9731 223.688 51.5171 224.504H51.5491V218.904H52.9891V231H51.5491V229.912H51.5171C50.9571 230.728 49.9331 231.192 48.8771 231.192ZM46.5571 227.208C46.5571 228.792 47.5651 229.848 49.0531 229.848C50.5571 229.848 51.5491 228.776 51.5491 227.208C51.5491 225.608 50.5251 224.568 49.0371 224.568C47.5651 224.568 46.5571 225.624 46.5571 227.208ZM55.1704 223.416H56.6104V227.96C56.6104 229.144 57.2664 229.848 58.3384 229.848C59.6824 229.848 60.4504 228.888 60.4504 227.384V223.416H61.8904V231H60.4504V229.832H60.4184C60.0184 230.68 59.0424 231.192 57.9224 231.192C56.2424 231.192 55.1704 230.072 55.1704 228.36V223.416ZM67.661 223.24C68.765 223.24 69.821 223.624 70.573 224.44L69.485 225.432C68.957 224.872 68.397 224.584 67.597 224.584C66.157 224.584 65.229 225.704 65.229 227.272C65.229 228.744 66.237 229.848 67.677 229.848C68.493 229.848 69.021 229.56 69.517 229L70.541 230.024C69.789 230.872 68.765 231.192 67.661 231.192C65.325 231.192 63.693 229.576 63.693 227.24C63.693 224.872 65.341 223.24 67.661 223.24ZM72.3398 224.664H70.6758V223.416H72.3398V221.288H73.7798V223.416H75.8438V224.664H73.7798V228.312C73.7798 229.288 73.9718 229.848 74.8678 229.848C75.1878 229.848 75.6038 229.8 75.8918 229.624V230.936C75.6198 231.096 74.9958 231.192 74.5798 231.192C72.3558 231.192 72.3398 229.752 72.3398 228.712V224.664ZM80.2616 223.224C81.4136 223.224 82.3736 223.672 82.8536 224.472L81.7336 225.32C81.3816 224.904 80.9016 224.568 80.1816 224.568C79.4616 224.568 78.9176 224.92 78.9176 225.416C78.9176 226.04 79.5256 226.328 80.4056 226.504C82.2136 226.856 83.0616 227.432 83.0616 228.808C83.0616 230.472 81.5576 231.192 79.9736 231.192C78.5816 231.192 77.7176 230.76 77.0616 229.848L78.1496 228.952C78.8056 229.624 79.3656 229.848 79.9896 229.848C80.7896 229.848 81.5256 229.512 81.5256 228.888C81.5256 228.312 80.9976 228.008 80.0856 227.8C78.3096 227.432 77.3816 226.936 77.3816 225.56C77.3816 223.992 78.8216 223.224 80.2616 223.224Z"
          fill="#A7A7A7"/>
    <path d="M41.3706 163.663C41.6192 163.163 42.002 162.743 42.4761 162.45C42.9501 162.156 43.4966 162 44.0542 162H51.1995V170H38.1996L41.3706 163.663ZM53.1997 170.004V162H60.3432C60.9012 162.001 61.448 162.157 61.9225 162.45C62.397 162.744 62.7805 163.164 63.0303 163.663L66.1996 170L53.1997 170.004ZM66.1996 186C66.1984 187.061 65.7767 188.077 65.0268 188.827C64.277 189.577 63.2604 189.999 62.2 190H42.1992C41.1386 190 40.1215 189.578 39.3716 188.828C38.6216 188.078 38.2 187.061 38.1996 186V172H66.1996V186Z"
          fill="#A7A7A7"/>
    <g filter="url(#filter5_b_63_162)">
        <rect x="108.2" y="138" width="93.1952" height="115.241" rx="19.2482" fill="#060311"/>
        <rect x="108.2" y="138" width="93.1952" height="115.241" rx="19.2482" fill="url(#paint8_radial_63_162)"/>
        <rect x="108.734" y="138.535" width="92.1258" height="114.172" rx="18.7135" stroke="#3B3636"
              stroke-width="1.06934"/>
    </g>
    <path d="M124.767 220.11C126.267 220.11 127.662 220.695 128.487 221.76L127.287 222.675C126.657 221.88 125.712 221.46 124.722 221.46C122.352 221.46 120.762 223.365 120.762 225.78C120.762 228.06 122.307 229.92 124.722 229.92C125.952 229.92 126.852 229.395 127.497 228.495L128.712 229.41C127.887 230.52 126.402 231.27 124.692 231.27C121.272 231.27 119.232 228.39 119.232 225.765C119.232 222.555 121.422 220.11 124.767 220.11ZM130.109 223.89H131.459V228.15C131.459 229.26 132.074 229.92 133.079 229.92C134.339 229.92 135.059 229.02 135.059 227.61V223.89H136.409V231H135.059V229.905H135.029C134.654 230.7 133.739 231.18 132.689 231.18C131.114 231.18 130.109 230.13 130.109 228.525V223.89ZM140.844 223.71C141.924 223.71 142.824 224.13 143.274 224.88L142.224 225.675C141.894 225.285 141.444 224.97 140.769 224.97C140.094 224.97 139.584 225.3 139.584 225.765C139.584 226.35 140.154 226.62 140.979 226.785C142.674 227.115 143.469 227.655 143.469 228.945C143.469 230.505 142.059 231.18 140.574 231.18C139.269 231.18 138.459 230.775 137.844 229.92L138.864 229.08C139.479 229.71 140.004 229.92 140.589 229.92C141.339 229.92 142.029 229.605 142.029 229.02C142.029 228.48 141.534 228.195 140.679 228C139.014 227.655 138.144 227.19 138.144 225.9C138.144 224.43 139.494 223.71 140.844 223.71ZM145.634 225.06H144.074V223.89H145.634V221.895H146.984V223.89H148.919V225.06H146.984V228.48C146.984 229.395 147.164 229.92 148.004 229.92C148.304 229.92 148.694 229.875 148.964 229.71V230.94C148.709 231.09 148.124 231.18 147.734 231.18C145.649 231.18 145.634 229.83 145.634 228.855V225.06ZM154.096 223.71C156.106 223.71 157.876 225.27 157.876 227.445C157.876 229.515 156.211 231.18 154.096 231.18C152.041 231.18 150.316 229.56 150.316 227.445C150.316 225.375 151.981 223.71 154.096 223.71ZM151.756 227.445C151.756 228.93 152.701 229.92 154.096 229.92C155.506 229.92 156.436 228.915 156.436 227.445C156.436 225.945 155.476 224.97 154.081 224.97C152.701 224.97 151.756 225.99 151.756 227.445ZM160.917 231H159.567V223.89H160.827V225H160.857C161.142 224.34 162.087 223.71 163.137 223.71C164.187 223.71 164.892 224.145 165.357 225.03C165.807 224.205 166.677 223.71 167.607 223.71C169.407 223.71 170.307 224.775 170.307 226.8V231H168.957V226.965C168.957 225.57 168.462 224.97 167.427 224.97C166.212 224.97 165.612 225.765 165.612 227.055V231H164.262V227.175C164.262 225.495 163.767 224.97 162.762 224.97C161.652 224.97 160.917 225.9 160.917 227.25V231ZM175.595 223.71C177.695 223.71 179.06 225.105 179.06 227.565V227.94H173.36C173.36 229.17 174.515 230.01 175.76 230.01C176.585 230.01 177.185 229.59 177.71 228.945L178.73 229.725C177.965 230.7 176.945 231.18 175.58 231.18C173.465 231.18 171.92 229.71 171.92 227.445C171.92 225.345 173.435 223.71 175.595 223.71ZM177.62 226.86C177.575 225.525 176.825 224.79 175.565 224.79C174.14 224.79 173.36 226.005 173.36 226.86H177.62ZM180.675 231V223.89H182.025V224.985H182.055C182.415 224.22 183.3 223.71 184.185 223.71C184.41 223.71 184.635 223.74 184.785 223.8L184.725 225.255C184.5 225.195 184.29 225.15 184.05 225.15C182.715 225.15 182.025 225.93 182.025 227.37V231H180.675ZM188.627 223.71C189.707 223.71 190.607 224.13 191.057 224.88L190.007 225.675C189.677 225.285 189.227 224.97 188.552 224.97C187.877 224.97 187.367 225.3 187.367 225.765C187.367 226.35 187.937 226.62 188.762 226.785C190.457 227.115 191.252 227.655 191.252 228.945C191.252 230.505 189.842 231.18 188.357 231.18C187.052 231.18 186.242 230.775 185.627 229.92L186.647 229.08C187.262 229.71 187.787 229.92 188.372 229.92C189.122 229.92 189.812 229.605 189.812 229.02C189.812 228.48 189.317 228.195 188.462 228C186.797 227.655 185.927 227.19 185.927 225.9C185.927 224.43 187.277 223.71 188.627 223.71Z"
          fill="#A7A7A7"/>
    <path d="M144.587 167.85C144.587 166.693 144.93 165.562 145.573 164.6C146.216 163.638 147.129 162.888 148.198 162.445C149.267 162.003 150.444 161.887 151.578 162.112C152.713 162.338 153.756 162.895 154.574 163.713C155.392 164.532 155.949 165.574 156.175 166.709C156.4 167.844 156.285 169.02 155.842 170.089C155.399 171.158 154.649 172.071 153.687 172.714C152.725 173.357 151.594 173.7 150.437 173.7C148.886 173.7 147.398 173.084 146.301 171.987C145.203 170.889 144.587 169.402 144.587 167.85ZM140.2 184.043C140.199 182.973 140.41 181.913 140.82 180.924C141.229 179.935 141.829 179.037 142.586 178.28C143.343 177.523 144.241 176.923 145.23 176.514C146.219 176.104 147.278 175.894 148.349 175.894H152.526C153.596 175.894 154.656 176.104 155.645 176.514C156.633 176.923 157.532 177.524 158.288 178.28C159.045 179.037 159.645 179.936 160.055 180.924C160.464 181.913 160.675 182.973 160.675 184.043C160.675 184.403 160.532 184.748 160.277 185.002C160.023 185.257 159.677 185.4 159.317 185.4H141.557C141.197 185.4 140.852 185.257 140.597 185.002C140.343 184.748 140.2 184.403 140.2 184.043ZM168.046 185.4H161.744C162.001 184.955 162.137 184.451 162.137 183.938V183.572C162.138 182.254 161.854 180.951 161.303 179.753C160.753 178.556 159.949 177.492 158.947 176.635C159.057 176.63 159.162 176.625 159.272 176.625H162.078C163.046 176.625 164.005 176.816 164.899 177.186C165.793 177.556 166.606 178.099 167.291 178.784C167.975 179.468 168.518 180.281 168.889 181.176C169.259 182.07 169.45 183.029 169.45 183.997C169.45 184.369 169.302 184.726 169.039 184.989C168.775 185.252 168.418 185.4 168.046 185.4ZM159.943 173.7C159.27 173.701 158.603 173.568 157.981 173.31C157.359 173.052 156.794 172.674 156.319 172.197C157.135 171.092 157.624 169.78 157.729 168.411C157.834 167.041 157.552 165.67 156.914 164.454C157.566 163.976 158.322 163.659 159.12 163.529C159.918 163.399 160.736 163.46 161.506 163.707C162.276 163.955 162.977 164.381 163.55 164.951C164.124 165.521 164.554 166.219 164.806 166.987C165.058 167.756 165.124 168.573 164.999 169.372C164.874 170.171 164.561 170.929 164.087 171.584C163.613 172.239 162.99 172.772 162.269 173.14C161.549 173.508 160.752 173.7 159.943 173.7Z"
          fill="#A7A7A7"/>
    <g filter="url(#filter6_bd_63_162)">
        <rect width="99.5378" height="123.084" rx="19.2482"
              transform="matrix(-0.977081 -0.212869 -0.212869 0.977081 322.2 147.41)" fill="#060311"/>
        <rect width="99.5378" height="123.084" rx="19.2482"
              transform="matrix(-0.977081 -0.212869 -0.212869 0.977081 322.2 147.41)"
              fill="url(#paint9_radial_63_162)"/>
        <rect x="-0.636233" y="0.408603" width="98.4685" height="122.015" rx="18.7135"
              transform="matrix(-0.977081 -0.212869 -0.212869 0.977081 321.029 147.284)"
              stroke="url(#paint10_linear_63_162)" stroke-width="1.06934"/>
    </g>
    <path d="M220.105 225.143L218.243 224.749L225.925 214.073L227.372 214.379L229.918 227.221L228.055 226.827L227.49 223.666L221.886 222.479L220.105 225.143ZM226.12 216.269L222.747 221.202L227.204 222.146L226.154 216.276L226.12 216.269ZM232.736 219.581L234.233 219.898L233.976 221.112L234.009 221.119C234.612 220.326 235.756 220.012 236.903 220.255C238.666 220.629 239.517 222.025 239.14 223.805L238.052 228.944L236.555 228.627L237.552 223.92C237.809 222.706 237.306 221.8 236.175 221.561C234.794 221.268 233.772 222.077 233.437 223.657L232.564 227.782L231.067 227.465L232.736 219.581ZM242.611 230.118C241.031 229.783 240.074 228.642 240.384 227.179C240.718 225.599 242.192 224.712 245.285 225.367L246.4 225.603L246.459 225.32C246.685 224.256 246.04 223.441 244.926 223.206C244.078 223.026 243.52 223.116 242.507 223.632L241.807 222.51C242.8 221.921 244.049 221.769 245.18 222.008C247.558 222.512 248.187 224.053 247.927 225.283L247.032 229.508C246.983 229.74 246.866 230.376 246.828 230.802L245.497 230.52C245.548 230.114 245.602 229.778 245.701 229.312L245.668 229.305C244.771 230.176 243.808 230.371 242.611 230.118ZM245.319 226.521C242.891 226.007 242.067 226.614 241.905 227.379C241.732 228.194 242.183 228.776 243.33 229.019C244.677 229.304 245.751 228.663 246.075 227.133L246.167 226.7L245.319 226.521ZM253.208 219.016L250.546 231.59L249.049 231.273L251.711 218.699L253.208 219.016ZM253.649 224.01L255.379 224.376L256.421 231.027L256.454 231.034L259.986 225.352L261.599 225.694L255.852 234.451C255 235.765 254.278 236.55 252.648 236.205C252.182 236.107 251.744 235.962 251.363 235.707L251.831 234.399C252.11 234.562 252.395 234.692 252.694 234.755C253.626 234.953 254.027 234.534 254.519 233.769L255.245 232.637L253.649 224.01ZM263.22 227.392L261.49 227.026L261.765 225.729L263.495 226.095L263.963 223.883L265.46 224.2L264.992 226.412L267.137 226.867L266.862 228.164L264.717 227.709L263.914 231.501C263.699 232.516 263.775 233.14 264.707 233.337C265.039 233.408 265.482 233.45 265.82 233.33L265.532 234.694C265.214 234.8 264.544 234.763 264.111 234.671C261.8 234.181 262.1 232.681 262.329 231.6L263.22 227.392ZM270.764 223.534C271.363 223.66 271.756 224.265 271.629 224.864C271.499 225.479 270.881 225.852 270.299 225.729C269.684 225.599 269.304 225.014 269.434 224.399C269.564 223.784 270.182 223.41 270.764 223.534ZM270.681 227.617L269.012 235.5L267.515 235.183L269.185 227.3L270.681 227.617ZM276.844 228.731C277.992 228.974 279.005 229.606 279.607 230.619L278.258 231.411C277.832 230.713 277.314 230.29 276.482 230.114C274.985 229.797 273.774 230.757 273.429 232.387C273.105 233.917 273.91 235.286 275.406 235.603C276.255 235.783 276.867 235.6 277.506 235.127L278.345 236.417C277.376 237.133 276.241 237.24 275.094 236.997C272.666 236.483 271.325 234.444 271.839 232.015C272.361 229.554 274.433 228.22 276.844 228.731ZM283.79 230.185C284.987 230.438 285.887 231.115 286.21 232.052L284.859 232.687C284.584 232.177 284.159 231.723 283.411 231.564C282.663 231.406 282.02 231.652 281.911 232.167C281.773 232.816 282.342 233.249 283.218 233.626C285.02 234.39 285.774 235.175 285.471 236.605C285.105 238.335 283.383 238.752 281.737 238.404C280.29 238.097 279.487 237.458 279.006 236.366L280.334 235.674C280.868 236.517 281.401 236.873 282.049 237.01C282.881 237.186 283.72 236.999 283.857 236.35C283.984 235.752 283.502 235.319 282.6 234.902C280.835 234.129 279.979 233.409 280.282 231.979C280.627 230.349 282.293 229.868 283.79 230.185Z"
          fill="url(#paint11_linear_63_162)"/>
    <path d="M268.425 165.178C268.444 165.055 268.488 164.937 268.555 164.832C268.621 164.727 268.709 164.637 268.812 164.567C268.915 164.497 269.032 164.45 269.154 164.427C269.276 164.404 269.402 164.407 269.523 164.435C272.868 165.144 275.795 167.152 277.659 170.019C279.524 172.885 280.173 176.375 279.464 179.72C279.408 179.962 279.258 180.172 279.047 180.304C278.836 180.436 278.582 180.479 278.339 180.423L265.76 177.758L268.425 165.178ZM250.063 176.316C250.751 173.061 252.591 170.164 255.244 168.157C257.896 166.149 261.184 165.166 264.503 165.387C264.632 165.394 264.758 165.428 264.872 165.488C264.986 165.548 265.086 165.633 265.165 165.735C265.243 165.838 265.298 165.956 265.327 166.082C265.355 166.208 265.355 166.339 265.328 166.465L262.485 179.888L269.43 190.567C269.502 190.672 269.55 190.792 269.57 190.918C269.591 191.043 269.584 191.172 269.549 191.295C269.515 191.418 269.454 191.532 269.371 191.628C269.288 191.725 269.185 191.802 269.068 191.855C266.742 192.863 264.183 193.212 261.672 192.862C259.161 192.513 256.795 191.479 254.832 189.874C252.87 188.27 251.386 186.156 250.545 183.764C249.704 181.373 249.537 178.796 250.063 176.316ZM279.512 183.495C279.634 183.519 279.751 183.569 279.852 183.641C279.954 183.713 280.04 183.807 280.102 183.915C280.165 184.023 280.204 184.143 280.217 184.267C280.23 184.391 280.216 184.517 280.176 184.635C279.099 187.615 277.031 190.133 274.317 191.767C274.118 191.87 273.888 191.898 273.67 191.846C273.452 191.793 273.26 191.663 273.131 191.48L266.088 180.652L279.512 183.495Z"
          fill="url(#paint12_linear_63_162)"/>
    <g filter="url(#filter7_b_63_162)">
        <rect x="5.19958" y="263.986" width="93.1952" height="115.241" rx="19.2482" fill="#060311"/>
        <rect x="5.19958" y="263.986" width="93.1952" height="115.241" rx="19.2482" fill="url(#paint13_radial_63_162)"/>
        <rect x="5.73426" y="264.521" width="92.1258" height="114.172" rx="18.7135" stroke="#3B3636"
              stroke-width="1.06934"/>
    </g>
    <path d="M18.5411 345.672H20.3171L23.6451 354.888H23.6771L27.1331 345.672H28.8131L24.3491 357H22.9091L18.5411 345.672ZM32.5922 349.224C34.7362 349.224 36.6242 350.888 36.6242 353.208C36.6242 355.416 34.8482 357.192 32.5922 357.192C30.4002 357.192 28.5602 355.464 28.5602 353.208C28.5602 351 30.3362 349.224 32.5922 349.224ZM30.0962 353.208C30.0962 354.792 31.1042 355.848 32.5922 355.848C34.0962 355.848 35.0882 354.776 35.0882 353.208C35.0882 351.608 34.0642 350.568 32.5762 350.568C31.1042 350.568 30.0962 351.656 30.0962 353.208ZM38.4282 349.416H39.8682V353.96C39.8682 355.144 40.5242 355.848 41.5962 355.848C42.9402 355.848 43.7082 354.888 43.7082 353.384V349.416H45.1482V357H43.7082V355.832H43.6762C43.2762 356.68 42.3002 357.192 41.1802 357.192C39.5002 357.192 38.4282 356.072 38.4282 354.36V349.416ZM50.9188 349.24C52.0228 349.24 53.0788 349.624 53.8308 350.44L52.7428 351.432C52.2148 350.872 51.6548 350.584 50.8548 350.584C49.4148 350.584 48.4868 351.704 48.4868 353.272C48.4868 354.744 49.4948 355.848 50.9348 355.848C51.7508 355.848 52.2788 355.56 52.7748 355L53.7988 356.024C53.0468 356.872 52.0228 357.192 50.9188 357.192C48.5828 357.192 46.9508 355.576 46.9508 353.24C46.9508 350.872 48.5988 349.24 50.9188 349.24ZM56.4776 357H55.0376V344.904H56.4776V350.584H56.5096C56.9096 349.736 57.9016 349.224 59.0056 349.224C60.6856 349.224 61.7576 350.328 61.7576 352.056V357H60.3176V352.472C60.3176 351.304 59.6776 350.568 58.5896 350.568C57.2616 350.568 56.4776 351.512 56.4776 353.032V357ZM67.4002 349.224C69.6402 349.224 71.0962 350.712 71.0962 353.336V353.736H65.0162C65.0162 355.048 66.2482 355.944 67.5762 355.944C68.4562 355.944 69.0962 355.496 69.6562 354.808L70.7442 355.64C69.9282 356.68 68.8402 357.192 67.3842 357.192C65.1282 357.192 63.4802 355.624 63.4802 353.208C63.4802 350.968 65.0962 349.224 67.4002 349.224ZM69.5602 352.584C69.5122 351.16 68.7122 350.376 67.3682 350.376C65.8482 350.376 65.0162 351.672 65.0162 352.584H69.5602ZM72.8188 357V349.416H74.2588V350.584H74.2908C74.6748 349.768 75.6188 349.224 76.5628 349.224C76.8028 349.224 77.0428 349.256 77.2028 349.32L77.1388 350.872C76.8988 350.808 76.6748 350.76 76.4188 350.76C74.9948 350.76 74.2588 351.592 74.2588 353.128V357H72.8188ZM81.3007 349.224C82.4527 349.224 83.4127 349.672 83.8927 350.472L82.7727 351.32C82.4207 350.904 81.9407 350.568 81.2207 350.568C80.5007 350.568 79.9567 350.92 79.9567 351.416C79.9567 352.04 80.5647 352.328 81.4447 352.504C83.2527 352.856 84.1007 353.432 84.1007 354.808C84.1007 356.472 82.5967 357.192 81.0127 357.192C79.6207 357.192 78.7567 356.76 78.1007 355.848L79.1887 354.952C79.8447 355.624 80.4047 355.848 81.0287 355.848C81.8287 355.848 82.5647 355.512 82.5647 354.888C82.5647 354.312 82.0367 354.008 81.1247 353.8C79.3487 353.432 78.4207 352.936 78.4207 351.56C78.4207 349.992 79.8607 349.224 81.3007 349.224Z"
          fill="#A7A7A7"/>
    <path d="M37.1996 291.333C37.1996 290.449 37.5391 289.601 38.1434 288.976C38.7476 288.351 39.5672 288 40.4218 288H62.9774C63.8319 288 64.6515 288.351 65.2558 288.976C65.8601 289.601 66.1996 290.449 66.1996 291.333V295.5C65.5586 295.5 64.944 295.763 64.4907 296.232C64.0375 296.701 63.7829 297.337 63.7829 298C63.7829 298.663 64.0375 299.299 64.4907 299.768C64.944 300.237 65.5586 300.5 66.1996 300.5V304.667C66.1996 305.551 65.8601 306.399 65.2558 307.024C64.6515 307.649 63.8319 308 62.9774 308H40.4218C39.5672 308 38.7476 307.649 38.1434 307.024C37.5391 306.399 37.1996 305.551 37.1996 304.667V300.5C37.8405 300.5 38.4552 300.237 38.9084 299.768C39.3616 299.299 39.6163 298.663 39.6163 298C39.6163 297.337 39.3616 296.701 38.9084 296.232C38.4552 295.763 37.8405 295.5 37.1996 295.5V291.333Z"
          fill="#A7A7A7"/>
    <g filter="url(#filter8_b_63_162)">
        <rect x="210.2" y="264.212" width="93.1952" height="115.241" rx="19.2482" fill="#060311"/>
        <rect x="210.2" y="264.212" width="93.1952" height="115.241" rx="19.2482" fill="url(#paint14_radial_63_162)"/>
        <rect x="210.734" y="264.747" width="92.1258" height="114.172" rx="18.7135" stroke="#3B3636"
              stroke-width="1.06934"/>
    </g>
    <path d="M226.106 345.384C229.386 345.384 232.01 347.8 232.01 351.336C232.01 354.664 229.578 357.288 226.106 357.288C222.794 357.288 220.202 354.808 220.202 351.336C220.202 347.928 222.714 345.384 226.106 345.384ZM221.834 351.336C221.834 353.8 223.498 355.848 226.106 355.848C228.586 355.848 230.378 353.912 230.378 351.336C230.378 348.84 228.698 346.824 226.09 346.824C223.626 346.824 221.834 348.76 221.834 351.336ZM237.45 349.24C238.554 349.24 239.61 349.624 240.362 350.44L239.274 351.432C238.746 350.872 238.186 350.584 237.386 350.584C235.946 350.584 235.018 351.704 235.018 353.272C235.018 354.744 236.026 355.848 237.466 355.848C238.282 355.848 238.81 355.56 239.306 355L240.33 356.024C239.578 356.872 238.554 357.192 237.45 357.192C235.114 357.192 233.482 355.576 233.482 353.24C233.482 350.872 235.13 349.24 237.45 349.24ZM245.169 349.24C246.273 349.24 247.329 349.624 248.081 350.44L246.993 351.432C246.465 350.872 245.905 350.584 245.105 350.584C243.665 350.584 242.737 351.704 242.737 353.272C242.737 354.744 243.745 355.848 245.185 355.848C246.001 355.848 246.529 355.56 247.025 355L248.049 356.024C247.297 356.872 246.273 357.192 245.169 357.192C242.833 357.192 241.201 355.576 241.201 353.24C241.201 350.872 242.849 349.24 245.169 349.24ZM251.544 357.192C250.024 357.192 248.92 356.328 248.92 354.92C248.92 353.4 250.104 352.296 253.08 352.296H254.152V352.024C254.152 351 253.4 350.376 252.328 350.376C251.512 350.376 251.016 350.568 250.184 351.24L249.32 350.344C250.12 349.608 251.24 349.224 252.328 349.224C254.616 349.224 255.496 350.52 255.496 351.704V355.768C255.496 355.992 255.512 356.6 255.56 357H254.28C254.248 356.616 254.232 356.296 254.232 355.848H254.2C253.544 356.824 252.696 357.192 251.544 357.192ZM253.336 353.352C251 353.352 250.36 354.072 250.36 354.808C250.36 355.592 250.888 356.04 251.992 356.04C253.288 356.04 254.152 355.24 254.152 353.768V353.352H253.336ZM260.144 349.224C261.296 349.224 262.256 349.672 262.736 350.472L261.616 351.32C261.264 350.904 260.784 350.568 260.064 350.568C259.344 350.568 258.8 350.92 258.8 351.416C258.8 352.04 259.408 352.328 260.288 352.504C262.096 352.856 262.944 353.432 262.944 354.808C262.944 356.472 261.44 357.192 259.856 357.192C258.464 357.192 257.6 356.76 256.944 355.848L258.032 354.952C258.688 355.624 259.248 355.848 259.872 355.848C260.672 355.848 261.408 355.512 261.408 354.888C261.408 354.312 260.88 354.008 259.968 353.8C258.192 353.432 257.264 352.936 257.264 351.56C257.264 349.992 258.704 349.224 260.144 349.224ZM265.526 345.64C266.102 345.64 266.582 346.12 266.582 346.696C266.582 347.288 266.086 347.752 265.526 347.752C264.934 347.752 264.47 347.288 264.47 346.696C264.47 346.104 264.966 345.64 265.526 345.64ZM266.246 349.416V357H264.806V349.416H266.246ZM272.202 349.224C274.346 349.224 276.234 350.888 276.234 353.208C276.234 355.416 274.458 357.192 272.202 357.192C270.01 357.192 268.17 355.464 268.17 353.208C268.17 351 269.946 349.224 272.202 349.224ZM269.706 353.208C269.706 354.792 270.714 355.848 272.202 355.848C273.706 355.848 274.698 354.776 274.698 353.208C274.698 351.608 273.674 350.568 272.186 350.568C270.714 350.568 269.706 351.656 269.706 353.208ZM278.038 349.416H279.478V350.584H279.51C279.91 349.736 280.902 349.224 282.006 349.224C283.702 349.224 284.758 350.344 284.758 352.056V357H283.318V352.472C283.318 351.304 282.678 350.568 281.59 350.568C280.262 350.568 279.478 351.512 279.478 353.032V357H278.038V349.416ZM289.488 349.224C290.64 349.224 291.6 349.672 292.08 350.472L290.96 351.32C290.608 350.904 290.128 350.568 289.408 350.568C288.688 350.568 288.144 350.92 288.144 351.416C288.144 352.04 288.752 352.328 289.632 352.504C291.44 352.856 292.288 353.432 292.288 354.808C292.288 356.472 290.784 357.192 289.2 357.192C287.808 357.192 286.944 356.76 286.288 355.848L287.376 354.952C288.032 355.624 288.592 355.848 289.216 355.848C290.016 355.848 290.752 355.512 290.752 354.888C290.752 354.312 290.224 354.008 289.312 353.8C287.536 353.432 286.608 352.936 286.608 351.56C286.608 349.992 288.048 349.224 289.488 349.224Z"
          fill="#A7A7A7"/>
    <path d="M262.2 288.375V293.375M252.2 288.375V293.375M247.2 298.375H267.2M255.95 303.375H257.2V307.125M247.2 293.375C247.2 292.712 247.463 292.076 247.932 291.607C248.401 291.138 249.037 290.875 249.7 290.875H264.7C265.363 290.875 265.999 291.138 266.467 291.607C266.936 292.076 267.2 292.712 267.2 293.375V308.375C267.2 309.038 266.936 309.674 266.467 310.143C265.999 310.612 265.363 310.875 264.7 310.875H249.7C249.037 310.875 248.401 310.612 247.932 310.143C247.463 309.674 247.2 309.038 247.2 308.375V293.375Z"
          stroke="#A7A7A7" stroke-width="2.5" stroke-linecap="round" stroke-linejoin="round"/>
    <defs>
        <filter id="filter0_b_63_162" x="103.922" y="259.708" width="101.75" height="123.796"
                filterUnits="userSpaceOnUse" color-interpolation-filters="sRGB">
            <feFlood flood-opacity="0" result="BackgroundImageFix"/>
            <feGaussianBlur in="BackgroundImageFix" stdDeviation="2.13869"/>
            <feComposite in2="SourceAlpha" operator="in" result="effect1_backgroundBlur_63_162"/>
            <feBlend mode="normal" in="SourceGraphic" in2="effect1_backgroundBlur_63_162" result="shape"/>
        </filter>
        <filter id="filter1_b_63_162" x="103.922" y="6.72262" width="101.75" height="123.796"
                filterUnits="userSpaceOnUse" color-interpolation-filters="sRGB">
            <feFlood flood-opacity="0" result="BackgroundImageFix"/>
            <feGaussianBlur in="BackgroundImageFix" stdDeviation="2.13869"/>
            <feComposite in2="SourceAlpha" operator="in" result="effect1_backgroundBlur_63_162"/>
            <feBlend mode="normal" in="SourceGraphic" in2="effect1_backgroundBlur_63_162" result="shape"/>
        </filter>
        <filter id="filter2_b_63_162" x="205.922" y="6.29928" width="101.75" height="123.796"
                filterUnits="userSpaceOnUse" color-interpolation-filters="sRGB">
            <feFlood flood-opacity="0" result="BackgroundImageFix"/>
            <feGaussianBlur in="BackgroundImageFix" stdDeviation="2.13869"/>
            <feComposite in2="SourceAlpha" operator="in" result="effect1_backgroundBlur_63_162"/>
            <feBlend mode="normal" in="SourceGraphic" in2="effect1_backgroundBlur_63_162" result="shape"/>
        </filter>
        <filter id="filter3_bd_63_162" x="-2.13054" y="-2.1304" width="131.186" height="144.386"
                filterUnits="userSpaceOnUse" color-interpolation-filters="sRGB">
            <feFlood flood-opacity="0" result="BackgroundImageFix"/>
            <feGaussianBlur in="BackgroundImageFix" stdDeviation="2.13869"/>
            <feComposite in2="SourceAlpha" operator="in" result="effect1_backgroundBlur_63_162"/>
            <feColorMatrix in="SourceAlpha" type="matrix" values="0 0 0 0 0 0 0 0 0 0 0 0 0 0 0 0 0 0 127 0"
                           result="hardAlpha"/>
            <feMorphology radius="2.13869" operator="erode" in="SourceAlpha" result="effect2_dropShadow_63_162"/>
            <feOffset dx="14.9708" dy="8.55475"/>
            <feGaussianBlur stdDeviation="5.13285"/>
            <feComposite in2="hardAlpha" operator="out"/>
            <feColorMatrix type="matrix" values="0 0 0 0 0 0 0 0 0 0 0 0 0 0 0 0 0 0 0.15 0"/>
            <feBlend mode="normal" in2="effect1_backgroundBlur_63_162" result="effect2_dropShadow_63_162"/>
            <feBlend mode="normal" in="SourceGraphic" in2="effect2_dropShadow_63_162" result="shape"/>
        </filter>
        <filter id="filter4_b_63_162" x="0.92221" y="133.723" width="101.75" height="123.796"
                filterUnits="userSpaceOnUse" color-interpolation-filters="sRGB">
            <feFlood flood-opacity="0" result="BackgroundImageFix"/>
            <feGaussianBlur in="BackgroundImageFix" stdDeviation="2.13869"/>
            <feComposite in2="SourceAlpha" operator="in" result="effect1_backgroundBlur_63_162"/>
            <feBlend mode="normal" in="SourceGraphic" in2="effect1_backgroundBlur_63_162" result="shape"/>
        </filter>
        <filter id="filter5_b_63_162" x="103.922" y="133.723" width="101.75" height="123.796"
                filterUnits="userSpaceOnUse" color-interpolation-filters="sRGB">
            <feFlood flood-opacity="0" result="BackgroundImageFix"/>
            <feGaussianBlur in="BackgroundImageFix" stdDeviation="2.13869"/>
            <feComposite in2="SourceAlpha" operator="in" result="effect1_backgroundBlur_63_162"/>
            <feBlend mode="normal" in="SourceGraphic" in2="effect1_backgroundBlur_63_162" result="shape"/>
        </filter>
        <filter id="filter6_bd_63_162" x="179.858" y="125.597" width="142.967" height="170.567"
                filterUnits="userSpaceOnUse" color-interpolation-filters="sRGB">
            <feFlood flood-opacity="0" result="BackgroundImageFix"/>
            <feGaussianBlur in="BackgroundImageFix" stdDeviation="2.13869"/>
            <feComposite in2="SourceAlpha" operator="in" result="effect1_backgroundBlur_63_162"/>
            <feColorMatrix in="SourceAlpha" type="matrix" values="0 0 0 0 0 0 0 0 0 0 0 0 0 0 0 0 0 0 127 0"
                           result="hardAlpha"/>
            <feMorphology radius="2.13869" operator="erode" in="SourceAlpha" result="effect2_dropShadow_63_162"/>
            <feOffset dx="-14.4091" dy="24.0152"/>
            <feGaussianBlur stdDeviation="5.13285"/>
            <feComposite in2="hardAlpha" operator="out"/>
            <feColorMatrix type="matrix" values="0 0 0 0 0 0 0 0 0 0 0 0 0 0 0 0 0 0 0.15 0"/>
            <feBlend mode="normal" in2="effect1_backgroundBlur_63_162" result="effect2_dropShadow_63_162"/>
            <feBlend mode="normal" in="SourceGraphic" in2="effect2_dropShadow_63_162" result="shape"/>
        </filter>
        <filter id="filter7_b_63_162" x="0.92221" y="259.708" width="101.75" height="123.796"
                filterUnits="userSpaceOnUse" color-interpolation-filters="sRGB">
            <feFlood flood-opacity="0" result="BackgroundImageFix"/>
            <feGaussianBlur in="BackgroundImageFix" stdDeviation="2.13869"/>
            <feComposite in2="SourceAlpha" operator="in" result="effect1_backgroundBlur_63_162"/>
            <feBlend mode="normal" in="SourceGraphic" in2="effect1_backgroundBlur_63_162" result="shape"/>
        </filter>
        <filter id="filter8_b_63_162" x="205.922" y="259.935" width="101.75" height="123.796"
                filterUnits="userSpaceOnUse" color-interpolation-filters="sRGB">
            <feFlood flood-opacity="0" result="BackgroundImageFix"/>
            <feGaussianBlur in="BackgroundImageFix" stdDeviation="2.13869"/>
            <feComposite in2="SourceAlpha" operator="in" result="effect1_backgroundBlur_63_162"/>
            <feBlend mode="normal" in="SourceGraphic" in2="effect1_backgroundBlur_63_162" result="shape"/>
        </filter>
        <radialGradient id="paint0_radial_63_162" cx="0" cy="0" r="1" gradientUnits="userSpaceOnUse"
                        gradientTransform="translate(-4504.96 -5440.46) scale(55.2268 57.6207)">
            <stop stop-color="#575757" stop-opacity="0.4"/>
            <stop offset="0.44" stop-color="#060311" stop-opacity="0"/>
        </radialGradient>
        <radialGradient id="paint1_radial_63_162" cx="0" cy="0" r="1" gradientUnits="userSpaceOnUse"
                        gradientTransform="translate(-4504.96 -5693.44) scale(55.2268 57.6207)">
            <stop stop-color="#575757" stop-opacity="0.4"/>
            <stop offset="0.44" stop-color="#060311" stop-opacity="0"/>
        </radialGradient>
        <radialGradient id="paint2_radial_63_162" cx="0" cy="0" r="1" gradientUnits="userSpaceOnUse"
                        gradientTransform="translate(-4402.96 -5693.87) scale(55.2268 57.6207)">
            <stop stop-color="#575757" stop-opacity="0.4"/>
            <stop offset="0.44" stop-color="#060311" stop-opacity="0"/>
        </radialGradient>
        <radialGradient id="paint3_radial_63_162" cx="0" cy="0" r="1" gradientUnits="userSpaceOnUse"
                        gradientTransform="translate(-4695.21 -5794.64) scale(56.209 58.6455)">
            <stop stop-color="#575757" stop-opacity="0.4"/>
            <stop offset="0.44" stop-color="#060311" stop-opacity="0"/>
        </radialGradient>
        <linearGradient id="paint4_linear_63_162" x1="94.8527" y1="69.9048" x2="10.4734" y2="40.177"
                        gradientUnits="userSpaceOnUse">
            <stop stop-color="#1EFBB8"/>
            <stop offset="1" stop-color="#0EE5F9"/>
        </linearGradient>
        <linearGradient id="paint5_linear_63_162" x1="83.53" y1="87.9576" x2="69.8639" y2="67.5786"
                        gradientUnits="userSpaceOnUse">
            <stop stop-color="#1EFBB8"/>
            <stop offset="1" stop-color="#0EE5F9"/>
        </linearGradient>
        <linearGradient id="paint6_linear_63_162" x1="64.0441" y1="44.853" x2="41.2403" y2="38.8339"
                        gradientUnits="userSpaceOnUse">
            <stop stop-color="#1EFBB8"/>
            <stop offset="1" stop-color="#0EE5F9"/>
        </linearGradient>
        <radialGradient id="paint7_radial_63_162" cx="0" cy="0" r="1" gradientUnits="userSpaceOnUse"
                        gradientTransform="translate(-4607.96 -5566.44) scale(55.2268 57.6207)">
            <stop stop-color="#575757" stop-opacity="0.4"/>
            <stop offset="0.44" stop-color="#060311" stop-opacity="0"/>
        </radialGradient>
        <radialGradient id="paint8_radial_63_162" cx="0" cy="0" r="1" gradientUnits="userSpaceOnUse"
                        gradientTransform="translate(-4504.96 -5566.44) scale(55.2268 57.6207)">
            <stop stop-color="#575757" stop-opacity="0.4"/>
            <stop offset="0.44" stop-color="#060311" stop-opacity="0"/>
        </radialGradient>
        <radialGradient id="paint9_radial_63_162" cx="0" cy="0" r="1" gradientUnits="userSpaceOnUse"
                        gradientTransform="translate(-4927.12 -6092.68) scale(58.9854 61.5422)">
            <stop stop-color="#575757" stop-opacity="0.4"/>
            <stop offset="0.44" stop-color="#060311" stop-opacity="0"/>
        </radialGradient>
        <linearGradient id="paint10_linear_63_162" x1="99.5378" y1="61.5422" x2="10.9908" y2="30.3461"
                        gradientUnits="userSpaceOnUse">
            <stop stop-color="#1EFBB8"/>
            <stop offset="1" stop-color="#0EE5F9"/>
        </linearGradient>
        <linearGradient id="paint11_linear_63_162" x1="286.946" y1="233.165" x2="282.589" y2="207.957"
                        gradientUnits="userSpaceOnUse">
            <stop stop-color="#1EFBB8"/>
            <stop offset="1" stop-color="#0EE5F9"/>
        </linearGradient>
        <linearGradient id="paint12_linear_63_162" x1="280.766" y1="181.879" x2="258.06" y2="164.947"
                        gradientUnits="userSpaceOnUse">
            <stop stop-color="#1EFBB8"/>
            <stop offset="1" stop-color="#0EE5F9"/>
        </linearGradient>
        <radialGradient id="paint13_radial_63_162" cx="0" cy="0" r="1" gradientUnits="userSpaceOnUse"
                        gradientTransform="translate(-4607.96 -5440.46) scale(55.2268 57.6207)">
            <stop stop-color="#575757" stop-opacity="0.4"/>
            <stop offset="0.44" stop-color="#060311" stop-opacity="0"/>
        </radialGradient>
        <radialGradient id="paint14_radial_63_162" cx="0" cy="0" r="1" gradientUnits="userSpaceOnUse"
                        gradientTransform="translate(-4402.96 -5440.23) scale(55.2268 57.6207)">
            <stop stop-color="#575757" stop-opacity="0.4"/>
            <stop offset="0.44" stop-color="#060311" stop-opacity="0"/>
        </radialGradient>
    </defs>
</svg>
