<svg width="130" height="16" viewBox="0 0 130 16" fill="none" xmlns="http://www.w3.org/2000/svg">
<path d="M0.791458 14.5456C0.540481 14.6607 0.430391 14.9576 0.545566 15.2085C0.66074 15.4595 0.957565 15.5696 1.20854 15.4544L1 15L0.791458 14.5456ZM130 15L126.617 10.3214L124.257 15.5904L130 15ZM1 15L1.20854 15.4544C2.04459 15.0708 2.88485 14.6944 3.72922 14.3253L3.52897 13.8671L3.32871 13.409C2.47878 13.7805 1.633 14.1594 0.791458 14.5456L1 15ZM8.64723 11.7397L8.83074 12.2048C10.5403 11.5303 12.2655 10.8854 14.0056 10.2708L13.8391 9.79935L13.6725 9.3279C11.921 9.94655 10.1845 10.5957 8.46373 11.2746L8.64723 11.7397ZM19.0976 8.0484L19.247 8.52557C21.0003 7.9768 22.7677 7.45839 24.5484 6.97098L24.4164 6.48872L24.2844 6.00646C22.492 6.49706 20.7131 7.01886 18.9483 7.57122L19.0976 8.0484ZM29.7881 5.12208L29.9026 5.60879C31.6902 5.18818 33.4901 4.79854 35.3019 4.44049L35.205 3.94997L35.108 3.45946C33.2845 3.81984 31.4728 4.21202 29.6736 4.63537L29.7881 5.12208ZM40.6609 2.97311L40.7402 3.46679C42.5528 3.17568 44.3763 2.91599 46.2101 2.68834L46.1485 2.19214L46.0869 1.69595C44.2413 1.92508 42.406 2.18644 40.5816 2.47944L40.6609 2.97311ZM51.6597 1.60732L51.7036 2.10539C53.5316 1.94419 55.3691 1.81471 57.2153 1.71751L57.189 1.2182L57.1628 0.718895C55.3047 0.816709 53.4555 0.94702 51.6158 1.10926L51.6597 1.60732ZM62.728 1.0242L62.7367 1.52412C63.6558 1.50806 64.5769 1.5 65.5 1.5V1V0.5C64.5711 0.5 63.6442 0.508114 62.7192 0.524274L62.728 1.0242ZM65.5 1V1.5C66.4231 1.5 67.3442 1.50806 68.2633 1.52412L68.272 1.0242L68.2808 0.524274C67.3558 0.508114 66.4289 0.5 65.5 0.5V1ZM73.8109 1.2182L73.7847 1.71751C75.6309 1.81471 77.4684 1.94419 79.2964 2.10539L79.3403 1.60732L79.3842 1.10925C77.5445 0.947019 75.6953 0.816708 73.8372 0.718894L73.8109 1.2182ZM84.8515 2.19214L84.7899 2.68834C86.6237 2.91599 88.4472 3.17568 90.2598 3.46679L90.3391 2.97311L90.4184 2.47944C88.594 2.18644 86.7587 1.92508 84.9131 1.69595L84.8515 2.19214ZM95.795 3.94997L95.6981 4.44049C97.5099 4.79854 99.3098 5.18818 101.097 5.60879L101.212 5.12208L101.326 4.63537C99.5272 4.21202 97.7155 3.81985 95.892 3.45946L95.795 3.94997ZM106.584 6.48873L106.452 6.97099C108.232 7.4584 110 7.97681 111.753 8.52557L111.902 8.0484L112.052 7.57123C110.287 7.01886 108.508 6.49706 106.716 6.00647L106.584 6.48873ZM117.161 9.79935L116.994 10.2708C118.735 10.8854 120.46 11.5303 122.169 12.2048L122.353 11.7397L122.536 11.2746C120.815 10.5957 119.079 9.94655 117.327 9.3279L117.161 9.79935ZM0.791458 14.5456C0.540481 14.6607 0.430391 14.9576 0.545566 15.2085C0.66074 15.4595 0.957565 15.5696 1.20854 15.4544L1 15L0.791458 14.5456ZM130 15L126.617 10.3214L124.257 15.5904L130 15ZM1 15L1.20854 15.4544C2.04459 15.0708 2.88485 14.6944 3.72922 14.3253L3.52897 13.8671L3.32871 13.409C2.47878 13.7805 1.633 14.1594 0.791458 14.5456L1 15ZM8.64723 11.7397L8.83074 12.2048C10.5403 11.5303 12.2655 10.8854 14.0056 10.2708L13.8391 9.79935L13.6725 9.3279C11.921 9.94655 10.1845 10.5957 8.46373 11.2746L8.64723 11.7397ZM19.0976 8.0484L19.247 8.52557C21.0003 7.9768 22.7677 7.45839 24.5484 6.97098L24.4164 6.48872L24.2844 6.00646C22.492 6.49706 20.7131 7.01886 18.9483 7.57122L19.0976 8.0484ZM29.7881 5.12208L29.9026 5.60879C31.6902 5.18818 33.4901 4.79854 35.3019 4.44049L35.205 3.94997L35.108 3.45946C33.2845 3.81984 31.4728 4.21202 29.6736 4.63537L29.7881 5.12208ZM40.6609 2.97311L40.7402 3.46679C42.5528 3.17568 44.3763 2.91599 46.2101 2.68834L46.1485 2.19214L46.0869 1.69595C44.2413 1.92508 42.406 2.18644 40.5816 2.47944L40.6609 2.97311ZM51.6597 1.60732L51.7036 2.10539C53.5316 1.94419 55.3691 1.81471 57.2153 1.71751L57.189 1.2182L57.1628 0.718895C55.3047 0.816709 53.4555 0.94702 51.6158 1.10926L51.6597 1.60732ZM62.728 1.0242L62.7367 1.52412C63.6558 1.50806 64.5769 1.5 65.5 1.5V1V0.5C64.5711 0.5 63.6442 0.508114 62.7192 0.524274L62.728 1.0242ZM65.5 1V1.5C66.4231 1.5 67.3442 1.50806 68.2633 1.52412L68.272 1.0242L68.2808 0.524274C67.3558 0.508114 66.4289 0.5 65.5 0.5V1ZM73.8109 1.2182L73.7847 1.71751C75.6309 1.81471 77.4684 1.94419 79.2964 2.10539L79.3403 1.60732L79.3842 1.10925C77.5445 0.947019 75.6953 0.816708 73.8372 0.718894L73.8109 1.2182ZM84.8515 2.19214L84.7899 2.68834C86.6237 2.91599 88.4472 3.17568 90.2598 3.46679L90.3391 2.97311L90.4184 2.47944C88.594 2.18644 86.7587 1.92508 84.9131 1.69595L84.8515 2.19214ZM95.795 3.94997L95.6981 4.44049C97.5099 4.79854 99.3098 5.18818 101.097 5.60879L101.212 5.12208L101.326 4.63537C99.5272 4.21202 97.7155 3.81985 95.892 3.45946L95.795 3.94997ZM106.584 6.48873L106.452 6.97099C108.232 7.4584 110 7.97681 111.753 8.52557L111.902 8.0484L112.052 7.57123C110.287 7.01886 108.508 6.49706 106.716 6.00647L106.584 6.48873ZM117.161 9.79935L116.994 10.2708C118.735 10.8854 120.46 11.5303 122.169 12.2048L122.353 11.7397L122.536 11.2746C120.815 10.5957 119.079 9.94655 117.327 9.3279L117.161 9.79935Z" fill="white"/>
</svg>
