<svg width="1152" height="205" viewBox="0 0 1152 205" fill="none" xmlns="http://www.w3.org/2000/svg">
<path d="M0.418778 200V169.947L100.067 43.4097H2.0005V13.357H141.455V43.4097L41.0163 169.947H143.037V200H0.418778ZM249.363 200V182.601H248.572C239.609 196.837 224.846 203.163 207.974 203.163C184.512 203.163 161.841 190.246 161.841 165.202C161.841 124.077 209.82 121.178 241.454 121.178H249.363V117.751C249.363 102.197 237.236 94.0248 220.364 94.0248C207.183 94.0248 195.057 99.2972 186.621 107.206L170.013 90.5977C183.985 76.3622 203.756 70.299 223.791 70.299C277.834 70.299 277.834 109.315 277.834 127.241V200H249.363ZM247.517 150.439V143.322H240.927C223.528 143.322 193.475 144.64 193.475 162.83C193.475 174.429 205.338 179.438 215.619 179.438C237.236 179.438 247.517 168.102 247.517 150.439ZM311.869 200V0.703273H343.504V125.923L392.273 73.4624H432.871L378.565 130.932L436.298 200H394.382L344.031 135.413H343.504V200H311.869ZM453.989 200V73.4624H485.624V200H453.989ZM449.508 30.4923C449.508 20.4748 457.944 11.5117 469.543 11.5117C481.142 11.5117 490.105 19.6839 490.105 30.4923C490.105 41.3007 481.142 49.473 469.543 49.473C457.944 49.473 449.508 40.5099 449.508 30.4923ZM678.795 38.1373L652.961 57.1179C639.252 42.6189 626.599 38.6646 613.681 38.6646C575.193 38.6646 549.622 68.19 549.622 105.36C549.622 145.167 575.193 174.692 613.681 174.692C628.708 174.692 643.207 167.838 655.597 152.021L683.013 171.529C666.142 194.728 640.834 204.745 613.418 204.745C555.948 204.745 514.824 165.729 514.824 107.469C514.824 47.6276 555.948 8.61188 613.418 8.61188C638.725 8.61188 660.342 16.7841 678.795 38.1373ZM696.081 136.731C696.081 96.9246 726.661 70.299 764.886 70.299C803.111 70.299 833.691 96.9246 833.691 136.731C833.691 176.538 803.111 203.163 764.886 203.163C726.661 203.163 696.081 176.538 696.081 136.731ZM727.715 136.731C727.715 156.503 741.687 174.692 764.886 174.692C788.084 174.692 802.056 156.503 802.056 136.731C802.056 116.96 788.084 98.7699 764.886 98.7699C741.687 98.7699 727.715 116.96 727.715 136.731ZM963.484 200V181.019H962.957C953.73 196.309 937.122 203.163 919.46 203.163C880.444 203.163 856.982 174.165 856.982 136.731C856.982 99.2972 882.026 70.299 918.142 70.299C941.868 70.299 954.521 81.371 961.112 89.5432H961.903V0.703273H993.537V200H963.484ZM888.616 136.731C888.616 156.503 902.588 174.692 925.787 174.692C948.985 174.692 962.957 156.503 962.957 136.731C962.957 116.96 948.985 98.7699 925.787 98.7699C902.588 98.7699 888.616 116.96 888.616 136.731ZM1151.15 147.803H1054.67C1056.77 166.52 1071.01 177.856 1088.67 177.856C1104.49 177.856 1114.77 170.475 1122.68 160.721L1145.35 177.856C1130.59 196.046 1111.87 203.163 1091.84 203.163C1053.61 203.163 1023.03 176.538 1023.03 136.731C1023.03 96.9246 1053.61 70.299 1091.84 70.299C1127.16 70.299 1151.15 95.0792 1151.15 139.104V147.803ZM1054.67 124.077H1119.52C1119.25 105.624 1107.13 94.0248 1087.35 94.0248C1068.64 94.0248 1057.04 105.888 1054.67 124.077Z" fill="url(#paint0_linear_106_2868)"/>
<defs>
<linearGradient id="paint0_linear_106_2868" x1="1163" y1="132.5" x2="772.39" y2="-419.966" gradientUnits="userSpaceOnUse">
<stop stop-color="#1EFBB8"/>
<stop offset="1" stop-color="#0EE5F9"/>
</linearGradient>
</defs>
</svg>
