<svg width="38" height="31" viewBox="0 0 38 31" fill="none" xmlns="http://www.w3.org/2000/svg">
    <path d="M37.1629 7.22578V11.6366L29.2484 21.3968H23.7739L31.3131 12.669C32.9085 10.8233 32.7833 8.00785 30.969 6.34986C29.9053 5.3801 28.4976 4.78573 26.9335 4.78573H11.0732C7.97617 4.78573 5.44227 7.10065 5.12945 10.1038H0.875V7.22578C3.50275 4.59803 4.97303 3.12775 7.60078 0.5H30.4371C33.0649 3.12775 34.5352 4.59803 37.1629 7.22578Z"
          fill="#00E89F"/>
    <path d="M0 23.7746V19.3637L7.91452 9.60352H13.389L5.84986 18.3314C4.25445 20.1771 4.37958 22.9925 6.19397 24.6505C7.25758 25.6203 8.66531 26.2146 10.2294 26.2146H26.121C29.218 26.2146 31.7519 23.8997 32.0648 20.8966H36.2879V23.7746C33.6602 26.4023 32.1899 27.8726 29.5621 30.5004H6.72578C4.09803 27.8726 2.62775 26.4023 0 23.7746Z"
          fill="#00E89F"/>
    <path d="M15.7369 13.9824H14.2979C13.7661 13.9824 13.3594 14.3891 13.3594 14.9209V16.3599C13.3594 16.8917 13.7661 17.2984 14.2979 17.2984H15.7369C16.2687 17.2984 16.6753 16.8917 16.6753 16.3599V14.9209C16.6753 14.3891 16.2687 13.9824 15.7369 13.9824Z"
          fill="#00E89F"/>
    <path d="M23.7134 13.9824H22.2744C21.7426 13.9824 21.3359 14.3891 21.3359 14.9209V16.3599C21.3359 16.8917 21.7426 17.2984 22.2744 17.2984H23.7134C24.2452 17.2984 24.6519 16.8917 24.6519 16.3599V14.9209C24.6519 14.3891 24.2452 13.9824 23.7134 13.9824Z"
          fill="#00E89F"/>
</svg>
