<svg width="76" height="76" viewBox="0 0 76 76" fill="none" xmlns="http://www.w3.org/2000/svg">
<path d="M15.8325 69.2547C13.4891 69.2547 11.1775 68.368 9.40414 66.5947C7.69414 64.8847 6.74414 62.6047 6.74414 60.1664C6.74414 57.728 7.69414 55.448 9.40414 53.738L50.5708 12.5714C54.1175 9.02471 59.8808 9.02471 63.4275 12.5714C65.1375 14.2814 66.0875 16.5614 66.0875 18.9997C66.0875 21.438 65.1375 23.718 63.4275 25.428L22.2608 66.5947C20.4875 68.368 18.1758 69.2547 15.8325 69.2547ZM56.9991 14.6614C55.8908 14.6614 54.7825 15.073 53.9275 15.928L12.7608 57.0947C11.9375 57.918 11.4941 58.9947 11.4941 60.1664C11.4941 61.338 11.9375 62.4147 12.7608 63.238C14.4391 64.9164 17.2258 64.9164 18.9041 63.238L60.0708 22.0714C60.8941 21.248 61.3375 20.1714 61.3375 18.9997C61.3375 17.828 60.8941 16.7514 60.0708 15.928C59.2158 15.073 58.1075 14.6614 56.9991 14.6614Z" fill="url(#paint0_linear_288_2249)"/>
<path d="M57.0321 30.8439C56.4305 30.8439 55.8288 30.6222 55.3538 30.1472L45.8538 20.6472C44.9355 19.7289 44.9355 18.2089 45.8538 17.2906C46.7721 16.3722 48.2921 16.3722 49.2105 17.2906L58.7105 26.7906C59.6288 27.7089 59.6288 29.2289 58.7105 30.1472C58.2355 30.6222 57.6338 30.8439 57.0321 30.8439Z" fill="url(#paint1_linear_288_2249)"/>
<path d="M31.6663 17.4169C31.508 17.4169 31.3813 17.3852 31.223 17.3536L26.9163 16.0869L22.6097 17.3536C22.0397 17.5119 21.438 17.3536 21.058 16.9419C20.6463 16.5302 20.488 15.9602 20.6463 15.3902L21.913 11.0836L20.6463 6.77691C20.488 6.20691 20.6463 5.60524 21.058 5.22524C21.4697 4.81358 22.0713 4.65524 22.6097 4.81358L26.9163 6.08024L31.223 4.81358C31.793 4.65524 32.363 4.81358 32.7747 5.22524C33.1863 5.63691 33.3447 6.23858 33.1863 6.77691L31.9197 11.0836L33.1863 15.3902C33.3447 15.9602 33.1863 16.5619 32.7747 16.9419C32.4897 17.2586 32.078 17.4169 31.6663 17.4169ZM26.9163 12.8569C27.0747 12.8569 27.2013 12.8886 27.3597 12.9202L29.323 13.4902L28.753 11.5269C28.658 11.2419 28.658 10.9252 28.753 10.6402L29.323 8.67691L27.3597 9.24691C27.0747 9.34191 26.758 9.34191 26.473 9.24691L24.5097 8.67691L25.0797 10.6402C25.1747 10.9252 25.1747 11.2419 25.0797 11.5269L24.5097 13.4902L26.473 12.9202C26.6313 12.8886 26.758 12.8569 26.9163 12.8569Z" fill="url(#paint2_linear_288_2249)"/>
<path d="M19.0003 36.4169C18.842 36.4169 18.7153 36.3852 18.557 36.3536L14.2503 35.0869L9.94366 36.3536C9.37366 36.5119 8.80366 36.3536 8.39199 35.9419C7.98033 35.5302 7.82199 34.9286 7.98033 34.3902L9.24699 30.0836L7.98033 25.7769C7.82199 25.2069 7.98033 24.6052 8.39199 24.2252C8.80366 23.8452 9.40533 23.6552 9.94366 23.8136L14.2503 25.0802L18.557 23.8136C19.0953 23.6552 19.697 23.8136 20.1087 24.2252C20.5203 24.6369 20.6787 25.2386 20.5203 25.7769L19.2537 30.0836L20.5203 34.3902C20.6787 34.9602 20.5203 35.5619 20.1087 35.9419C19.8237 36.2586 19.412 36.4169 19.0003 36.4169ZM14.2503 31.8569C14.4087 31.8569 14.5353 31.8886 14.6937 31.9202L16.657 32.4902L16.087 30.5269C15.992 30.2419 15.992 29.9252 16.087 29.6402L16.657 27.6769L14.6937 28.2469C14.4087 28.3419 14.092 28.3419 13.807 28.2469L11.8437 27.6769L12.4137 29.6402C12.5087 29.9252 12.5087 30.2419 12.4137 30.5269L11.8437 32.4902L13.807 31.9202C13.9653 31.8886 14.092 31.8569 14.2503 31.8569Z" fill="url(#paint3_linear_288_2249)"/>
<path d="M66.5003 52.2502C66.342 52.2502 66.2153 52.2185 66.057 52.1868L61.7503 50.9202L57.4437 52.1868C56.8737 52.3452 56.3037 52.1868 55.892 51.7752C55.4803 51.3635 55.322 50.7618 55.4803 50.2235L56.747 45.9168L55.4803 41.6102C55.322 41.0402 55.4803 40.4385 55.892 40.0585C56.3037 39.6785 56.9053 39.4885 57.4437 39.6468L61.7503 40.9135L66.057 39.6468C66.5953 39.4885 67.197 39.6468 67.6087 40.0585C68.0203 40.4702 68.1787 41.0718 68.0203 41.6102L66.7537 45.9168L68.0203 50.2235C68.1787 50.7935 68.0203 51.3952 67.6087 51.7752C67.3237 52.0918 66.912 52.2502 66.5003 52.2502ZM61.7503 47.6902C61.9087 47.6902 62.0353 47.7218 62.1937 47.7535L64.157 48.3235L63.587 46.3602C63.492 46.0752 63.492 45.7585 63.587 45.4735L64.157 43.5102L62.1937 44.0802C61.9087 44.1752 61.592 44.1752 61.307 44.0802L59.3437 43.5102L59.9137 45.4735C60.0087 45.7585 60.0087 46.0752 59.9137 46.3602L59.3437 48.3235L61.307 47.7535C61.4653 47.7218 61.592 47.6902 61.7503 47.6902Z" fill="url(#paint4_linear_288_2249)"/>
<defs>
<linearGradient id="paint0_linear_288_2249" x1="36.4158" y1="9.91138" x2="36.4158" y2="69.2547" gradientUnits="userSpaceOnUse">
<stop stop-color="#0EE5F9"/>
<stop offset="1" stop-color="#1EFBB8"/>
</linearGradient>
<linearGradient id="paint1_linear_288_2249" x1="52.2821" y1="16.6018" x2="52.2821" y2="30.8439" gradientUnits="userSpaceOnUse">
<stop stop-color="#0EE5F9"/>
<stop offset="1" stop-color="#1EFBB8"/>
</linearGradient>
<linearGradient id="paint2_linear_288_2249" x1="26.9163" y1="4.75317" x2="26.9163" y2="17.4169" gradientUnits="userSpaceOnUse">
<stop stop-color="#0EE5F9"/>
<stop offset="1" stop-color="#1EFBB8"/>
</linearGradient>
<linearGradient id="paint3_linear_288_2249" x1="14.2503" y1="23.7532" x2="14.2503" y2="36.4169" gradientUnits="userSpaceOnUse">
<stop stop-color="#0EE5F9"/>
<stop offset="1" stop-color="#1EFBB8"/>
</linearGradient>
<linearGradient id="paint4_linear_288_2249" x1="61.7503" y1="39.5864" x2="61.7503" y2="52.2502" gradientUnits="userSpaceOnUse">
<stop stop-color="#0EE5F9"/>
<stop offset="1" stop-color="#1EFBB8"/>
</linearGradient>
</defs>
</svg>
