<svg width="77" height="81" viewBox="0 0 77 81" fill="none" xmlns="http://www.w3.org/2000/svg">
<path d="M19.3313 32.5325C14.9679 32.5325 11.418 36.0824 11.418 40.4458C11.418 44.8093 14.9679 48.3592 19.3313 48.3592C23.6948 48.3592 27.2447 44.8093 27.2447 40.4458C27.2447 36.0824 23.6948 32.5325 19.3313 32.5325ZM19.3313 43.0837C17.8769 43.0837 16.6935 41.9003 16.6935 40.4458C16.6935 38.9914 17.8769 37.808 19.3313 37.808C20.7858 37.808 21.9692 38.9914 21.9692 40.4458C21.9692 41.9003 20.7858 43.0837 19.3313 43.0837Z" fill="url(#paint0_linear_288_2258)"/>
<path d="M33.8382 51.8679C32.0077 50.8113 29.8752 50.5305 27.8335 51.0773C25.7916 51.6244 24.0855 52.9337 23.0285 54.7642C21.9717 56.5949 21.6908 58.7275 22.2379 60.7691C22.785 62.8106 24.0943 64.5171 25.925 65.5741C27.168 66.2918 28.5265 66.6329 29.8685 66.6329C32.6052 66.6329 35.271 65.2135 36.7348 62.6779C38.9162 58.8989 37.6169 54.0496 33.8382 51.8679ZM32.1658 60.0401C31.8137 60.6502 31.2447 61.0868 30.5641 61.2691C29.8838 61.4513 29.1727 61.3577 28.5625 61.0056C27.9523 60.6534 27.5158 60.0845 27.3335 59.4038C27.1511 58.7234 27.2447 58.0126 27.597 57.4022C27.9492 56.7921 28.5181 56.3555 29.1984 56.1732C29.4256 56.1124 29.6563 56.082 29.8855 56.082C30.3426 56.082 30.7938 56.202 31.2002 56.4366C32.46 57.164 32.8931 58.7804 32.1658 60.0401Z" fill="url(#paint1_linear_288_2258)"/>
<path d="M54.9407 15.3177C53.1102 14.2609 50.9776 13.9802 48.9361 14.5271C46.8942 15.0743 45.188 16.3835 44.131 18.214C43.0742 20.0447 42.7933 22.1773 43.3404 24.2189C43.8877 26.2608 45.197 27.9672 47.0275 29.024C48.247 29.7281 49.6001 30.0878 50.9713 30.0878C51.6587 30.0878 52.3507 29.9974 53.0323 29.8146C55.0739 29.2675 56.7804 27.9582 57.8374 26.1276C60.0189 22.3485 58.7196 17.4993 54.9407 15.3177ZM53.2687 23.4897C52.9165 24.0999 52.3476 24.5364 51.667 24.7188C50.9865 24.9011 50.2757 24.8077 49.6653 24.4552C49.0552 24.1031 48.6186 23.5341 48.4363 22.8535C48.254 22.173 48.3475 21.4622 48.6999 20.8519C49.1945 19.9948 50.0859 19.5317 50.9884 19.5317C52.9968 19.5319 54.2865 21.7268 53.2687 23.4897Z" fill="url(#paint2_linear_288_2258)"/>
<path d="M57.8375 54.7644C56.7807 52.9338 55.0742 51.6245 53.0323 51.0774C50.9909 50.5301 48.8582 50.811 47.0275 51.8679C45.1968 52.9248 43.8877 54.6312 43.3404 56.673C42.7933 58.7146 43.0742 60.8471 44.131 62.6778C45.5951 65.2136 48.2602 66.6328 50.9974 66.6328C52.3387 66.6328 53.6978 66.2919 54.9407 65.5741C58.7197 63.3927 60.0192 58.5434 57.8375 54.7644ZM52.3033 61.0056C51.0435 61.7327 49.4273 61.2996 48.7002 60.0401C48.348 59.4299 48.2542 58.719 48.4366 58.0385C48.619 57.358 49.0555 56.7891 49.6657 56.4368C50.0722 56.2022 50.5231 56.0822 50.9803 56.0822C51.2094 56.0822 51.4402 56.1123 51.6674 56.1734C52.3479 56.3557 52.9168 56.7923 53.2692 57.4024C53.9961 58.6619 53.5629 60.2784 52.3033 61.0056Z" fill="url(#paint3_linear_288_2258)"/>
<path d="M36.735 18.2141C35.6782 16.3835 33.9717 15.074 31.9298 14.5271C29.8884 13.9798 27.7556 14.2607 25.925 15.3177C24.0943 16.3745 22.7852 18.0809 22.2379 20.1227C21.6908 22.1643 21.9717 24.2968 23.0285 26.1275C24.0853 27.9582 25.7918 29.2673 27.8335 29.8146C28.5152 29.9972 29.2071 30.0877 29.8945 30.0877C31.2656 30.0877 32.6191 29.7282 33.8383 29.024C37.6172 26.8423 38.9165 21.993 36.735 18.2141ZM31.2005 24.4552C30.5905 24.8073 29.8797 24.901 29.1989 24.7187C28.5184 24.5364 27.9496 24.0998 27.5972 23.4897C27.245 22.8795 27.1511 22.1685 27.3336 21.4881C27.5159 20.8076 27.9525 20.2386 28.5626 19.8863C28.9692 19.6517 29.4201 19.5318 29.8773 19.5318C30.1064 19.5318 30.3372 19.5618 30.5644 19.623C31.2449 19.8053 31.8138 20.2418 32.1661 20.852C32.8934 22.1115 32.4603 23.7279 31.2005 24.4552Z" fill="url(#paint4_linear_288_2258)"/>
<path d="M75.4678 51.8909C73.8511 49.0878 70.9012 47.4802 67.3751 47.4802C63.6399 47.4802 60.4159 44.9756 59.8757 41.6543C59.5316 39.5381 60.0925 37.4902 61.4552 35.888C62.7935 34.3144 64.7455 33.4119 66.8108 33.4119C70.6887 33.4119 73.8516 31.7804 75.4884 28.9355C77.0359 26.2457 77.0113 22.8786 75.4241 20.1485C68.2021 7.72062 54.7945 0 40.4339 0C30.6885 0 21.6508 3.27582 14.2977 9.47355C7.29784 15.3735 2.49423 23.5039 0.772114 32.3671C-1.58134 44.4793 1.50314 56.805 9.23467 66.1834C16.9409 75.531 28.3121 80.8922 40.433 80.8922C54.8274 80.8922 68.2512 73.1436 75.4661 60.6702C77.0307 57.9659 77.0313 54.6019 75.4678 51.8909ZM70.8996 58.0288C64.6245 68.8773 52.9504 75.6167 40.433 75.6167C29.8933 75.6167 20.0057 70.9551 13.3052 62.8276C6.57929 54.6694 3.89879 43.9336 5.95064 33.3734C9.11412 17.0923 23.6166 5.27553 40.4339 5.27553C52.922 5.27553 64.5815 11.9902 70.8631 22.7997C71.495 23.8864 71.5155 25.2622 70.9158 26.3047C70.2264 27.5029 68.8069 28.1363 66.811 28.1363C63.1959 28.1363 59.7792 29.7157 57.4368 32.47C55.0896 35.2295 54.0809 38.8856 54.6686 42.5009C55.6192 48.347 61.082 52.7556 67.3751 52.7556C68.9881 52.7556 70.2392 53.3846 70.8979 54.5266C71.5223 55.6096 71.5229 56.9511 70.8996 58.0288Z" fill="url(#paint5_linear_288_2258)"/>
<defs>
<linearGradient id="paint0_linear_288_2258" x1="19.3313" y1="32.5325" x2="19.3313" y2="48.3592" gradientUnits="userSpaceOnUse">
<stop stop-color="#0EE5F9"/>
<stop offset="1" stop-color="#1EFBB8"/>
</linearGradient>
<linearGradient id="paint1_linear_288_2258" x1="29.879" y1="50.8044" x2="29.879" y2="66.6329" gradientUnits="userSpaceOnUse">
<stop stop-color="#0EE5F9"/>
<stop offset="1" stop-color="#1EFBB8"/>
</linearGradient>
<linearGradient id="paint2_linear_288_2258" x1="50.9816" y1="14.2542" x2="50.9816" y2="30.0878" gradientUnits="userSpaceOnUse">
<stop stop-color="#0EE5F9"/>
<stop offset="1" stop-color="#1EFBB8"/>
</linearGradient>
<linearGradient id="paint3_linear_288_2258" x1="50.9817" y1="50.8042" x2="50.9817" y2="66.6328" gradientUnits="userSpaceOnUse">
<stop stop-color="#0EE5F9"/>
<stop offset="1" stop-color="#1EFBB8"/>
</linearGradient>
<linearGradient id="paint4_linear_288_2258" x1="29.8792" y1="14.2539" x2="29.8792" y2="30.0877" gradientUnits="userSpaceOnUse">
<stop stop-color="#0EE5F9"/>
<stop offset="1" stop-color="#1EFBB8"/>
</linearGradient>
<linearGradient id="paint5_linear_288_2258" x1="38.32" y1="0" x2="38.32" y2="80.8922" gradientUnits="userSpaceOnUse">
<stop stop-color="#0EE5F9"/>
<stop offset="1" stop-color="#1EFBB8"/>
</linearGradient>
</defs>
</svg>
