<svg width="24" height="24" viewBox="0 0 24 24" fill="none" xmlns="http://www.w3.org/2000/svg">
    <g clip-path="url(#clip0_2_320)">
        <path d="M12 0C13.632 0 15.192 0.312 16.68 0.935999C18.104 1.544 19.372 2.404 20.484 3.516C21.596 4.628 22.456 5.896 23.064 7.32C23.688 8.808 24 10.368 24 12C24 13.632 23.688 15.192 23.064 16.68C22.456 18.104 21.596 19.372 20.484 20.484C19.372 21.596 18.104 22.456 16.68 23.064C15.192 23.688 13.632 24 12 24C10.368 24 8.808 23.688 7.32 23.064C5.896 22.456 4.628 21.596 3.516 20.484C2.404 19.372 1.544 18.104 0.936 16.68C0.312 15.192 0 13.632 0 12C0 10.368 0.312 8.808 0.936 7.32C1.544 5.896 2.404 4.628 3.516 3.516C4.628 2.404 5.896 1.544 7.32 0.935999C8.808 0.312 10.368 0 12 0ZM16.152 12.624C16.264 12.56 16.352 12.472 16.416 12.36C16.48 12.248 16.512 12.128 16.512 12C16.512 11.728 16.392 11.512 16.152 11.352L10.152 7.608C9.912 7.464 9.66 7.464 9.396 7.608C9.132 7.752 9 7.968 9 8.256V15.744C9 16.032 9.128 16.256 9.384 16.416C9.512 16.464 9.632 16.488 9.744 16.488C9.904 16.488 10.04 16.456 10.152 16.392L16.152 12.624Z"
              fill="white"/>
    </g>
    <defs>
        <clipPath id="clip0_2_320">
            <rect width="24" height="24" fill="white" transform="matrix(1 0 0 -1 0 24)"/>
        </clipPath>
    </defs>
</svg>
