<svg width="76" height="76" viewBox="0 0 76 76" fill="none" xmlns="http://www.w3.org/2000/svg">
<path fill-rule="evenodd" clip-rule="evenodd" d="M9.41095 25.7429L21.7249 21.3968C19.1825 24.8198 16.9983 28.4959 15.2074 32.3676L9.41095 25.7429ZM0.854812 26.4566L12.2633 39.4947L10.6108 43.626C10.0976 44.909 10.3984 46.3744 11.3755 47.3517L12.4589 48.4351C6.57553 55.0691 3.32578 62.0076 0.177377 71.453C-0.236412 72.6942 0.0866605 74.0629 1.01189 74.988C1.93715 75.9131 3.30571 76.2365 4.54706 75.8226C13.9923 72.6742 20.9308 69.4245 27.5648 63.5411L28.6482 64.6244C29.6254 65.6017 31.0909 65.9022 32.374 65.3892L36.5053 63.7366L49.5434 75.1452C50.4056 75.8997 51.5857 76.1774 52.6939 75.8869C53.8025 75.5964 54.6945 74.7756 55.0758 73.695L65.3914 44.4675C72.1921 36.4205 76 26.1674 76 15.479V3.45454C76 1.54667 74.4534 0 72.5455 0H60.5209C49.8325 0 39.5795 3.80777 31.5324 10.6085L2.30489 20.9242C1.22452 21.3055 0.403442 22.1977 0.112984 23.3059C-0.177511 24.4142 0.100375 25.5944 0.854812 26.4566ZM9.27647 66.7234C11.4442 61.488 13.877 57.3208 17.3542 53.3305L22.6696 58.6456C18.6792 62.123 14.512 64.5557 9.27647 66.7234ZM31.9228 58.1281L30.0792 56.2845L19.7155 45.9208L17.8717 44.0772L20.3241 37.946C22.5743 32.3207 25.7342 27.1032 29.6773 22.5029L31.6693 20.179C38.8885 11.7565 49.4277 6.90908 60.5209 6.90908H69.0909V15.479C69.0909 26.5722 64.2435 37.1114 55.821 44.3307L53.4971 46.3226C48.8967 50.2656 43.6793 53.4255 38.0539 55.6758L31.9228 58.1281ZM50.2571 66.589L43.6323 60.7926C47.5042 59.0018 51.1802 56.8175 54.6033 54.275L50.2571 66.589ZM48.3637 24.1818C48.3637 22.2739 49.9103 20.7272 51.8182 20.7272C53.7262 20.7272 55.2728 22.2739 55.2728 24.1818C55.2728 26.0896 53.7262 27.6363 51.8182 27.6363C49.9103 27.6363 48.3637 26.0896 48.3637 24.1818ZM51.8182 13.8182C46.0944 13.8182 41.4546 18.4581 41.4546 24.1818C41.4546 29.9054 46.0944 34.5454 51.8182 34.5454C57.542 34.5454 62.1818 29.9054 62.1818 24.1818C62.1818 18.4581 57.542 13.8182 51.8182 13.8182Z" fill="url(#paint0_linear_288_2287)"/>
<defs>
<linearGradient id="paint0_linear_288_2287" x1="38" y1="0" x2="38" y2="76" gradientUnits="userSpaceOnUse">
<stop stop-color="#0EE5F9"/>
<stop offset="1" stop-color="#1EFBB8"/>
</linearGradient>
</defs>
</svg>
