<svg width="173" height="23" viewBox="0 0 173 23" fill="none" xmlns="http://www.w3.org/2000/svg">
    <mask id="mask0_19_49" style="mask-type:luminance" maskUnits="userSpaceOnUse" x="0" y="0" width="173" height="23">
        <path d="M173 0H0V23H173V0Z" fill="white"/>
    </mask>
    <g mask="url(#mask0_19_49)">
        <path d="M165.31 13.7131C165.112 13.0719 164.817 12.4638 164.434 11.9096C164.079 11.4008 163.652 10.9455 163.164 10.5577C162.267 9.8551 161.221 9.35875 160.104 9.10444C159.614 8.99441 159.114 8.93073 158.611 8.9148H149.344C149.1 8.93232 148.855 8.89945 148.624 8.81806C148.394 8.73666 148.184 8.60851 148.007 8.44221C147.673 8.0612 147.505 7.56619 147.54 7.06425C147.509 6.55539 147.681 6.05481 148.018 5.66787C148.191 5.49804 148.399 5.36655 148.628 5.28261C148.857 5.19867 149.102 5.16408 149.346 5.18116H163.613V0.0224609H149.347C148.572 0.0327318 147.803 0.15748 147.065 0.391887C146.19 0.659381 145.379 1.09813 144.68 1.6821C143.982 2.26606 143.41 2.98315 143.001 3.78992C142.534 4.82191 142.293 5.9386 142.293 7.0681C142.293 8.1976 142.534 9.31472 143.001 10.3467C143.426 11.1908 144.03 11.9358 144.771 12.5329C145.451 13.073 146.229 13.4814 147.064 13.7366C147.802 13.9702 148.571 14.0949 149.346 14.106H158.569C158.836 14.1024 159.101 14.1489 159.349 14.2434C159.557 14.3251 159.745 14.4501 159.899 14.6099C160.057 14.7788 160.178 14.9778 160.255 15.1946C160.345 15.4481 160.389 15.7151 160.386 15.9836C160.419 16.4855 160.249 16.9803 159.913 17.3594C159.735 17.5274 159.523 17.6566 159.291 17.7386C159.059 17.8207 158.812 17.8536 158.566 17.8354H142.477V22.9945H158.566C159.073 22.9906 159.577 22.9354 160.073 22.8297C160.615 22.7158 161.142 22.5436 161.646 22.316C162.176 22.0767 162.677 21.7786 163.139 21.4278C163.639 21.0469 164.074 20.5897 164.428 20.0734C164.806 19.5168 165.1 18.909 165.301 18.269C165.53 17.5284 165.641 16.7576 165.632 15.9836C165.641 15.2139 165.533 14.4475 165.311 13.7096"
              fill="white"/>
        <path d="M46.8188 2.77182C45.9245 1.90399 44.8645 1.21889 43.7 0.755604C42.456 0.263747 41.1259 0.0167344 39.7853 0.0287377H34.3566C33.0141 0.0178997 31.6824 0.264856 30.4359 0.755604C29.2666 1.219 28.2014 1.90397 27.3009 2.77182C26.4081 3.65291 25.7041 4.70148 25.2309 5.85523C24.7243 7.08762 24.4696 8.40597 24.4814 9.73527V13.2844C24.4689 14.6166 24.7236 15.9378 25.2309 17.173C25.7074 18.3236 26.4106 19.3702 27.3 20.2521C28.1958 21.1283 29.2629 21.8167 30.4367 22.2756C31.684 22.7631 33.0155 23.0074 34.3575 22.9952H39.787C41.1265 23.0052 42.4555 22.761 43.7008 22.2756C44.8713 21.8163 45.9346 21.1278 46.8267 20.2521C47.7173 19.3715 48.4187 18.3234 48.8889 17.1705C49.3912 15.9343 49.6425 14.6134 49.6292 13.2823V9.73441C49.6402 8.40602 49.3889 7.08836 48.8889 5.85437C48.4212 4.70015 47.7195 3.65155 46.8267 2.77268M34.363 5.18187H39.7933C40.4411 5.17462 41.0844 5.2864 41.6904 5.51148C42.2306 5.7113 42.721 6.02253 43.1289 6.42413C43.5368 6.82573 43.8528 7.30821 44.0555 7.83977C44.2862 8.44582 44.3998 9.08902 44.3905 9.73613V13.2853C44.3997 13.9327 44.2861 14.5757 44.0555 15.1821C43.8502 15.7134 43.5324 16.1959 43.1232 16.5973C42.7082 16.9959 42.2149 17.307 41.6735 17.5116C41.0635 17.7385 40.416 17.8508 39.764 17.843H34.363C33.7109 17.8514 33.063 17.7391 32.4533 17.5116C31.911 17.308 31.4173 16.9968 31.0026 16.5973C30.5942 16.195 30.276 15.7128 30.0686 15.1821C29.8378 14.5757 29.7239 13.9327 29.7327 13.2853V9.73613C29.7243 9.08901 29.8382 8.44592 30.0686 7.83977C30.275 7.3091 30.5934 6.82761 31.0026 6.4267C31.4183 6.02848 31.9118 5.71743 32.4533 5.51234C33.0633 5.28611 33.7111 5.17346 34.363 5.18187Z"
              fill="white"/>
        <path d="M75.2333 2.77182C74.3377 1.9055 73.2781 1.22061 72.1145 0.755596C70.8707 0.263852 69.5412 0.0168415 68.2009 0.0287299H62.7696C61.4271 0.0183852 60.0952 0.265324 58.8486 0.755596C57.679 1.21838 56.6139 1.90342 55.7139 2.77182C54.8205 3.6523 54.1167 4.70105 53.6447 5.85522C53.1381 7.08755 52.8839 8.40602 52.897 9.73526V13.2844C52.8839 14.6165 53.138 15.9376 53.6447 17.173C54.1203 18.324 54.8237 19.3708 55.7139 20.2521C56.6098 21.1285 57.6772 21.8169 58.8514 22.2756C60.0987 22.7631 61.4302 23.0073 62.7722 22.9952H68.2035C69.543 23.0052 70.8719 22.761 72.1173 22.2756C73.2897 21.8163 74.3546 21.1269 75.247 20.2491C76.1395 19.3714 76.8407 18.3237 77.3079 17.1704C77.8097 15.9342 78.0613 14.6134 78.0485 13.2823V9.73441C78.0594 8.40602 77.8078 7.08839 77.3079 5.85436C76.8345 4.70125 76.1305 3.65324 75.2379 2.77267M62.7713 5.18186H68.2009C68.8486 5.1749 69.4918 5.28667 70.0979 5.51148C70.6381 5.71119 71.1287 6.02251 71.5366 6.42413C71.9445 6.82574 72.2604 7.30814 72.463 7.83976C72.6942 8.44572 72.808 9.08895 72.7989 9.73612V13.2853C72.808 13.9327 72.6941 14.5758 72.463 15.182C72.2581 15.7136 71.9405 16.1962 71.531 16.5973C71.1158 16.9962 70.622 17.3073 70.0801 17.5116C69.47 17.739 68.8219 17.8514 68.1695 17.8429H62.7705C62.1181 17.8517 61.4699 17.7393 60.8599 17.5116C60.3174 17.308 59.8234 16.9968 59.4084 16.5973C59.0004 16.195 58.6827 15.7127 58.4762 15.182C58.2459 14.5755 58.1321 13.9326 58.1403 13.2853V9.73612C58.132 9.08902 58.2458 8.44595 58.4762 7.83976C58.6823 7.30938 59 6.82796 59.4084 6.42669C59.8244 6.02845 60.3182 5.71741 60.8599 5.51233C61.4703 5.28643 62.1183 5.17466 62.7705 5.18272"
              fill="white"/>
        <path d="M102.077 2.77165C101.178 1.90223 100.112 1.21705 98.9421 0.755433C97.6959 0.263733 96.364 0.016475 95.0213 0.0277101H84.198C83.8416 0.0271399 83.4885 0.0944857 83.1581 0.225907C82.8396 0.353852 82.5519 0.545491 82.3133 0.78925C82.0778 1.02855 81.8907 1.30997 81.7618 1.618C81.627 1.93722 81.5582 2.27959 81.5595 2.62525V20.4099C81.5567 20.7597 81.6255 21.1065 81.7618 21.4296C81.8908 21.7386 82.0794 22.0199 82.3176 22.2579C82.5599 22.4913 82.8452 22.6773 83.1581 22.8058C83.4883 22.938 83.8415 23.0056 84.198 23.0049H95.0268C96.3695 23.0146 97.7011 22.7668 98.9475 22.2755C100.117 21.8123 101.183 21.1269 102.084 20.2588C102.975 19.3792 103.678 18.3334 104.152 17.1827C104.658 15.9478 104.912 14.6269 104.9 13.2954V9.74238C104.911 8.41324 104.657 7.09469 104.152 5.8619C103.676 4.70753 102.97 3.6585 102.076 2.77679M95.0248 17.8445H86.8008V5.18255H95.0248C95.6767 5.17405 96.3245 5.28583 96.9345 5.51217C97.4774 5.71441 97.9715 6.02581 98.3852 6.42653C98.7925 6.83044 99.1094 7.31412 99.3148 7.84602C99.5437 8.45104 99.6572 9.09214 99.6498 9.73767V13.2919C99.6589 13.9388 99.5453 14.5816 99.3148 15.1875C99.1094 15.7187 98.7915 16.2008 98.3826 16.6022C97.9673 17.0015 97.4738 17.3131 96.9319 17.5183C96.3215 17.739 95.6751 17.8482 95.0248 17.8402"
              fill="white"/>
        <path d="M113.695 0.0234375H108.453V22.9971H113.695V0.0234375Z" fill="white"/>
        <path d="M123.23 0.7532C122.056 1.21196 120.989 1.90085 120.093 2.77798C119.198 3.65512 118.494 4.70203 118.022 5.85539C117.518 7.08788 117.264 8.40585 117.277 9.73458V13.2837C117.265 14.6123 117.519 15.9301 118.022 17.1629C118.493 18.3167 119.198 19.3641 120.093 20.2416C120.988 21.1191 122.055 21.8085 123.23 22.2672C124.476 22.7589 125.808 23.0054 127.151 22.9937H138.596V17.8363H127.151C126.499 17.8442 125.851 17.7319 125.24 17.5049C124.7 17.2998 124.207 16.9891 123.792 16.5914C123.383 16.1889 123.064 15.706 122.858 15.1745C122.626 14.569 122.512 13.9259 122.522 13.279V9.7303C122.512 9.08254 122.626 8.43873 122.858 7.83223C123.064 7.30169 123.383 6.82026 123.792 6.41916C124.207 6.02091 124.699 5.70984 125.24 5.5048C125.851 5.27884 126.499 5.16706 127.151 5.17518H138.596V0.0156323H127.151C125.808 0.0140647 124.477 0.264566 123.23 0.7532Z"
              fill="white"/>
        <path d="M4.88858 18.439C4.69198 18.2513 4.46043 18.1025 4.20676 18.0007C3.93455 17.8934 3.6437 17.8394 3.35046 17.8419H2.16174C1.86766 17.8395 1.57603 17.8935 1.30284 18.0007C1.04603 18.1009 0.812621 18.2517 0.617105 18.4437C0.421589 18.6358 0.267973 18.865 0.165679 19.1175C0.0545001 19.387 -0.00184501 19.6751 -9.82401e-05 19.966V20.8752C-0.00350842 21.1667 0.0528946 21.4557 0.165679 21.7253C0.270962 21.9772 0.424717 22.2071 0.61841 22.4017C0.813839 22.5921 1.04677 22.7413 1.30284 22.84C1.57555 22.9444 1.86566 22.9974 2.15826 22.9967H3.34698C3.63993 22.9979 3.93042 22.9449 4.20328 22.84C4.45875 22.7396 4.69164 22.5907 4.88858 22.4017C5.08208 22.207 5.23581 21.9771 5.34131 21.7253C5.45145 21.4551 5.50645 21.1664 5.50339 20.8752V19.966C5.50622 19.6765 5.45121 19.3895 5.34131 19.121C5.23873 18.8669 5.08466 18.6361 4.88858 18.4425"
              fill="white"/>
        <path d="M169.445 1.39002H170.73C170.819 1.38427 170.909 1.39702 170.994 1.42683C171.079 1.45664 171.156 1.50292 171.222 1.56339C171.288 1.62385 171.34 1.69711 171.376 1.77828C171.412 1.85945 171.431 1.94703 171.431 2.03555C171.442 2.16101 171.411 2.28667 171.342 2.39299C171.274 2.49931 171.171 2.5803 171.051 2.62372V2.62886C171.308 2.69286 171.381 2.94273 171.399 3.17593C171.39 3.36648 171.424 3.55683 171.499 3.73286H170.975C170.927 3.54972 170.899 3.36169 170.892 3.17251C170.857 2.92616 170.758 2.81635 170.494 2.81635H169.97V3.73286H169.447V1.38916L169.445 1.39002ZM169.969 2.45378H170.542C170.776 2.45378 170.906 2.35534 170.906 2.11688C170.906 1.87842 170.776 1.79326 170.542 1.79326H169.969V2.45378Z"
              fill="white"/>
        <path d="M170.378 5.18329C169.86 5.18364 169.352 5.03261 168.92 4.74922C168.489 4.46583 168.152 4.06287 167.953 3.59129C167.755 3.11971 167.702 2.60066 167.804 2.09989C167.905 1.59911 168.154 1.13913 168.521 0.777999C168.888 0.416867 169.355 0.170982 169.864 0.0712523C170.373 -0.0284776 170.901 0.0223563 171.38 0.217653C171.86 0.41295 172.269 0.743923 172.558 1.1684C172.846 1.59288 173 2.0919 173 2.60244C172.999 3.2863 172.722 3.94187 172.231 4.4256C171.74 4.90933 171.074 5.18167 170.378 5.18329ZM170.378 0.572097C169.97 0.57227 169.571 0.691344 169.232 0.914554C168.893 1.13776 168.628 1.45489 168.472 1.82592C168.316 2.19694 168.276 2.60503 168.355 2.99884C168.435 3.39264 168.632 3.75432 168.92 4.0382C169.209 4.32207 169.577 4.51556 169.977 4.59383C170.377 4.67211 170.792 4.63196 171.169 4.47825C171.546 4.32455 171.869 4.06429 172.095 3.73041C172.322 3.39653 172.443 3.00398 172.443 2.60244C172.442 2.06415 172.224 1.5481 171.837 1.16754C171.45 0.786993 170.926 0.573023 170.378 0.572097Z"
              fill="white"/>
        <path d="M5.35113 6.68991C5.35101 6.49608 5.38973 6.30393 5.46513 6.12485C5.54052 5.94578 5.6512 5.78324 5.79059 5.64627C5.92998 5.50929 6.09537 5.40089 6.27748 5.32693C6.45958 5.25297 6.65481 5.21486 6.85182 5.2152H21.269V0H6.97648C5.14054 0.000697421 3.38015 0.718483 2.08236 1.9961C0.784578 3.27372 0.0558026 5.00652 0.0562753 6.81277V9.07427C0.0558071 9.96878 0.234352 10.8546 0.581888 11.6812C0.929424 12.5078 1.43909 13.259 2.08171 13.8918C2.72433 14.5246 3.48745 15.0268 4.32731 15.3695C5.16717 15.7122 6.06726 15.8884 6.97648 15.8887H14.51V10.6753H6.85182C6.65466 10.6756 6.45926 10.6376 6.27704 10.5635C6.09482 10.4895 5.92935 10.3809 5.78993 10.2438C5.65052 10.1066 5.53998 9.9436 5.46469 9.76432C5.3894 9.58505 5.35077 9.39281 5.35113 9.19884V6.68991Z"
              fill="white"/>
    </g>
</svg>
