<svg width="243" height="48" viewBox="0 0 243 48" fill="none" xmlns="http://www.w3.org/2000/svg">
    <path fill-rule="evenodd" clip-rule="evenodd"
          d="M165.213 21.4027C165.625 21.2768 166.126 21.2116 166.537 21.2116H173.334C175.888 21.2116 179.901 20.3887 180.782 17.5538C180.881 17.2323 180.93 16.9018 180.93 16.5668C180.93 15.4135 180.276 14.4063 179.381 13.7206C178.019 12.6752 176.16 12.347 174.482 12.347C169.496 12.347 166.016 16.8074 165.213 21.4027ZM93.276 23.4013C92.7319 23.6059 92.1541 23.6913 91.5741 23.6868L85.5265 23.6396C82.6039 23.6171 78.6111 25.1436 77.8805 28.3113C77.813 28.5991 77.7793 28.8936 77.7793 29.1881C77.7793 29.55 77.8288 29.9075 77.9254 30.256C78.7752 33.3202 82.6556 34.7366 85.5265 34.7366C88.3952 34.7366 92.3025 33.2888 93.1343 30.2222C93.2265 29.885 93.2737 29.5366 93.2737 29.1881V23.4013H93.276ZM55.9922 12.347V34.7883C56.6284 34.5635 57.3231 34.5005 57.9931 34.5005H60.0412C66.1877 34.5005 71.635 29.7861 71.635 23.4957C71.635 17.1963 66.2349 12.3492 60.0412 12.3492H55.9922V12.347ZM233.104 37.4007C228.427 37.4007 225.489 36.2541 222.632 32.6166L222.569 32.5356L224.729 30.9979L224.788 31.0721C225.372 31.8162 225.993 32.5626 226.741 33.1494C228.529 34.55 230.864 34.7366 233.056 34.7366C236.496 34.7366 240.305 33.3854 240.305 29.3792C240.305 28.7385 240.158 28.1337 239.814 27.5896C238.594 25.6585 234.913 24.9368 232.834 24.4444C228.756 23.4822 223.313 22.1041 223.313 16.9468C223.313 11.8007 227.895 9.77732 232.456 9.77732C236.352 9.77732 239.189 11.4567 241.629 14.4648L241.694 14.5457L239.533 16.0835L239.475 16.0115C237.413 13.4419 235.538 12.2998 232.256 12.2998C229.271 12.2998 225.959 13.4666 225.959 16.9468C225.959 17.6235 226.114 18.2575 226.48 18.8285C227.735 20.7844 231.413 21.5218 233.529 22.0231C237.524 22.9719 243 24.413 243 29.4736C242.998 35.0041 238.059 37.4007 233.104 37.4007ZM212.713 10.4922C213.349 10.2674 214.044 10.2045 214.714 10.2045H220.559V12.7741H214.714C213.821 12.7741 212.713 13.1226 212.713 14.195V26.8635C212.762 31.1238 216.123 34.8333 220.46 34.8333H220.559V37.4029H220.46C214.664 37.4029 210.017 32.5716 210.017 26.8163V0H212.713V10.4922ZM206.117 37.4007H203.52V20.3617C203.52 16.0722 200.177 12.3942 195.822 12.3942C191.467 12.3942 188.124 16.0745 188.124 20.3617V37.4007H185.429V20.3617C185.429 14.6446 189.995 9.77508 195.773 9.77508C201.548 9.77508 206.117 14.6446 206.117 20.3617V37.4007ZM174.482 37.4007C173.212 37.4007 171.955 37.1849 170.759 36.7622C165.218 34.8108 162.291 29.2443 162.291 23.5879C162.291 16.7647 167.234 9.77508 174.482 9.77508C177.897 9.77508 181.982 11.0565 183.275 14.5682C183.511 15.2089 183.628 15.8811 183.628 16.5646C183.628 17.2952 183.495 18.0124 183.228 18.6936C181.737 22.4728 176.951 23.734 173.286 23.734H166.441C165.539 23.734 165.09 24.3275 165.09 25.2021C165.09 28.0168 166.735 30.881 168.853 32.6593C170.44 33.9947 172.389 34.831 174.485 34.831C177.715 34.831 179.95 33.7339 181.953 31.1665L182.012 31.0923L184.172 32.6301L184.107 32.711C181.537 35.9641 178.713 37.4007 174.482 37.4007ZM140.15 15.1235C141.958 11.8367 145.445 9.77508 149.195 9.77508C154.973 9.77508 159.638 14.6311 159.638 20.3617V37.4007H156.942V20.3617C156.942 16.0722 153.599 12.3942 149.244 12.3942C144.892 12.3942 141.547 16.0745 141.547 20.3617V37.4007H138.851V20.3617C138.851 16.0722 135.508 12.3942 131.153 12.3942C126.801 12.3942 123.456 16.0745 123.456 20.3617V37.4007H120.76V20.3617C120.76 14.6446 125.326 9.77508 131.104 9.77508C134.834 9.77732 138.354 11.8591 140.15 15.1235ZM108.944 33.7834L118.395 9.77732H121.205L109.159 40.2828C107.653 44.0958 104.022 47.0836 99.8227 47.0836H98.5255V44.6083H99.8227C103.276 44.6083 107.019 41.5104 107.019 37.92C107.019 36.5216 106.491 34.2735 105.976 32.974L96.8281 9.77732H99.6383L108.408 32.0972C108.606 32.6188 108.811 33.2146 108.944 33.7834ZM85.5288 37.4007C81.4865 37.4007 76.6822 35.2964 75.4165 31.1485C75.2321 30.5437 75.1377 29.9165 75.1377 29.2825C75.1377 28.7227 75.2141 28.1674 75.3603 27.6256C76.5226 23.3721 81.4348 21.1643 85.5288 21.1643H91.5764C92.6802 21.1643 93.1771 20.5731 93.1771 19.4602V17.8932C93.1771 17.4706 93.1141 17.0524 92.995 16.6478C92.1182 13.7206 88.6964 12.3447 85.8817 12.3447C82.9321 12.3447 80.7199 13.7206 78.9124 16.0093L78.8539 16.0835L76.6934 14.5457L76.7586 14.4648C79.1147 11.4972 82.1183 9.77732 85.9312 9.77732C89.888 9.77732 94.3236 11.9266 95.5714 15.9216C95.7715 16.5623 95.8749 17.2255 95.8749 17.8955V29.2848C95.8749 29.921 95.7782 30.5505 95.5939 31.1575C94.3259 35.2807 89.5552 37.4007 85.5288 37.4007ZM53.2966 9.77732H60.0412C67.5231 9.77732 74.3823 15.7462 74.3823 23.399C74.3823 31.0271 67.5006 37.0207 60.0412 37.0207H57.9931C56.815 37.0207 55.9922 37.277 55.9922 38.536V47.0813H53.2966V9.77732Z"
          fill="white"/>
    <path fill-rule="evenodd" clip-rule="evenodd"
          d="M0.00125177 14.134C0.0102445 8.67996 4.81235 5.4898 9.48407 5.4898C14.1558 5.4898 18.9354 9.17681 18.9242 14.6309C18.9129 21.9555 19.0073 26.2899 18.9961 33.6055C18.9849 40.0893 22.9462 43.4323 28.5868 43.0771C36.7072 42.5667 43.1573 35.3636 43.1708 26.4136L43.191 11.6521C43.1955 8.52034 40.3313 6.59365 37.683 6.59365C35.0346 6.59365 32.1637 8.52034 32.1569 11.6521L32.1255 33.6055C32.121 36.7417 31.5185 39.2529 29.8166 41.283C28.3148 43.0748 25.925 42.0542 26.0419 40.3231C26.0891 39.6239 26.4218 39.2282 26.8467 38.7021C27.8764 37.4274 28.1484 36.1437 28.1507 33.6055L28.1822 11.3396C28.1912 5.88548 32.9933 2.69531 37.665 2.69531C42.3367 2.69531 47.1365 6.20247 47.1276 11.6565L47.1455 26.4136C47.1253 37.596 38.8812 46.3167 28.8341 46.9484C21.0847 47.4363 15.0056 42.578 15.0213 33.6055C15.0348 26.3934 14.9943 21.6677 15.0078 14.4465C15.0146 11.3148 12.1482 9.38814 9.4998 9.38814C6.85145 9.38814 3.98053 11.3148 3.97378 14.4465C3.96704 19.2621 4.00975 21.589 4.00076 26.4136C3.99402 30.3816 5.35191 34.0686 7.69676 37.0789C9.81455 39.797 13.1104 41.4517 16.1701 42.7016C17.3639 43.1895 18.3306 44.5002 17.7034 45.7232C17.3392 46.4336 16.5411 46.9439 14.8954 46.3909C11.3366 45.1971 7.18643 42.8208 4.54257 39.4283C1.68289 35.7593 0.0169892 31.2517 0.0259819 26.4136C0.0349746 21.4856 -0.00774094 19.0553 0.00125177 14.134Z"
          fill="white"/>
</svg>
