<svg width="115" height="31" viewBox="0 0 115 31" fill="none" xmlns="http://www.w3.org/2000/svg">
    <path fill-rule="evenodd" clip-rule="evenodd"
          d="M57.2765 19.0567C59.1372 19.0567 60.6057 17.6591 60.6057 15.8226C60.6057 14.3492 59.5486 13.4905 58.1401 13.4905C56.2929 13.4905 54.8544 14.964 54.8544 16.8004C54.8544 18.2739 55.8843 19.0567 57.2765 19.0567ZM86.4116 8.93195C86.4416 8.67735 86.6241 8.52566 86.8966 8.52566H87.5777C88.8663 8.52566 90.2994 8.6015 90.3157 10.1969C90.3157 12.4531 88.9535 12.9055 86.9865 12.9055L85.7768 12.9515L86.4116 8.93195ZM46.5749 5.16699C49.3756 5.16699 51.8276 6.22064 51.8276 9.38158L51.8303 9.37887C51.8303 13.7126 49.1821 16.2696 44.853 16.2696C44.7215 16.2696 44.5536 16.2573 44.3658 16.2435C43.5142 16.1812 42.2536 16.0889 42.1286 16.9765L41.4475 20.9798C41.4011 21.4024 41.0224 21.8385 40.6138 21.8385H37.7368C37.4344 21.8385 37.2055 21.5378 37.2518 21.2371L39.7338 5.87394C39.7551 5.68067 39.8471 5.50192 39.9922 5.37161C40.1374 5.2413 40.3256 5.16848 40.5211 5.16699H46.5749ZM61.6955 10.7061H64.5725C64.8749 10.7061 65.1038 11.0067 65.0575 11.2939L63.5127 20.969C63.4364 21.3915 63.0877 21.8276 62.679 21.8276H60.0745C59.7421 21.8276 59.5895 21.573 59.5895 21.2263C59.6036 20.91 59.6548 20.5963 59.7421 20.2918C58.7885 21.3455 57.0939 22.0822 55.7317 22.0822C52.7811 22.0822 50.934 20.1699 50.934 17.2365C50.934 13.6693 53.7647 10.4352 57.4726 10.4352C58.9111 10.4352 60.1834 10.6628 61.0607 11.9412L61.065 11.8813C61.0947 11.4589 61.1476 10.7061 61.6955 10.7061ZM80.3443 11.5024L70.7025 25.4382V25.4436C70.6261 25.5556 70.5251 25.649 70.4071 25.7165C70.2891 25.7841 70.1572 25.8242 70.0214 25.8336H67.1144C66.8556 25.8336 66.6295 25.6224 66.6295 25.3515C66.6295 24.9237 69.0397 21.5618 69.6468 20.715L69.7326 20.5952C69.6414 20.3146 69.2159 19.0938 68.7031 17.6225C67.7607 14.9185 66.5232 11.368 66.5232 11.2505C66.5232 10.9959 66.7493 10.725 67.0082 10.725H69.8388C70.0221 10.732 70.1991 10.7928 70.3475 10.8999C70.4959 11.0069 70.609 11.1554 70.6725 11.3264L72.3372 16.9684L76.3475 11.0988C76.4239 10.9879 76.5252 10.8961 76.6434 10.8307C76.7616 10.7654 76.8935 10.7283 77.0286 10.7223H79.9356C80.1944 10.7223 80.4206 10.9932 80.4206 11.2478C80.4206 11.3507 80.4206 11.4266 80.3443 11.5024ZM89.5611 5.16699C92.3618 5.16699 94.8138 6.22064 94.8138 9.38158C94.8138 13.7153 92.1629 16.2723 87.8637 16.2723C87.7329 16.2723 87.5655 16.26 87.3781 16.2463C86.5274 16.1839 85.2643 16.0913 85.1393 16.9792L84.4582 21.3428C84.3819 21.6001 84.1558 21.8249 83.8534 21.8249H80.7502C80.4614 21.8249 80.2353 21.5243 80.2653 21.2236L82.7173 5.87394C82.749 5.67681 82.8504 5.49737 83.0031 5.36781C83.1559 5.23826 83.3501 5.16706 83.5509 5.16699H89.5611ZM104.679 10.7061H107.556C107.858 10.7061 108.085 11.0067 108.038 11.2939L106.493 20.969C106.417 21.3915 106.068 21.8276 105.66 21.8276H103.042C102.709 21.8276 102.557 21.573 102.557 21.2263C102.557 21.0226 102.642 20.6146 102.693 20.3702L102.709 20.2918C101.802 21.3455 100.107 22.0822 98.6988 22.0822C95.7483 22.0822 93.9011 20.1699 93.9011 17.2365C93.9011 13.6693 96.7318 10.4352 100.44 10.4352C101.908 10.4352 103.194 10.6628 104.028 11.9412C104.032 11.9063 104.036 11.8682 104.04 11.8278C104.083 11.3984 104.154 10.7061 104.679 10.7061ZM114.261 5.1697C114.52 5.1697 114.746 5.39452 114.746 5.69517V5.74122L112.294 20.969C112.264 21.3915 111.885 21.8276 111.506 21.8276H109.008C108.706 21.8276 108.48 21.573 108.48 21.3021L108.523 21.2263L110.975 5.57599C111.005 5.35118 111.234 5.1697 111.46 5.1697H114.261ZM101.124 13.4905C99.2764 13.4905 97.8379 14.9505 97.8379 16.8004C97.8379 18.2604 98.8977 19.0567 100.29 19.0567C102.107 19.0567 103.576 17.6726 103.576 15.8226C103.592 14.3492 102.532 13.4905 101.124 13.4905ZM43.8804 8.52566H44.5915C46.3024 8.52566 47.5883 8.75048 47.2396 10.7684C46.9372 12.6807 45.6513 12.9055 43.9866 12.9055L42.7443 12.9515L43.3954 8.93195C43.4254 8.67735 43.6543 8.52566 43.8804 8.52566Z"
          fill="white"/>
    <path d="M9.56973 17.205C9.74195 17.205 13.7375 17.3772 16.1142 16.7917H16.1314C18.8697 16.12 22.6758 14.1911 23.6575 7.88777C23.6575 7.88777 25.8447 0 14.9947 0H5.67751C4.83362 0 4.11029 0.619999 3.97251 1.44667L0.0114028 26.5222C-0.0747082 27.0389 0.338624 27.5211 0.855291 27.5211H6.76251L8.20917 18.3589C8.31251 17.7044 8.88084 17.205 9.56973 17.205Z"
          fill="white"/>
    <path d="M25.1731 9.11035C23.7781 15.5342 19.3864 18.927 12.3942 18.927H9.86252L8.08863 30.1559C8.01974 30.6037 8.36419 30.9998 8.81197 30.9998H12.0842C12.6697 30.9998 13.1864 30.5692 13.2725 29.9837C13.4103 29.2948 14.1681 24.2659 14.3231 23.4048C14.4092 22.8192 14.9258 22.3887 15.5114 22.3887H16.2692C21.1258 22.3887 24.932 20.4081 26.0514 14.7076C26.4992 12.3998 26.2581 10.5054 25.1731 9.11035Z"
          fill="white"/>
</svg>
