<svg width="93" height="38" viewBox="0 0 93 38" fill="none" xmlns="http://www.w3.org/2000/svg">
    <path fill-rule="evenodd" clip-rule="evenodd"
          d="M42.5899 17.0266C46.4308 17.0266 48.6109 14.981 48.6109 11.4269C48.6109 7.85209 46.4308 5.82708 42.6106 5.82708H37.5447V17.0266H42.5899ZM62.3138 27.193C59.9677 27.193 58.4728 26.0772 58.4728 24.3622C58.4728 22.5851 59.9054 21.5726 62.6667 21.3866L67.5458 21.0767V22.6677C67.5458 25.3127 65.3035 27.193 62.3138 27.193ZM16.9903 4.89723C15.8899 6.17836 14.1459 7.19086 12.4019 7.04622C12.1943 5.31049 13.0455 3.47145 14.0421 2.33496C15.1425 1.0125 17.0526 0.0619902 18.589 0C18.7759 1.79772 18.07 3.57477 16.9903 4.89723ZM24.9273 22.4131C24.9615 22.4288 24.981 22.4378 24.9837 22.4405C24.9814 22.4474 24.9773 22.4605 24.9714 22.4794C24.8719 22.7967 24.2596 24.7514 22.9075 26.7798C21.5995 28.6601 20.2915 30.4992 18.1738 30.5405C17.1867 30.5505 16.5222 30.2639 15.8316 29.9661C15.0987 29.6501 14.3366 29.3214 13.1286 29.3214C11.8806 29.3214 11.0811 29.6547 10.3096 29.9763C9.64374 30.254 8.99874 30.5229 8.10419 30.5612C6.06952 30.6438 4.51237 28.5775 3.22513 26.6971C0.588352 22.895 -1.42556 15.9935 1.29426 11.3235C2.60227 8.98858 5.03142 7.52148 7.62667 7.48015C8.75639 7.45673 9.83276 7.88472 10.7764 8.25992C11.4976 8.54668 12.1412 8.80261 12.6718 8.80261C13.1435 8.80261 13.7618 8.56166 14.4916 8.27721C15.6249 7.83548 17.0275 7.28885 18.5682 7.37684C19.5441 7.43883 22.3677 7.72811 24.1947 10.4144C24.1876 10.4194 24.1732 10.4287 24.1521 10.4422C23.7424 10.7044 20.8333 12.5664 20.8728 16.2414C20.9116 20.5693 24.4356 22.1873 24.9273 22.4131ZM43.7733 2.14899C49.2545 2.14899 53.0954 5.90973 53.0954 11.4062C53.0954 16.9027 49.1922 20.7047 43.628 20.7047H37.5447V30.3339H33.1432V2.14899H43.7733ZM63.4764 9.60848C68.5008 9.60848 71.7812 12.2327 71.7812 16.3034H71.7605V30.3545H67.6911V26.9657H67.6081C66.4454 29.1767 63.8917 30.5612 61.1303 30.5612C57.0402 30.5612 54.1958 28.1436 54.1958 24.4861C54.1958 20.87 56.9572 18.783 62.0646 18.4731L67.5458 18.1425V16.5927C67.5458 14.2784 66.0509 13.0386 63.3519 13.0386C61.1511 13.0386 59.5317 14.1751 59.1995 15.9108H55.2339C55.3585 12.2741 58.805 9.60848 63.4764 9.60848ZM88.5362 9.87711H93L85.2973 31.429C83.5325 36.3676 81.5186 38 77.2209 38C76.8887 38 75.7883 37.9793 75.5392 37.8967V34.5079C75.8091 34.5285 76.4734 34.5699 76.8264 34.5699C78.778 34.5699 79.8784 33.7433 80.5428 31.6357L80.9373 30.3959L73.4837 9.87711H78.1136L83.2834 26.5318H83.3664L88.5362 9.87711Z"
          fill="white"/>
</svg>
