<svg width="83" height="27" viewBox="0 0 83 27" fill="none" xmlns="http://www.w3.org/2000/svg">
    <path d="M31.5123 0.480714L20.6462 26.5924H13.5567L8.21008 5.75113C7.885 4.46923 7.60487 3.99897 6.61579 3.45904C5.00421 2.57773 2.34129 1.75216 0 1.23662L0.159083 0.480714H11.5716C12.3174 0.479961 13.0388 0.747768 13.6058 1.2358C14.1728 1.72382 14.5478 2.39992 14.6633 3.14205L17.4888 18.2531L24.4677 0.480714H31.5123ZM59.2931 18.0685C59.3208 11.1748 49.8311 10.7951 49.8968 7.71578C49.9176 6.77874 50.8029 5.78248 52.7396 5.52819C55.0093 5.31107 57.295 5.71545 59.3554 6.69862L60.5312 1.15998C58.5254 0.399897 56.4008 0.00705934 54.2578 0C47.6282 0 42.9629 3.55309 42.9214 8.6354C42.8799 12.394 46.2518 14.4875 48.7936 15.7416C51.4081 17.02 52.2865 17.8421 52.2727 18.9846C52.2554 20.7403 50.1908 21.5101 48.261 21.5415C44.8892 21.5937 42.9352 20.6253 41.372 19.8938L40.1582 25.6136C41.7248 26.3382 44.616 26.9721 47.6143 27C54.659 27 59.2689 23.4957 59.2931 18.0685ZM76.7957 26.5924H83L77.5877 0.480714H71.8607C71.2485 0.47357 70.6484 0.652592 70.1387 0.994392C69.6291 1.33619 69.2337 1.82488 69.0041 2.3966L58.9438 26.5924H65.985L67.3856 22.691H75.99L76.7957 26.5924ZM69.3154 17.3405L72.8429 7.53464L74.8764 17.3405H69.3154ZM41.0954 0.480714L35.5517 26.5924H28.8425L34.3931 0.480714H41.0954Z"
          fill="white"/>
</svg>
