<svg width="116" height="39" viewBox="0 0 116 39" fill="none" xmlns="http://www.w3.org/2000/svg">
    <path d="M38.3109 17.0885C38.0988 10.972 36.4942 6.04664 32.8679 3.35748C29.2416 0.668319 23.7925 -0.262821 16.9462 0.0619391C13.8316 0.211736 11.0286 0.617986 8.75051 1.52875C6.40408 2.47068 4.58734 3.80088 3.25834 5.64878C0.587154 9.36255 -0.237331 14.9734 0.0562721 21.4338C0.336693 27.5695 1.92215 32.4253 5.59278 35.0714C9.24424 37.7054 15.1738 38.5419 21.4281 38.2734C27.4955 38.017 32.4257 36.4135 35.0657 32.7369C37.6997 29.0663 38.5362 23.6556 38.3109 17.0897V17.0885ZM10.5481 23.5861H9.75594V21.888H10.5481C12.058 21.888 13.1629 20.7208 13.1629 19.2731C13.1632 18.9297 13.0958 18.5895 12.9645 18.2721C12.8332 17.9547 12.6406 17.6663 12.3978 17.4234C12.1549 17.1806 11.8665 16.988 11.5491 16.8567C11.2317 16.7254 10.8916 16.658 10.5481 16.6583H7.99553C7.95046 16.6583 7.90661 16.6729 7.87053 16.6999C7.83445 16.7269 7.80809 16.7648 7.7954 16.8081V26.0763H6.14763V16.8081C6.14763 15.7907 6.9781 14.9602 7.99553 14.9602H10.5481C12.9328 14.9602 14.9042 16.8956 14.9042 19.2731C14.9042 21.6579 13.0635 23.5861 10.5481 23.5861ZM24.4541 23.5861H22.7871V19.1485C22.75 17.8938 21.4198 16.6451 20.0033 16.6451C18.4118 16.6451 17.2446 18.0053 17.2446 19.2731C17.2446 21.0767 18.5113 21.9012 20.0033 21.9012H20.5965V23.5861H20.0033C17.5502 23.5861 15.5525 22.0126 15.5525 19.2731C15.5525 17.0454 17.5502 14.9602 20.0033 14.9602C22.2251 14.9602 24.3845 16.826 24.4541 19.1485V23.5861ZM26.5704 15.2466L28.743 19.7034L27.8011 21.6196L24.6865 15.2466H26.5704ZM28.5861 26.3819H26.695L32.1692 15.2466H34.0602L28.5861 26.3819Z"
          fill="white"/>
    <path d="M66.6783 33.555L68.4036 29.5504L65.0342 22.0885H67.0586L69.3431 27.3746L71.513 22.0885H73.5011L68.6021 33.555H66.6783ZM59.7102 30.0977C57.7304 30.0977 55.6696 28.5786 55.6696 26.0184C55.6696 23.4154 57.6605 21.931 59.7381 21.931C60.8203 21.931 61.7933 22.3581 62.3833 23.0282V22.0885H64.2764V29.9375H62.3833V28.9177C62.0584 29.2925 61.6496 29.5931 61.187 29.7973C60.7244 30.0015 60.2198 30.1042 59.7102 30.0977ZM47.9493 29.9375V20.1503H51.4669C53.5892 20.1503 55.1579 21.7014 55.1579 23.6343C55.1579 25.5778 53.5865 27.137 51.4529 27.137H49.8647V29.9402L47.9493 29.9375ZM60.015 28.4371C61.4214 28.4371 62.4756 27.3506 62.4756 25.997C62.4756 24.6701 61.4214 23.5782 60.015 23.5782C59.6844 23.5774 59.357 23.6398 59.052 23.7617C58.7471 23.8836 58.4708 24.0625 58.2394 24.2879C58.008 24.5133 57.8262 24.7806 57.7047 25.0742C57.5832 25.3677 57.5244 25.6815 57.5319 25.997C57.5319 27.3639 58.6113 28.4371 60.015 28.4371ZM49.8647 25.4417H51.3187C52.4596 25.4417 53.2369 24.6408 53.2369 23.6343C53.2417 23.3945 53.1951 23.1563 53.1001 22.9343C53.005 22.7123 52.8635 22.5111 52.6842 22.3431C52.5048 22.1752 52.2915 22.0439 52.0572 21.9575C51.8229 21.871 51.5725 21.8311 51.3215 21.8402H49.8647V25.4417ZM51.4222 14.5945C49.6214 14.5945 47.9353 13.9805 47.9353 11.9382V11.2307H50.5078L50.5134 12.1197C50.5134 12.6189 50.8769 12.9473 51.4753 12.9473C52.1128 12.9473 52.3282 12.635 52.4065 12.3279C52.4706 12.1072 52.4657 11.8733 52.3925 11.6552C51.8975 10.4698 48.489 9.93052 48.0723 8.05903C47.9818 7.65213 47.9752 7.23228 48.0527 6.82295C48.3044 5.32789 49.6969 4.79395 51.4026 4.79395C52.7588 4.79395 54.635 5.0983 54.635 7.09259V7.73867H52.2471V7.17001C52.2471 6.67077 51.9115 6.34239 51.3523 6.34239C50.7511 6.34239 50.5442 6.6681 50.4771 6.96177C50.4407 7.12028 50.4426 7.28463 50.4827 7.44232C50.7567 8.51289 54.3974 9.08421 54.8028 11.0011C54.842 11.1933 54.9258 11.7112 54.8084 12.5015C54.5819 14.0312 53.1586 14.5945 51.425 14.5945H51.4222ZM82.6112 14.5465C80.8272 14.5465 79.1606 13.9405 79.1606 11.9195V11.2173H81.708V12.093C81.708 12.5869 82.0687 12.9206 82.6615 12.9206C83.2962 12.9206 83.5088 12.6083 83.587 12.3066C83.6501 12.0875 83.6452 11.8557 83.5731 11.6392C83.0837 10.4645 79.7087 9.92785 79.2976 8.07238C79.208 7.66996 79.2004 7.25481 79.2753 6.84964C79.5269 5.37061 80.9111 4.83933 82.5972 4.83933C83.9394 4.83933 85.7933 5.14635 85.7933 7.12196V7.76269H83.4277V7.19671C83.4277 6.70281 83.1033 6.3771 82.5469 6.3771C81.9541 6.3771 81.7387 6.69747 81.6716 6.99114C81.6397 7.14681 81.6445 7.30732 81.6856 7.46101C81.9541 8.52357 85.5584 9.08955 85.961 10.9851C86.003 11.18 86.0841 11.6925 85.9694 12.4748C85.7429 13.9885 84.3308 14.5465 82.614 14.5465H82.6112ZM91.6262 14.5118C89.8645 14.5118 88.4441 13.9511 88.2763 12.2425C88.2611 12.0444 88.2536 11.8458 88.2539 11.6472V5.07694H90.6782V11.8527C90.6782 11.9702 90.6782 12.101 90.7006 12.1998C90.7481 12.4267 90.9579 12.8619 91.6262 12.8619C92.2917 12.8619 92.4958 12.4267 92.5433 12.1998C92.5587 12.0847 92.5661 11.9688 92.5657 11.8527V5.07694H94.99V11.6472C94.9904 11.8467 94.9829 12.0462 94.9676 12.2452C94.7999 13.9538 93.3906 14.5118 91.6262 14.5118ZM111.636 14.413C109.936 14.413 108.426 13.823 108.266 12.1544C108.245 11.9529 108.232 11.7508 108.227 11.5484V7.69862C108.227 7.53577 108.252 7.24476 108.272 7.09259C108.487 5.38129 109.936 4.83399 111.636 4.83399C113.336 4.83399 114.824 5.37595 115 7.09259C115.03 7.38626 115.022 7.69862 115.022 7.69862V8.00297H112.606V7.48771C112.606 7.48771 112.606 7.27413 112.578 7.14064C112.533 6.94041 112.349 6.47321 111.614 6.47321C110.917 6.47321 110.713 6.91639 110.663 7.14064C110.637 7.28356 110.624 7.4282 110.624 7.57314V11.7566C110.623 11.8726 110.631 11.9886 110.646 12.1037C110.691 12.3493 110.937 12.7711 111.63 12.7711C112.324 12.7711 112.561 12.3493 112.606 12.1037C112.622 11.9886 112.629 11.8726 112.629 11.7566V10.4298H111.644V9.09489H115.044V11.5511C115.044 11.7219 115.036 11.8501 115.008 12.1544C114.849 13.823 113.336 14.413 111.636 14.413ZM56.4246 14.2395L58.203 5.07694H62.47L64.24 14.2395H61.6619L60.3868 5.92591L60.3309 5.93125L59.0167 14.2395H56.4246ZM66.1554 14.2395L66.3624 5.07694H70.2771L71.4543 12.085H71.513L72.693 5.07694H76.6049L76.8146 14.2395H74.4183L74.3623 6.00868H74.3036L72.7014 14.2395H70.2687L68.6664 6.01135H68.6161L68.5574 14.2421L66.1554 14.2395ZM97.6632 14.1434V5.07694H101.223L103.432 12.2665H103.482L103.351 5.07694H105.73V14.1434H102.316L99.9421 6.70281H99.8918L100.023 14.1434H97.6632Z"
          fill="white"/>
</svg>
