<svg width="127" height="52" viewBox="0 0 127 52" fill="none" xmlns="http://www.w3.org/2000/svg">
    <mask id="mask0_19_75" style="mask-type:luminance" maskUnits="userSpaceOnUse" x="0" y="0" width="127" height="52">
        <path d="M126.408 0H0V51.7882H126.408V0Z" fill="white"/>
    </mask>
    <g mask="url(#mask0_19_75)">
        <path d="M59.4672 3.0459H55.5053V10.875H55.4961V14.2139H55.5053V29.5584C55.5053 31.0541 55.5578 32.2361 55.6625 33.1074C55.7674 33.9786 56.0233 34.8377 56.4272 35.6907C57.3244 37.4484 58.8475 38.5817 60.9964 39.0966C63.1454 39.6114 65.5471 39.5962 68.2078 39.057V35.639C66.0065 35.9862 64.2491 36.0319 62.9388 35.7699C61.6285 35.5079 60.6634 34.8225 60.0468 33.7076C59.7662 33.2201 59.5935 32.6779 59.5319 32.0777C59.4702 31.4776 59.4486 30.6124 59.4672 29.4822V14.2169H68.2078V10.8781C68.2078 10.8781 62.4279 10.9678 59.4672 10.9678C58.7778 10.9678 58.7561 10.9678 58.4392 10.9678C58.1614 10.9678 57.6866 11.005 57.6866 10.8935C57.6866 10.373 59.4672 10.7448 59.4672 10.0755C59.4672 9.40629 59.4672 3.0459 59.4672 3.0459Z"
              fill="white"/>
        <path d="M95.1753 18.3241C95.0523 17.3584 94.8243 16.484 94.4875 15.7011C93.7294 13.8916 92.4468 12.5055 90.6309 11.5398C88.8182 10.5741 86.5985 10.0928 83.9741 10.0928C80.8385 10.0928 78.2829 10.7843 76.3035 12.1673C74.3241 13.5504 72.9985 15.5123 72.3294 18.0529L76.1864 19.174C76.6982 17.3309 77.617 15.9692 78.9462 15.0888C80.2745 14.2115 81.924 13.7697 83.8976 13.7697C85.7623 13.7697 87.2548 14.0622 88.3741 14.6441C89.4935 15.2259 90.2918 16.1154 90.7761 17.3065C91.2044 18.3606 91.4261 19.6736 91.4513 21.2516C91.0869 21.3003 90.7169 21.3461 90.3407 21.3917C87.366 21.7756 85.0138 22.0924 83.2902 22.3453C81.5635 22.5981 79.9629 22.9058 78.4834 23.2714C76.2111 23.8623 74.4383 24.828 73.1618 26.1685C71.8854 27.5088 71.2472 29.2818 71.2472 31.4904C71.2472 33.0228 71.6171 34.421 72.3571 35.6914C73.0971 36.9617 74.2009 37.9701 75.6715 38.7195C77.1421 39.4658 78.9146 39.8405 80.9931 39.8405C82.8768 39.8405 84.5878 39.5633 86.1291 39.0058C87.6713 38.4483 89.0028 37.6197 90.1316 36.5139C90.7698 35.8894 91.3306 35.1827 91.8213 34.3967L92.4515 33.2647C93.3208 33.4628 91.8213 34.541 91.8213 36.9084C91.8213 39.2757 91.8213 39.0576 91.8213 39.0576H95.3607V21.5745C95.3607 20.3742 95.2984 19.2898 95.1753 18.3271V18.3241ZM91.3464 26.9483C91.2936 27.7313 91.1886 28.4623 91.0285 29.1417C90.7635 30.5674 90.2176 31.8347 89.3917 32.9375C88.565 34.0433 87.4709 34.9024 86.1173 35.5208C84.7605 36.1392 83.2129 36.4469 81.468 36.4469C80.0253 36.4469 78.8349 36.2123 77.9036 35.7431C76.9695 35.274 76.2881 34.6647 75.8565 33.9153C75.4249 33.169 75.209 32.3586 75.209 31.4874C75.209 30.0952 75.6653 29.0046 76.581 28.2125C77.4967 27.4205 78.6685 26.8264 80.0931 26.4243C81.4491 26.0588 82.9849 25.7541 84.7022 25.5104C86.4194 25.2668 88.5532 24.9986 91.1058 24.7001L91.4198 24.6605C91.4142 25.5135 91.389 26.2812 91.3432 26.9453L91.3464 26.9483Z"
              fill="white"/>
        <path d="M124.889 17.334C123.878 15.0827 122.424 13.3128 120.534 12.0242C118.64 10.7356 116.418 10.0928 113.864 10.0928C111.311 10.0928 109.027 10.7295 107.168 11.9967C104.433 13.9057 104.422 15.4302 103.933 15.4302C103.444 15.4302 104.439 14.2403 104.439 13.3108C104.433 12.8275 104.433 10.8757 104.433 10.8757H100.869V51.7883H104.856V37.7014C104.856 35.8052 103.913 35.2475 104.384 35.0988C104.856 34.9501 105.429 36.6933 107.14 37.897C108.981 39.1916 111.176 39.8405 113.728 39.8405C116.282 39.8405 118.591 39.1977 120.502 37.9091C122.414 36.6205 123.875 34.8475 124.886 32.5871C125.898 30.3267 126.406 27.7769 126.406 24.9407C126.406 22.1046 125.901 19.5883 124.886 17.334H124.889ZM121.18 30.7349C120.511 32.4409 119.513 33.7782 118.184 34.7531C116.855 35.7279 115.23 36.2153 113.313 36.2153C111.395 36.2153 109.743 35.7371 108.413 34.7805C107.085 33.8239 106.089 32.4957 105.429 30.802C104.769 29.1051 104.439 27.1524 104.439 24.9438C104.439 22.7351 104.766 20.7429 105.417 19.0735C106.067 17.404 107.053 16.0941 108.373 15.1467C109.693 14.1993 111.315 13.7241 113.232 13.7241C115.15 13.7241 116.858 14.2053 118.196 15.171C119.534 16.1367 120.534 17.468 121.193 19.1648C121.852 20.8617 122.183 22.787 122.183 24.9438C122.183 27.1006 121.847 29.032 121.18 30.738V30.7349Z"
              fill="white"/>
        <path d="M21.5819 3.04637C31.781 3.04637 40.0808 11.2471 40.0808 21.3245C40.0808 31.4019 31.781 39.6027 21.5819 39.6027C11.383 39.6027 3.08313 31.4019 3.08313 21.3245C3.08313 11.2471 11.383 3.04637 21.5819 3.04637ZM21.5819 0C9.66256 0 0 9.54731 0 21.3245C0 33.1018 9.66256 42.6491 21.5819 42.6491C33.5013 42.6491 43.1639 33.1018 43.1639 21.3245C43.1639 9.54731 33.5013 0 21.5819 0Z"
              fill="white"/>
        <path d="M21.5816 9.13911C28.383 9.13911 33.9141 14.6043 33.9141 21.3246C33.9141 28.0448 28.383 33.5101 21.5816 33.5101C14.7802 33.5101 9.24908 28.0448 9.24908 21.3246C9.24908 14.6043 14.7802 9.13911 21.5816 9.13911ZM21.5816 6.09277C13.0691 6.09277 6.16595 12.9136 6.16595 21.3246C6.16595 29.7356 13.0691 36.5564 21.5816 36.5564C30.0941 36.5564 36.9973 29.7356 36.9973 21.3246C36.9973 12.9136 30.0941 6.09277 21.5816 6.09277Z"
              fill="white"/>
    </g>
</svg>
