<svg width="137" height="46" viewBox="0 0 137 46" fill="none" xmlns="http://www.w3.org/2000/svg">
    <path d="M0 26.2695H57.8021V45.5459H0V26.2695Z" fill="white"/>
    <path d="M0 0H57.8021V19.2674H0V0Z" fill="white"/>
    <path d="M115.595 41.6077L115.342 41.6618C114.728 41.8073 114.099 41.8859 113.468 41.8961C111.963 41.8961 110.179 41.1301 110.179 37.4803C110.179 35.6059 110.503 33.1276 113.297 33.1276C113.998 33.1628 114.692 33.2901 115.36 33.5061L115.577 33.5782L115.595 41.6077ZM116.063 23.4308L115.595 23.5119V30.2798L115.198 30.1627H115.081C114.253 29.8965 113.391 29.7449 112.522 29.7121C106.889 29.7121 105.7 33.9747 105.7 37.5434C105.7 42.4368 108.403 45.2485 113.234 45.2485C114.944 45.2918 116.649 45.0512 118.28 44.5366C119.668 44.095 120.173 43.4552 120.173 42.1034V22.764C118.821 23.0253 117.469 23.2416 116.072 23.4669M132.294 41.7339L132.059 41.797L131.158 42.0223C130.484 42.2186 129.788 42.3306 129.086 42.3557C127.761 42.3557 126.968 41.6979 126.968 40.5534C126.968 39.8324 127.292 38.6248 129.455 38.6248H132.249L132.294 41.7339ZM130.329 29.5949C128.389 29.6511 126.468 30.0037 124.634 30.6403L123.192 31.0819L123.669 34.3262L125.075 33.8666C126.589 33.3816 128.164 33.1175 129.752 33.0825C130.383 33.0825 132.276 33.0825 132.276 35.1282V36.0294H129.644C124.868 36.0294 122.642 37.5524 122.642 40.8237C122.642 43.6264 124.679 45.2846 128.121 45.2846C129.407 45.2585 130.686 45.0862 131.933 44.7709H132.068L132.492 44.843C133.835 45.0863 135.196 45.3206 136.574 45.6V34.8218C136.574 31.3523 134.484 29.5949 130.365 29.5949M98.995 41.7339L98.7607 41.797L97.8595 42.0223C97.1882 42.2193 96.4949 42.3313 95.7958 42.3557C94.471 42.3557 93.678 41.6979 93.678 40.5534C93.678 39.8324 94.0024 38.6248 96.1652 38.6248H98.9589L98.995 41.7339ZM97.0304 29.5949C95.0777 29.6483 93.1447 30.0009 91.2988 30.6403L89.8569 31.0819L90.3436 34.3262L91.7404 33.8666C93.2565 33.3808 94.8349 33.1167 96.4266 33.0825C97.0394 33.0825 98.9319 33.0825 98.9319 35.1282V36.0294H96.3094C91.5332 36.0294 89.2982 37.5524 89.2982 40.8237C89.2982 43.6264 91.3439 45.2846 94.7774 45.2846C96.0664 45.2578 97.3482 45.0854 98.5984 44.7709H98.7336L99.1572 44.843C100.5 45.0863 101.861 45.3206 103.24 45.6V34.8218C103.24 31.3432 101.149 29.5949 97.0304 29.5949ZM80.9082 29.5949C79.3022 29.6151 77.7182 29.9712 76.2581 30.6403L76.0868 30.7214L75.9426 30.6403C74.6881 29.8763 73.2261 29.5234 71.7611 29.631C70.0939 29.6297 68.4357 29.8757 66.8407 30.3609C65.3807 30.8115 64.813 31.5055 64.813 32.8212V45.0593H69.391V33.7584L69.6073 33.6863C70.2524 33.4548 70.9316 33.333 71.6169 33.3258C72.9417 33.3258 73.5996 34.0198 73.5996 35.3986V45.0593H78.1055V35.2003C78.1116 34.8746 78.0566 34.5505 77.9433 34.2451L77.7991 33.9477L78.1055 33.8125C78.8058 33.5002 79.5646 33.3405 80.3314 33.3439C80.569 33.3164 80.8097 33.3365 81.0395 33.403C81.2693 33.4695 81.4835 33.5811 81.6697 33.7312C81.8559 33.8814 82.0104 34.0671 82.1241 34.2775C82.2378 34.488 82.3085 34.719 82.332 34.957C82.35 35.1097 82.35 35.2639 82.332 35.4166V45.0593H86.838V34.939C86.838 31.3342 84.9094 29.631 80.9262 29.631M128.986 12.5625C128.08 12.5646 127.175 12.4832 126.283 12.3192H126.031V5.65945C126.034 5.3544 125.992 5.05056 125.904 4.75826L125.76 4.47889L126.049 4.34372C126.123 4.32468 126.196 4.29748 126.265 4.26261H126.319L126.616 4.16348H126.751C127.521 3.97439 128.311 3.88355 129.104 3.89312C131.897 3.89312 132.222 6.37138 132.222 8.25486C132.222 11.8596 130.419 12.6617 128.932 12.6617M128.959 0H128.869C126.247 0 123.543 0.711937 122.561 2.1268C122.012 2.8655 121.723 3.76575 121.741 4.68617V11.4901C121.762 11.78 121.712 12.0706 121.597 12.3372L121.453 12.6436H113.162V7.91241C113.062 2.91984 110.098 0.180237 105.826 0.180237H101.653L101.167 3.46957H105.321C107.502 3.46957 108.647 5.33502 108.647 8.18277V12.941L108.349 12.7968C108.034 12.6891 107.7 12.6432 107.367 12.6617H100.157C100.022 13.5628 99.8511 14.7434 99.6618 15.933H121.714C122.453 15.7978 123.345 15.6626 124.093 15.5274C125.571 16.0937 127.143 16.375 128.725 16.3565C133.519 16.3565 136.61 13.1573 136.61 8.24585C136.61 3.33439 133.628 0.108142 128.959 0ZM90.2895 17.9246H90.4878C95.2731 17.9246 97.499 16.3475 97.499 12.4454C97.499 9.64269 95.4533 7.40775 92.0198 7.40775H87.604C87.3577 7.43794 87.1079 7.41918 86.869 7.35256C86.63 7.28593 86.4065 7.17274 86.2114 7.0195C86.0163 6.86626 85.8534 6.67598 85.732 6.45959C85.6106 6.2432 85.5332 6.00497 85.5042 5.75858C85.4952 5.63859 85.4952 5.51809 85.5042 5.3981C85.5042 4.49692 85.8286 3.46055 87.9825 3.46055H97.6252C97.8234 2.19889 97.9406 1.42387 98.1208 0.180237H88.0996C83.4315 0.180237 81.1064 2.1268 81.1064 5.40711C81.1064 8.68743 83.1611 10.3096 86.5856 10.3096H91.0195C91.2924 10.3048 91.5636 10.354 91.8175 10.4543C92.0714 10.5547 92.303 10.7042 92.4989 10.8943C92.6949 11.0843 92.8513 11.3113 92.9593 11.562C93.0673 11.8127 93.1247 12.0823 93.1282 12.3553V12.4454C93.1282 13.1753 92.8038 14.6713 90.65 14.6713H89.902H75.7804H73.167C70.9951 14.6713 69.4631 13.4277 69.4631 10.5799V8.57028C69.4631 5.57834 70.6437 3.7219 73.167 3.7219H77.3935C77.5738 2.45123 77.6909 1.65818 77.8712 0.432569H72.1486C67.868 0.432569 64.9392 3.30735 64.813 8.29992V10.5349C64.9211 15.5274 67.868 17.9066 72.1486 17.9066H76.3301H83.9812L90.2895 17.9246Z"
          fill="white"/>
</svg>
