<?xml version="1.0" encoding="UTF-8"?>
<svg version="1.1" xmlns="http://www.w3.org/2000/svg" width="350" height="100">
    <path d="M0 0 C1.43278782 0.94395433 2.80397107 1.98020648 4.16015625 3.03125 C5.11921875 2.0721875 5.11921875 2.0721875 6.09765625 1.09375 C10.10711504 -1.60649776 13.36650432 -2.1660873 18.16015625 -1.96875 C22.68634278 -0.70735375 24.61266897 0.33968712 27.53515625 4.03125 C29.88489298 8.36922551 30.28068852 11.35787655 30.2578125 16.23046875 C30.25458984 17.43896484 30.25136719 18.64746094 30.24804688 19.89257812 C30.23547852 21.7865332 30.23547852 21.7865332 30.22265625 23.71875 C30.21814453 24.99298828 30.21363281 26.26722656 30.20898438 27.58007812 C30.19718498 30.73051564 30.18072222 33.88085949 30.16015625 37.03125 C26.86015625 37.03125 23.56015625 37.03125 20.16015625 37.03125 C20.13042725 35.87338989 20.13042725 35.87338989 20.10009766 34.69213867 C20.00494482 31.20066042 19.89522578 27.70978848 19.78515625 24.21875 C19.75421875 23.00380859 19.72328125 21.78886719 19.69140625 20.53710938 C19.63339844 18.79204102 19.63339844 18.79204102 19.57421875 17.01171875 C19.54279785 15.93817139 19.51137695 14.86462402 19.47900391 13.75854492 C19.34423318 10.8151735 19.34423318 10.8151735 17.16015625 8.03125 C13.92281018 7.61797178 12.00409719 7.39101895 9.34765625 9.40625 C7.09056143 12.49490607 6.98319801 14.69154518 6.84375 18.4765625 C6.7809082 20.09111328 6.7809082 20.09111328 6.71679688 21.73828125 C6.67748047 22.86621094 6.63816406 23.99414062 6.59765625 25.15625 C6.53288086 26.85974609 6.53288086 26.85974609 6.46679688 28.59765625 C6.36049585 31.40872768 6.2584622 34.21988945 6.16015625 37.03125 C3.19015625 37.03125 0.22015625 37.03125 -2.83984375 37.03125 C-2.85442627 36.33040283 -2.86900879 35.62955566 -2.8840332 34.9074707 C-2.95869862 31.71901991 -3.0552985 28.53159487 -3.15234375 25.34375 C-3.17490234 24.24095703 -3.19746094 23.13816406 -3.22070312 22.00195312 C-3.25615234 20.93525391 -3.29160156 19.86855469 -3.328125 18.76953125 C-3.35430908 17.79024658 -3.38049316 16.81096191 -3.4074707 15.80200195 C-3.90321426 12.62515633 -5.03509881 10.66378249 -6.83984375 8.03125 C-11.85519427 8.36085216 -11.85519427 8.36085216 -15.83984375 11.03125 C-16.21191729 13.74740864 -16.21191729 13.74740864 -16.25390625 16.9140625 C-16.31191406 18.66396484 -16.31191406 18.66396484 -16.37109375 20.44921875 C-16.40203125 21.67253906 -16.43296875 22.89585938 -16.46484375 24.15625 C-16.52285156 26.00283203 -16.52285156 26.00283203 -16.58203125 27.88671875 C-16.67654365 30.93474376 -16.76209869 33.98275862 -16.83984375 37.03125 C-20.13984375 37.03125 -23.43984375 37.03125 -26.83984375 37.03125 C-26.83984375 24.49125 -26.83984375 11.95125 -26.83984375 -0.96875 C-24.19984375 -0.96875 -21.55984375 -0.96875 -18.83984375 -0.96875 C-18.17984375 -0.30875 -17.51984375 0.35125 -16.83984375 1.03125 C-15.35484375 0.2578125 -15.35484375 0.2578125 -13.83984375 -0.53125 C-9.0504063 -2.56313255 -4.63793635 -2.44205566 0 0 Z "
          fill="#FFFFFF" transform="translate(26.83984375,34.96875)"/>
    <path d="M0 0 C0.33 3.63 0.66 7.26 1 11 C2.485 10.2265625 2.485 10.2265625 4 9.4375 C8.23064639 7.64268032 11.61926355 7.69112143 16 9 C20.44615981 11.34891462 22.81653922 13.49451494 25 18 C25.34057617 21.22973633 25.34057617 21.22973633 25.29296875 24.83203125 C25.2784668 26.77045898 25.2784668 26.77045898 25.26367188 28.74804688 C25.23860985 30.1028707 25.21321506 31.45768841 25.1875 32.8125 C25.17244013 34.18683445 25.15875401 35.56118468 25.14648438 36.93554688 C25.11116628 40.29076632 25.06183851 43.64518166 25 47 C22.03 47 19.06 47 16 47 C15.98018066 46.3294458 15.96036133 45.6588916 15.93994141 44.96801758 C15.84440285 41.91579839 15.73484055 38.86423659 15.625 35.8125 C15.5940625 34.75740234 15.563125 33.70230469 15.53125 32.61523438 C15.49257813 31.59365234 15.45390625 30.57207031 15.4140625 29.51953125 C15.36693115 28.11344604 15.36693115 28.11344604 15.31884766 26.67895508 C14.97564839 23.79539803 14.2878786 21.59835657 13 19 C10.15916359 17.57958179 8.14522722 17.68547728 5 18 C2.25244931 20.10575071 1.13494144 21.32046483 0.45410156 24.74902344 C0.4331543 25.77543945 0.41220703 26.80185547 0.390625 27.859375 C0.35839844 28.97441406 0.32617188 30.08945312 0.29296875 31.23828125 C0.27169922 32.97658203 0.27169922 32.97658203 0.25 34.75 C0.22035156 35.92433594 0.19070313 37.09867188 0.16015625 38.30859375 C0.08949273 41.20579822 0.03677734 44.10219955 0 47 C-3.3 47 -6.6 47 -10 47 C-10 32.15 -10 17.3 -10 2 C-5 0 -5 0 0 0 Z "
          fill="#FFFFFF" transform="translate(325,25)"/>
    <path d="M0 0 C5.05892282 3.64242443 7.69144016 7.15737066 9.125 13.25 C9.59814975 19.11705686 9.15924007 24.0971151 6.125 29.25 C2.07260764 33.77266999 -2.37897997 36.85295938 -8.5234375 37.55078125 C-16.01199383 37.58296702 -20.74094391 36.88545626 -26.625 31.9375 C-31.23208331 26.43459493 -32.43871491 22.09172544 -32.2265625 15.00390625 C-31.53780794 9.60866216 -29.38669665 5.84807931 -25.6875 1.9375 C-17.52196099 -2.9618234 -8.7506006 -4.58097681 0 0 Z M-18.875 8.25 C-21.88182104 11.75795788 -22.34942556 14.85022858 -22.1640625 19.32421875 C-21.59964076 23.08448789 -19.66813158 25.33484818 -17.25 28.125 C-13.4381982 29.93059033 -9.8552541 29.47187948 -5.875 28.25 C-2.59349588 25.05053348 -0.97607444 22.56396769 -0.625 18 C-0.90125958 13.85610635 -1.54118361 11.6729307 -3.875 8.25 C-9.77038534 4.56538416 -12.95980686 4.67623748 -18.875 8.25 Z "
          fill="#FFFFFF" transform="translate(205.875,35.75)"/>
    <path d="M0 0 C5.16058537 3.70123951 7.46149133 8.04058361 8.5 14.25 C8.94138642 20.40839144 6.9793506 25.42275858 3.9375 30.6875 C-1.77267722 35.94687375 -8.12364448 37.57305926 -15.7890625 37.26171875 C-21.25419556 36.46371259 -25.03445026 34.35189447 -28.8125 30.375 C-32.9796391 23.96401677 -33.32882818 18.48767024 -32.4375 10.875 C-30.48153612 5.72645044 -27.12295975 1.7755227 -22.4375 -1.125 C-15.15199334 -4.1849128 -6.919835 -3.9117724 0 0 Z M-19.4375 7.875 C-22.89846919 11.65506564 -22.88680786 14.51908914 -22.7265625 19.46484375 C-22.34918669 22.61134209 -21.52480801 24.48950513 -19.4375 26.875 C-16.21894775 29.20567577 -13.33259474 29.34241137 -9.4375 28.875 C-5.7874462 27.0499731 -3.90004121 25.75986145 -2 22.125 C-1.30586844 18.1144621 -1.20042325 14.77902143 -2.4375 10.875 C-4.8740025 7.60312521 -6.51735475 6.18824094 -10.375 4.875 C-14.21673636 4.875 -16.22251891 5.8031233 -19.4375 7.875 Z "
          fill="#FFFFFF" transform="translate(248.4375,36.125)"/>
    <path d="M0 0 C5.09958237 4.61390786 5.79333215 9.33098595 6.13671875 15.96484375 C6.20932597 18.41368713 6.26754313 20.86299299 6.3125 23.3125 C6.34666016 24.56869141 6.38082031 25.82488281 6.41601562 27.11914062 C6.49813114 30.20433786 6.56740299 33.28926384 6.625 36.375 C5.16676788 36.4020043 3.70839325 36.42139787 2.25 36.4375 C1.03183594 36.45490234 1.03183594 36.45490234 -0.2109375 36.47265625 C-2.375 36.375 -2.375 36.375 -4.375 35.375 C-5.055625 35.684375 -5.73625 35.99375 -6.4375 36.3125 C-11.45288996 38.12657722 -16.36697945 38.29170503 -21.25 36.0625 C-21.95125 35.505625 -22.6525 34.94875 -23.375 34.375 C-23.9525 33.983125 -24.53 33.59125 -25.125 33.1875 C-27.19684354 30.18332686 -27.48296519 26.93110328 -27.375 23.375 C-25.74388165 18.66288033 -23.56848186 16.04357937 -19.375 13.375 C-14.19537407 11.42042418 -9.82181219 11.18388378 -4.375 11.375 C-4.86205712 9.31097032 -4.86205712 9.31097032 -6.375 7.375 C-11.2724099 6.12664061 -15.44035735 6.46863706 -20.375 7.375 C-19.72741592 3.87804596 -18.47258712 1.24947123 -16.375 -1.625 C-10.84976532 -3.60418854 -5.14930906 -2.47929695 0 0 Z M-17.375 23.375 C-17.045 25.025 -16.715 26.675 -16.375 28.375 C-12.3069024 29.33219944 -10.19600746 29.81170609 -6.4375 27.8125 C-4.07443601 25.48931712 -4.07443601 25.48931712 -4.0625 22.125 C-4.165625 21.2175 -4.26875 20.31 -4.375 19.375 C-10.26308394 18.97580787 -12.99840682 18.99840682 -17.375 23.375 Z "
          fill="#FFFFFF" transform="translate(305.375,35.625)"/>
    <path d="M0 0 C4.38670932 3.30703474 6.13966783 6.64798329 7 12 C7.07869838 13.98438396 7.10784044 15.97111348 7.09765625 17.95703125 C7.09443359 19.06884766 7.09121094 20.18066406 7.08789062 21.32617188 C7.07532227 23.0519043 7.07532227 23.0519043 7.0625 24.8125 C7.05798828 25.98232422 7.05347656 27.15214844 7.04882812 28.35742188 C7.0370693 31.23833358 7.02063426 34.11914044 7 37 C4.03 37 1.06 37 -2 37 C-2 36.34 -2 35.68 -2 35 C-2.78375 35.495 -3.5675 35.99 -4.375 36.5 C-9.06155729 38.43926509 -12.99206779 38.73980817 -18 38 C-21.24168949 36.37915526 -23.19736744 35.05801565 -25.375 32.1875 C-26.58534687 27.95128597 -26.59918794 24.35605691 -24.8125 20.3125 C-20.92490862 15.35246962 -17.16906877 13.25472585 -11 12 C-8.30692028 11.85825896 -5.70038816 11.90524954 -3 12 C-3.33 10.68 -3.66 9.36 -4 8 C-9.60563042 7.17377329 -14.42289352 6.93204344 -20 8 C-18.75768487 4.55974272 -17.50521315 1.69792186 -15 -1 C-10.01617675 -2.80828985 -4.88853171 -1.67425147 0 0 Z M-16 23 C-16.58350505 25.54290625 -16.58350505 25.54290625 -16 28 C-14.13287971 30.27208703 -14.13287971 30.27208703 -11.1875 30.375 C-7.21025128 29.90708839 -5.66215154 28.97534584 -3 26 C-2.58190799 22.83151973 -2.58190799 22.83151973 -3 20 C-10.05467721 19.54201199 -10.05467721 19.54201199 -16 23 Z "
          fill="#FFFFFF" transform="translate(143,35)"/>
    <path d="M0 0 C3.63 0 7.26 0 11 0 C13.31 6.27 15.62 12.54 18 19 C18.763125 17.164375 19.52625 15.32875 20.3125 13.4375 C22.18308341 8.94703699 24.0715516 4.4658805 26 0 C29.3 0 32.6 0 36 0 C33.44873867 9.07711924 30.15408529 17.81776642 26.8125 26.625 C26.24773854 28.12097738 25.68328305 29.61707032 25.11914062 31.11328125 C23.7496153 34.74352839 22.37596702 38.37218981 21 42 C17.7 42 14.4 42 11 42 C11.28746094 40.50726563 11.57492188 39.01453125 11.87109375 37.4765625 C12.60968872 29.35071517 9.2287348 22.63927967 6.0625 15.375 C5.47760294 13.98921395 4.89490258 12.6024986 4.31445312 11.21484375 C3.26233653 8.70107079 2.19580803 6.1957146 1.11743164 3.69287109 C0 1 0 1 0 0 Z "
          fill="#FFFFFF" transform="translate(56,34)"/>
    <path d="M0 0 C-1.46153735 4.1410225 -3.20219468 7.5972638 -6 11 C-9.75 12.375 -9.75 12.375 -13 13 C-12.67 13.33 -12.34 13.66 -12 14 C-11.92794489 15.68608966 -11.91613932 17.37500659 -11.9375 19.0625 C-11.94652344 19.98160156 -11.95554687 20.90070312 -11.96484375 21.84765625 C-11.97644531 22.55792969 -11.98804687 23.26820312 -12 24 C-12.80824219 24.36351563 -13.61648437 24.72703125 -14.44921875 25.1015625 C-20.65304495 28.02012971 -25.16995657 30.25493485 -29 36 C-29.66 36.99 -30.32 37.98 -31 39 C-32.9453125 39.29296875 -32.9453125 39.29296875 -35.125 39.1875 C-36.40375 39.125625 -37.6825 39.06375 -39 39 C-39.59828222 28.23092 -36.29508998 19.3308044 -29.40234375 11.08984375 C-21.48766619 2.59824208 -11.43463956 -0.48658041 0 0 Z "
          fill="#FFFFFF" transform="translate(124,34)"/>
    <path d="M0 0 C0 2.97 0 5.94 0 9 C3.3 9 6.6 9 10 9 C10 11.64 10 14.28 10 17 C6.7 17 3.4 17 0 17 C0.14075205 19.93782469 0.2873838 22.87515171 0.4375 25.8125 C0.47681641 26.64587891 0.51613281 27.47925781 0.55664062 28.33789062 C0.61948242 29.54155273 0.61948242 29.54155273 0.68359375 30.76953125 C0.72025146 31.50792236 0.75690918 32.24631348 0.79467773 33.00708008 C0.94842141 35.207495 0.94842141 35.207495 2 38 C4.64 38.33 7.28 38.66 10 39 C10 41.64 10 44.28 10 47 C6.27287842 48.86356079 2.0579268 48.56549975 -2 48 C-5.62531608 46.1258346 -7.69121639 43.92635083 -9 40 C-9.08209792 38.22686149 -9.10746294 36.45079225 -9.09765625 34.67578125 C-9.09282227 33.13374023 -9.09282227 33.13374023 -9.08789062 31.56054688 C-9.07951172 30.48869141 -9.07113281 29.41683594 -9.0625 28.3125 C-9.05798828 27.22904297 -9.05347656 26.14558594 -9.04882812 25.02929688 C-9.03703743 22.35280915 -9.02058063 19.67643223 -9 17 C-10.98 17 -12.96 17 -15 17 C-15 14.36 -15 11.72 -15 9 C-13.02 9 -11.04 9 -9 9 C-9 6.69 -9 4.38 -9 2 C-5.62902617 0.50178941 -3.79557881 0 0 0 Z "
          fill="#FFFFFF" transform="translate(165,25)"/>
    <path d="M0 0 C-1.12451727 2.9719385 -2.22293791 5.33440687 -4 8 C-6.26095228 8.64782504 -8.48223277 8.94391145 -10.80859375 9.27734375 C-13.72460604 10.23895208 -14.42129039 11.38880214 -16 14 C-16.50032958 16.69964156 -16.50032958 16.69964156 -16.51171875 19.640625 C-16.54716797 20.71054687 -16.58261719 21.78046875 -16.61914062 22.8828125 C-16.65297852 24.54957031 -16.65297852 24.54957031 -16.6875 26.25 C-16.72166016 27.37664063 -16.75582031 28.50328125 -16.79101562 29.6640625 C-16.87343014 32.44260901 -16.94260298 35.22084252 -17 38 C-20.3 38 -23.6 38 -27 38 C-27 25.46 -27 12.92 -27 0 C-24.03 0 -21.06 0 -18 0 C-17.67 0.66 -17.34 1.32 -17 2 C-15.7315625 1.2575 -15.7315625 1.2575 -14.4375 0.5 C-9.55025838 -1.63261453 -5.07019548 -1.62246255 0 0 Z "
          fill="#FFFFFF" transform="translate(286,34)"/>
</svg>
