<svg width="138" height="31" viewBox="0 0 138 31" fill="none" xmlns="http://www.w3.org/2000/svg">
    <path d="M68.7757 7.75C63.3922 7.75 59.5107 11.2375 59.5107 16.4688C59.5107 21.7 63.8799 25.1875 69.2633 25.1875C72.5158 25.1875 75.3831 23.9088 77.1581 21.7533L73.4277 19.6123C72.4427 20.6828 70.9456 21.3077 69.2633 21.3077C66.9276 21.3077 64.9429 20.0967 64.2066 18.1592H77.87C77.9773 17.6167 78.0407 17.0548 78.0407 16.4639C78.0407 11.2375 74.1591 7.75 68.7757 7.75ZM64.1627 14.7734C64.7722 12.8408 66.4399 11.625 68.7708 11.625C71.1066 11.625 72.7743 12.8408 73.3789 14.7734H64.1627ZM121.284 7.75C115.9 7.75 112.019 11.2375 112.019 16.4688C112.019 21.7 116.388 25.1875 121.772 25.1875C125.024 25.1875 127.891 23.9088 129.666 21.7533L125.936 19.6123C124.951 20.6828 123.454 21.3077 121.772 21.3077C119.436 21.3077 117.451 20.0967 116.715 18.1592H130.378C130.486 17.6167 130.549 17.0548 130.549 16.4639C130.549 11.2375 126.667 7.75 121.284 7.75ZM116.676 14.7734C117.285 12.8408 118.953 11.625 121.284 11.625C123.62 11.625 125.287 12.8408 125.892 14.7734H116.676ZM97.6435 16.4688C97.6435 19.375 99.5551 21.3125 102.52 21.3125C104.529 21.3125 106.036 20.4067 106.811 18.9294L110.556 21.0752C109.005 23.6423 106.099 25.1875 102.52 25.1875C97.1315 25.1875 93.2548 21.7 93.2548 16.4688C93.2548 11.2375 97.1364 7.75 102.52 7.75C106.099 7.75 109 9.29516 110.556 11.8623L106.811 14.0081C106.036 12.5308 104.529 11.625 102.52 11.625C99.5599 11.625 97.6435 13.5625 97.6435 16.4688ZM137.863 2.42188V24.7031H133.475V2.42188H137.863ZM18.018 0L36.036 31H0L18.018 0ZM63.0655 2.42188L49.5532 25.6719L36.0409 2.42188H41.1074L49.5532 16.9531L57.999 2.42188H63.0655ZM91.7919 8.23438V12.928C91.3043 12.7875 90.7874 12.6906 90.2315 12.6906C87.3984 12.6906 85.3552 14.6281 85.3552 17.5344V24.7031H80.9665V8.23438H85.3552V12.6906C85.3552 10.23 88.2371 8.23438 91.7919 8.23438Z"
          fill="white"/>
</svg>
