<svg width="69" height="27" viewBox="0 0 69 27" fill="none" xmlns="http://www.w3.org/2000/svg">
    <path d="M11.3945 0.000829088C9.28214 -6.45112e-06 7.21122 0.578215 5.41336 1.67082C3.6155 2.76343 2.16158 4.32733 1.21423 6.18761C0.415834 7.75154 0 9.47788 0 11.2285C0 12.9792 0.415834 14.7055 1.21423 16.2694C2.16158 18.1297 3.6155 19.6936 5.41336 20.7862C7.21122 21.8788 9.28214 22.4571 11.3945 22.4562C14.4707 22.4562 17.0581 21.4591 18.947 19.7453C21.0974 17.7907 22.3394 14.9012 22.3394 11.4849C22.335 10.7197 22.2677 9.95615 22.1382 9.20168H11.3973V13.5245H17.5497C17.4237 14.2148 17.1576 14.8729 16.7673 15.4594C16.3771 16.0459 15.8707 16.5488 15.2785 16.938C14.255 17.6207 12.9383 18.0116 11.3973 18.0116C8.42463 18.0116 5.90329 16.0372 5.00055 13.3772C4.52484 11.9831 4.52484 10.474 5.00055 9.07987C5.90329 6.41706 8.42463 4.44545 11.3973 4.44545C13.0218 4.41866 14.5917 5.02314 15.7673 6.12812L19.0217 2.92708C16.9609 1.01531 14.2247 -0.0337634 11.3945 0.000829088ZM30.0846 1.55885V21.105H32.6318V13.1874H36.8436C38.5762 13.1874 40.0348 12.6322 41.2193 11.5217C41.8091 11.001 42.2776 10.3608 42.5927 9.64499C42.9078 8.92915 43.0621 8.15463 43.0449 7.37454C43.0569 6.59851 42.9001 5.82894 42.5853 5.11754C42.2704 4.40613 41.8046 3.76936 41.2193 3.25002C40.6391 2.69756 39.9539 2.2635 39.203 1.97278C38.4521 1.68207 37.6502 1.54044 36.8436 1.55602L30.0846 1.55885ZM37.0621 3.96671C37.5065 3.97499 37.9448 4.07073 38.3511 4.24829C38.7574 4.42585 39.1236 4.68166 39.4282 5.00068C39.7521 5.31112 40.0096 5.6824 40.1854 6.09256C40.3612 6.50273 40.4518 6.94346 40.4518 7.38871C40.4518 7.83395 40.3612 8.27468 40.1854 8.68485C40.0096 9.09501 39.7521 9.46629 39.4282 9.77673C39.1026 10.1091 38.7102 10.3708 38.276 10.5449C37.8418 10.7191 37.3754 10.8019 36.9068 10.788H32.6318V3.96671H37.0621ZM48.9184 7.29522C46.4996 7.29522 44.6721 8.16866 43.4359 9.91554L45.6812 11.3064C46.5092 10.1242 47.6352 9.53312 49.0593 9.53312C49.9675 9.52072 50.8468 9.84763 51.5203 10.4481C51.8536 10.7173 52.1213 11.057 52.3034 11.4419C52.4855 11.8268 52.5775 12.2472 52.5725 12.6718V13.244C51.595 12.6964 50.3492 12.4235 48.835 12.4254C47.0602 12.4254 45.6429 12.8352 44.583 13.6548C43.5192 14.4706 42.9883 15.5707 42.9903 16.955C42.9795 17.577 43.1094 18.1935 43.3704 18.7599C43.6315 19.3263 44.0172 19.8284 44.4996 20.2297C45.5058 21.1041 46.7565 21.5412 48.2514 21.5412C50.0052 21.5412 51.4091 20.7764 52.4632 19.2467H52.5725V21.1022H55.0105V12.8616C55.0105 11.1336 54.4661 9.7739 53.3775 8.78243C52.285 7.79096 50.7986 7.29522 48.9184 7.29522ZM55.4244 7.73147L61.0191 20.258L57.8624 27H60.493L69 7.72864H66.2257L62.2927 17.3346H62.2352L58.193 7.73147H55.4244ZM49.2548 14.4395C50.675 14.4395 51.7828 14.7511 52.5782 15.3743C52.5782 16.4281 52.1566 17.3468 51.3133 18.1306C50.938 18.5033 50.4915 18.7988 49.9994 19.0001C49.5074 19.2015 48.9797 19.3045 48.4469 19.3034C47.7284 19.3171 47.0273 19.0848 46.4632 18.6461C46.201 18.4587 45.9879 18.2124 45.8414 17.9277C45.6949 17.643 45.6193 17.328 45.6208 17.0088C45.6208 16.2855 45.9687 15.6746 46.6645 15.176C47.3544 14.685 48.2198 14.4395 49.2548 14.4395Z"
          fill="white"/>
</svg>
