<svg width="113" height="37" viewBox="0 0 113 37" fill="none" xmlns="http://www.w3.org/2000/svg">
    <path d="M109.171 22.5726L112.302 24.6596C111.286 26.1562 108.856 28.724 104.654 28.724C99.4363 28.724 95.5507 24.6872 95.5507 19.5518C95.5507 14.0872 99.4775 10.3799 104.215 10.3799C108.979 10.3799 111.313 14.1694 112.068 16.2153L112.48 17.2589L100.205 22.3391C101.139 24.1791 102.595 25.1128 104.654 25.1128C106.714 25.1128 108.141 24.0967 109.171 22.5726ZM99.5463 19.2638L107.743 15.8584C107.29 14.7189 105.945 13.9089 104.338 13.9089C102.292 13.9089 99.4502 15.7213 99.5463 19.2638Z"
          fill="white"/>
    <path d="M89.6328 1.0293H93.587V27.8863H89.6328V1.0293Z" fill="white"/>
    <path d="M83.3992 11.0938H87.2163V27.4057C87.2163 34.1747 83.2207 36.9621 78.4973 36.9621C74.0488 36.9621 71.3714 33.9689 70.369 31.5386L73.8702 30.083C74.5017 31.5796 76.0258 33.3511 78.4973 33.3511C81.5317 33.3511 83.3992 31.4699 83.3992 27.955V26.6369H83.2619C82.3556 27.7352 80.6256 28.7238 78.4288 28.7238C73.8427 28.7238 69.641 24.7282 69.641 19.5794C69.641 14.4028 73.8427 10.3662 78.4288 10.3662C80.6119 10.3662 82.3556 11.3411 83.2619 12.4121H83.3992V11.0938ZM83.6736 19.5794C83.6736 16.3389 81.518 13.9772 78.7719 13.9772C75.9983 13.9772 73.6641 16.3389 73.6641 19.5794C73.6641 22.7784 75.9983 25.0989 78.7719 25.0989C81.5183 25.1128 83.6739 22.7784 83.6739 19.5794"
          fill="white"/>
    <path d="M47.9331 19.5108C47.9331 24.7971 43.8141 28.6828 38.7612 28.6828C33.7085 28.6828 29.5892 24.7835 29.5892 19.5108C29.5892 14.1971 33.7085 10.3252 38.7612 10.3252C43.8141 10.3252 47.9331 14.1971 47.9331 19.5108ZM43.9239 19.5108C43.9239 16.2157 41.5346 13.9498 38.7612 13.9498C35.9878 13.9498 33.5985 16.2157 33.5985 19.5108C33.5985 22.7786 35.9878 25.0718 38.7612 25.0718C41.5348 25.0718 43.9239 22.7786 43.9239 19.5108Z"
          fill="white"/>
    <path d="M67.9661 19.5518C67.9661 24.8382 63.8468 28.7238 58.7941 28.7238C53.7412 28.7238 49.6222 24.8379 49.6222 19.5518C49.6222 14.2382 53.7412 10.3799 58.7941 10.3799C63.8468 10.3799 67.9661 14.2245 67.9661 19.5518ZM63.9429 19.5518C63.9429 16.2567 61.5539 13.9909 58.7803 13.9909C56.0066 13.9909 53.6176 16.2567 53.6176 19.5518C53.6176 22.8196 56.0068 25.1128 58.7803 25.1128C61.5676 25.1128 63.9429 22.806 63.9429 19.5518Z"
          fill="white"/>
    <path d="M14.5132 24.7014C8.76 24.7014 4.25657 20.0604 4.25657 14.3073C4.25657 8.55435 8.76 3.91339 14.5132 3.91339C17.6163 3.91339 19.8817 5.13535 21.5568 6.7007L24.3168 3.94094C21.9827 1.70289 18.8658 0 14.5132 0C6.63193 0.000220411 0 6.42629 0 14.3073C0 22.1883 6.63193 28.6146 14.5132 28.6146C18.7697 28.6146 21.9827 27.2141 24.4953 24.6053C27.0766 22.0239 27.8729 18.399 27.8729 15.4607C27.8729 14.5407 27.7631 13.5934 27.6395 12.8931H14.5132V16.7102H23.8636C23.589 19.0995 22.8339 20.7334 21.7217 21.8453C20.3761 23.2048 18.248 24.7014 14.5132 24.7014Z"
          fill="white"/>
</svg>
