<svg width="97" height="66" viewBox="0 0 97 66" fill="none" xmlns="http://www.w3.org/2000/svg">
    <path d="M35.4663 31.6937C35.4663 35.6581 35.4028 39.1389 35.498 42.6276C35.5337 44.0311 35.2601 44.5782 33.6862 44.5544C26.8145 44.4619 19.9507 44.4619 13.0949 44.5544C11.6558 44.5544 11.3783 44.1143 11.3902 42.7743C11.4536 35.374 11.4536 27.983 11.3902 20.6012C11.3902 19.166 11.8461 18.8687 13.1781 18.8806C19.9772 18.944 26.7762 18.9678 33.5752 18.8806C35.2284 18.8568 35.5574 19.4316 35.5019 20.9183C35.3989 23.7172 35.4702 26.528 35.4702 29.7194C38.9708 27.5231 42.293 25.7549 45.2466 23.5071C49.8691 19.9827 54.8247 18.6744 60.6524 19.0075C68.2166 19.4396 75.8244 19.1105 84.0427 19.1105L66.6823 30.2863L84.9703 43.7654C84.5382 44.372 83.9673 44.1024 83.5035 44.1024C73.3386 44.1024 63.1738 44.1024 53.0089 44.1341C52.0288 44.1672 51.0703 43.8416 50.3131 43.2183C45.5043 39.4283 40.6518 35.7057 35.4663 31.6937Z"
          fill="white"/>
    <path d="M45.5835 60.662C46.3764 63.5243 48.0613 64.0952 49.8255 62.2795C50.7889 61.2883 51.8434 61.8394 52.7314 62.1129C53.4094 62.3231 52.7592 63.0208 52.4936 63.4014C50.8047 65.8673 46.0474 66.1765 43.8313 63.9802C41.7499 61.9227 41.6905 57.8631 43.7123 55.6549C45.6192 53.5775 49.1357 53.3832 51.4589 55.2188C52.9376 56.4081 53.3182 57.9939 53.4054 59.7858C53.449 60.7214 52.8623 60.658 52.2518 60.654C51.1298 60.654 50.0039 60.654 48.882 60.654L45.5835 60.662ZM48.0256 58.8264C48.7155 58.3864 50.0079 59.3973 50.1347 58.1723C50.2616 57.0147 49.2071 56.3566 48.0415 56.3367C46.876 56.3169 45.8293 56.975 45.9443 58.1445C46.0632 59.425 47.3517 58.3784 48.0256 58.8264Z"
          fill="white"/>
    <path d="M9.39607 59.6706C9.39607 58.2871 9.37229 56.8955 9.39607 55.5238C9.39607 55.06 9.14631 54.3345 9.95506 54.3028C10.6885 54.3028 11.8382 53.8389 12.0879 54.6239C12.4844 55.9005 12.8808 55.167 13.3645 54.8578C16.2903 52.9549 20.6075 54.3028 20.1437 58.7509C20.0089 60.5231 20.0089 62.303 20.1437 64.0752C20.1992 65.2645 19.553 65.3438 18.6769 65.2843C17.884 65.2328 16.9008 65.5539 16.9602 64.095C17.0356 62.2555 16.9602 60.408 16.9602 58.5685C16.9602 57.4981 16.6986 56.4951 15.5013 56.3365C14.2248 56.17 13.1544 56.6616 12.7738 58.0413C12.2584 59.9164 12.524 61.8392 12.5518 63.7342C12.5518 64.9751 12.1553 65.32 10.966 65.2962C9.84802 65.2962 9.24542 65.1099 9.35246 63.7937C9.45951 62.4775 9.39607 61.0503 9.39607 59.6706Z"
          fill="white"/>
    <path d="M85.0734 50.7666C85.0734 51.6427 85.1052 52.285 85.0734 52.9272C85.014 53.9937 85.0021 54.957 86.5522 54.6914C87.0834 54.6002 87.4164 54.8619 87.4045 55.4843C87.4045 56.0354 87.4045 56.6736 86.6592 56.5864C85.1765 56.4397 85.3113 57.3991 85.3232 58.3427C85.3351 59.2862 85.3232 60.3249 85.3232 61.3081C85.3232 62.2913 85.2479 63.2427 86.7028 63.0723C87.5552 62.9731 87.4362 63.6392 87.4442 64.1347C87.4521 64.6303 87.6186 65.1258 86.909 65.4271C84.3678 66.5134 82.0803 65.1338 81.9574 62.3547C81.8979 61.1019 81.9574 59.8492 81.9296 58.5964C81.9296 57.855 82.1318 57.1613 80.9227 56.8956C79.995 56.6935 80.3835 54.9927 80.6134 54.9729C82.3063 54.8302 81.6323 53.506 82.0208 52.6933C82.556 51.5833 83.8841 51.4247 85.0734 50.7666Z"
          fill="white"/>
    <path d="M84.8039 2.33665C85.2439 3.59735 85.9932 3.31191 86.6156 3.3238C88.3325 3.41947 90.0535 3.41153 91.7694 3.30001C93.708 3.09783 95.0004 4.19201 96.4039 5.14348C96.8558 5.45271 97.3276 5.95619 96.6893 6.40418C95.2819 7.39132 94.1917 8.8661 92.1222 8.81456C87.7059 8.69563 83.2815 8.77095 78.8572 8.78285C77.9969 8.78285 77.1247 8.87006 76.6371 7.82741C76.4349 8.08114 76.316 8.16439 76.3081 8.25558C75.9711 11.7364 75.9711 11.7364 72.4744 11.7364C67.6576 11.7364 62.8369 11.665 58.024 11.776C56.4145 11.8117 55.9942 11.2923 56.0933 9.77396C56.2162 7.87102 56.1607 5.94827 56.0933 4.0374C56.0656 3.10179 56.3629 2.77671 57.3184 2.7886C61.4097 2.83089 65.5063 2.83089 69.6081 2.7886C70.5556 2.7886 70.7975 3.0899 70.853 4.02551C70.9878 7.40322 71.0314 7.40322 67.5982 7.40322H63.4395C62.8646 7.40322 62.381 7.50233 62.4246 8.25161C62.4642 8.90178 62.928 8.92557 63.4038 8.92953C66.1075 8.92953 68.8153 8.92953 71.519 8.92953C72.2445 8.92953 72.6489 8.69563 72.5934 7.91463C72.5934 7.64901 72.5934 7.3834 72.5934 7.12174C72.6528 2.56659 73.0215 2.26529 77.6243 2.91943C78.9484 3.10972 79.5272 4.26337 80.3082 5.08798C80.6895 5.53088 81.1703 5.87711 81.7113 6.09832C82.2522 6.31952 82.8379 6.40939 83.4203 6.36057C85.5254 6.26146 87.6424 6.36057 89.7634 6.32489C90.3065 6.32489 91.0003 6.53897 91.0558 5.57957C91.1192 4.45763 90.3065 4.71929 89.7079 4.70739C88.3203 4.67964 86.9011 4.49728 85.5571 4.73514C81.5491 5.45271 79.1704 3.47841 77.3349 0.0927734C81.9495 0.0927734 86.4531 0.0927734 91.0003 0.0927734C92.2808 0.0927734 92.2729 1.40104 93.2125 2.32872L84.8039 2.33665Z"
          fill="white"/>
    <path d="M8.64282 0.315255L5.89942 6.7337H12.0166H29.6465C30.2491 6.7337 31.3076 7.18168 31.2323 5.91306C31.1133 4.35899 32.1599 4.65236 33.044 4.64443C33.9281 4.63651 35.0262 4.40657 34.8121 5.93684C34.7646 6.33329 34.8835 6.72973 35.4385 6.72973C35.9936 6.72973 36.0055 6.27779 35.9896 5.90116C35.9579 5.03691 36.3144 4.54853 37.1472 4.31538L40.7343 4.20023C40.7343 4.20023 41.3001 7.24218 41.2583 8.83882C41.2266 10.1629 40.8143 10.4722 39.5576 10.4642C27.7396 10.4246 15.9215 10.4444 4.10352 10.4365C2.94987 10.4365 -0.035363 7.79617 0.00031707 6.74956C0.00031707 6.41258 0.333331 6.06371 0.559304 5.75448C1.30066 4.74355 2.18473 3.81586 2.78733 2.73357C4.07181 0.410402 5.8677 -0.55296 8.64282 0.315255Z"
          fill="white"/>
    <path d="M47.5697 8.24378C46.8501 8.20213 46.1287 8.20213 45.4091 8.24378C44.2198 8.38253 43.859 7.92662 43.8233 6.7135C43.8233 5.40126 44.4656 5.39334 45.4091 5.41712C46.9156 5.4528 48.4261 5.47659 49.9326 5.41712C51.0069 5.36955 51.4113 5.69463 51.4153 6.84036C51.4192 7.98609 50.9871 8.33496 49.9167 8.24774C49.1476 8.19224 48.3587 8.24378 47.5697 8.24378Z"
          fill="white"/>
    <path d="M11.2673 3.883C10.0502 4.11691 9.93524 3.44295 9.88767 2.42409C9.81234 0.893809 10.8074 1.23475 11.6796 1.14753C12.7698 1.04842 12.9244 1.57966 12.9641 2.53113C13.0513 3.92265 12.2981 4.03762 11.2673 3.883Z"
          fill="white"/>
    <path d="M16.5638 2.41647C16.7382 3.44723 16.4567 4.00225 15.2555 3.93089C14.3199 3.87935 13.638 3.89521 13.6697 2.61866C13.7054 1.60376 13.8521 1.03288 15.0414 1.13595C15.9374 1.20731 16.8373 1.06856 16.5638 2.41647Z"
          fill="white"/>
    <path d="M79.7928 10.0082C80.5619 9.93288 80.9821 10.0875 80.9821 10.9161C81.0059 11.8715 80.4905 11.9191 79.7651 11.9349C79.0396 11.9508 78.77 11.6257 78.7739 10.9002C78.7739 10.0756 79.1704 9.88927 79.7928 10.0082Z"
          fill="white"/>
    <path d="M85.8743 10.9677C85.9972 11.7844 85.5452 11.9232 84.8475 11.9351C84.1497 11.9469 83.8088 11.7329 83.8167 10.9558C83.8247 10.1788 84.1497 9.97265 84.8713 9.97662C85.5928 9.98058 85.9932 10.1788 85.8743 10.9677Z"
          fill="white"/>
    <path d="M37.1472 0.831015C37.1472 0.612065 37.3247 0.43457 37.5437 0.43457H39.5259C39.7448 0.43457 39.9223 0.612065 39.9223 0.831015V2.4168C39.9223 2.63575 39.7448 2.81324 39.5259 2.81324H37.5437C37.3247 2.81324 37.1472 2.63575 37.1472 2.4168V0.831015Z"
          fill="white"/>
</svg>
