<svg width="142" height="20" viewBox="0 0 142 20" fill="none" xmlns="http://www.w3.org/2000/svg">
    <path d="M24.9683 0L20.4303 6.14433H45.1619C46.4044 6.14433 46.3926 6.60383 45.7832 7.42857C45.1619 8.26509 44.1265 9.72606 43.4993 10.5744C43.1798 11.0044 42.5882 11.7938 44.5111 11.7938H54.6286L57.6165 7.72901C59.4743 5.21944 57.7822 0 51.1377 0H24.9683ZM67.592 0L58.8649 11.7938H90.7557L99.471 0H86.4425L81.4548 6.7511H75.6268L80.6323 0H67.5979H67.592ZM103.713 0L94.9921 11.7938H108.802L117.511 0H103.719H103.713ZM27.7137 7.65832L18.602 19.9941H40.8132C48.1498 19.9941 52.2442 15.0221 53.5044 13.3019H38.3577C36.4289 13.3019 37.0206 12.5184 37.3401 12.0825C37.9732 11.2401 39.0145 9.79676 39.6357 8.96024C40.2511 8.13549 40.2688 7.66421 39.0145 7.66421H27.7137V7.65832ZM0 13.3078V14.7334H20.1048L21.1462 13.3078H0ZM57.7585 13.3078L52.8122 20H65.8466L70.7929 13.3078H57.7585ZM76.6031 13.3078L71.6567 20H84.6912L89.6375 13.3078H76.6031ZM93.8679 13.3078C93.8679 13.3078 92.9272 14.6038 92.4597 15.2283C90.8267 17.4315 92.2645 20 97.6072 20H118.54L123.475 13.3078H93.8679ZM125.865 13.3078L124.818 14.7334H142V13.3078H125.865ZM0 15.947V17.3608H18.1523L19.2055 15.947H0ZM123.913 15.947L122.877 17.3608H142V15.947H123.913ZM0 18.5803V19.9941H16.2117L17.253 18.5803H0ZM121.972 18.5803L120.925 19.9941H142V18.5803H121.972Z"
          fill="white"/>
</svg>
