<svg width="75" height="31" viewBox="0 0 75 31" fill="none" xmlns="http://www.w3.org/2000/svg">
    <path d="M19.3272 2.4316L14.2522 3.51232L14.2288 20.2399C14.2288 23.3293 16.5495 25.3263 19.632 25.3263C21.3432 25.3263 22.5973 25.0091 23.2888 24.6332V20.6628C22.6207 20.9329 19.339 21.8962 19.339 18.8185V11.3945H23.2888V6.95415H19.339L19.3272 2.4316ZM29.7703 8.49299L29.4538 6.95415H24.9531V24.9504H30.1453V12.8393C31.376 11.2183 33.4505 11.5354 34.1186 11.7469V6.95415C33.4154 6.70747 30.9892 6.24934 29.7703 8.49299ZM40.5884 0L35.361 1.11595V5.36832L40.5884 4.25237V0ZM5.25082 12.252C5.25082 11.4415 5.93061 11.1243 7.02063 11.1125C8.60291 11.1125 10.6188 11.5942 12.2011 12.4517V7.54149C10.5547 6.89615 8.80012 6.57316 7.03235 6.59C2.81294 6.59 0 8.79841 0 12.4869C0 18.2664 7.91139 17.3266 7.91139 19.817C7.91139 20.7802 7.07923 21.0974 5.91889 21.0974C4.19597 21.0974 1.96906 20.3808 0.222691 19.4293V24.1281C2.15659 24.9621 4.11392 25.3145 5.90717 25.3145C10.2321 25.3145 13.2091 23.4585 13.2091 19.6995C13.2091 13.4854 5.25082 14.6014 5.25082 12.252ZM75 16.1637C75 10.8189 72.4215 6.60174 67.4754 6.60174C62.5293 6.60174 59.5171 10.8189 59.5171 16.1285C59.5171 22.413 63.0684 25.3145 68.1317 25.3145C70.6165 25.3145 72.4801 24.7507 73.8983 23.9636V20.0402C72.4801 20.7567 70.8509 21.1914 68.7881 21.1914C66.7604 21.1914 64.9789 20.4748 64.7445 18.0315H74.9297C74.9531 17.7613 75 16.6688 75 16.1637ZM64.6976 14.1902C64.6976 11.8408 66.1392 10.8541 67.4402 10.8541C68.7178 10.8541 70.0774 11.8408 70.0774 14.1902H64.6976ZM51.4651 6.60174C49.4257 6.60174 48.113 7.56499 47.3863 8.23456L47.1167 6.9424H42.534V31L47.7379 29.8958L47.7496 23.9989C48.4998 24.551 49.6132 25.3145 51.4299 25.3145C55.1571 25.3145 58.556 22.5892 58.556 15.964C58.5677 9.90261 55.1219 6.60174 51.4651 6.60174ZM50.2227 20.9917C49.0038 20.9917 48.2771 20.5453 47.7731 20.0049L47.7379 12.252C48.2771 11.6529 49.0272 11.2183 50.2227 11.2183C52.1214 11.2183 53.4341 13.3562 53.4341 16.0815C53.4459 18.889 52.1566 20.9917 50.2227 20.9917ZM35.3727 24.9504H40.6001V6.95415H35.3727V24.9504Z"
          fill="white"/>
</svg>
