<svg width="264" height="60" viewBox="0 0 264 60" fill="none" xmlns="http://www.w3.org/2000/svg">
    <path d="M1.79531 34.2309C0.645757 35.3811 0 36.9408 0 38.567C0 40.1931 0.645757 41.7528 1.79531 42.903C2.36453 43.4728 3.04046 43.9248 3.78447 44.2331C4.52847 44.5415 5.32596 44.7002 6.13135 44.7002C6.93673 44.7002 7.73422 44.5415 8.47822 44.2331C9.22223 43.9248 9.89816 43.4728 10.4674 42.903C11.0373 42.3338 11.4894 41.658 11.7978 40.9139C12.1063 40.1699 12.265 39.3724 12.265 38.567C12.265 37.7615 12.1063 36.964 11.7978 36.22C11.4894 35.476 11.0373 34.8001 10.4674 34.2309C9.89816 33.6612 9.22223 33.2092 8.47822 32.9008C7.73422 32.5924 6.93673 32.4336 6.13135 32.4336C5.32596 32.4336 4.52847 32.5924 3.78447 32.9008C3.04046 33.2092 2.36453 33.6612 1.79531 34.2309Z"
          fill="white"/>
    <path d="M43.0352 10.4692C44.1847 9.31895 44.8305 7.75932 44.8305 6.13313C44.8305 4.50695 44.1847 2.94732 43.0352 1.7971C42.4656 1.22736 41.7894 0.775422 41.0452 0.467068C40.301 0.158713 39.5033 0 38.6977 0C37.8921 0 37.0944 0.158713 36.3502 0.467068C35.606 0.775422 34.9298 1.22736 34.3602 1.7971C33.2107 2.94732 32.5649 4.50695 32.5649 6.13313C32.5649 7.75932 33.2107 9.31895 34.3602 10.4692C34.9296 11.0391 35.6058 11.4913 36.3501 11.7998C37.0943 12.1083 37.8921 12.2671 38.6977 12.2671C39.5034 12.2671 40.3011 12.1083 41.0454 11.7998C41.7896 11.4913 42.4658 11.0391 43.0352 10.4692Z"
          fill="white"/>
    <path d="M58.0984 19.5452L50.2466 17.7922C49.8976 17.7133 49.5365 17.7044 49.184 17.7659C48.8316 17.8274 48.4948 17.958 48.1931 18.1504C47.8914 18.3413 47.6303 18.5897 47.4247 18.8816C47.2191 19.1735 47.0731 19.503 46.9949 19.8514L45.2438 27.7051C45.1657 28.0539 45.1571 28.4146 45.2185 28.7667C45.2798 29.1188 45.41 29.4554 45.6014 29.7572C45.7929 30.059 46.042 30.3202 46.3345 30.5257C46.6269 30.7312 46.957 30.877 47.3058 30.9549C47.6663 31.0364 48.0399 31.0425 48.4029 30.9729C48.9259 30.8755 49.4087 30.6264 49.7912 30.2568C50.1738 29.8871 50.4393 29.4132 50.5546 28.8939L50.9581 27.0842C51.98 30.6853 52.0236 34.4937 51.0845 38.1172C50.1454 41.7407 48.2575 45.0484 45.6152 47.6999C42.3612 50.9441 38.1354 53.0347 33.5823 53.6531C29.0292 54.2714 24.3988 53.3834 20.3975 51.1245C19.7694 50.7692 19.0261 50.6772 18.3303 50.8689C17.6346 51.0605 17.0432 51.5201 16.6856 52.147C16.5092 52.458 16.3957 52.8008 16.3517 53.1557C16.3077 53.5106 16.3341 53.8706 16.4293 54.2153C16.5245 54.56 16.6867 54.8825 16.9066 55.1645C17.1265 55.4465 17.3998 55.6825 17.7109 55.8589C21.6767 58.1125 26.161 59.2947 30.7223 59.2891C34.2017 59.2932 37.6478 58.6117 40.8637 57.2836C44.0797 55.9555 47.0024 54.0067 49.4651 51.5488C52.9113 48.0879 55.335 43.7425 56.4689 38.9918C57.6027 34.2411 57.4027 29.2697 55.8909 24.6254L56.9162 24.856C57.6208 25.0129 58.3589 24.8837 58.9683 24.4967C59.5776 24.1097 60.0084 23.4966 60.166 22.7921C60.2435 22.4431 60.2515 22.0823 60.1895 21.7303C60.1275 21.3782 59.9968 21.0419 59.8048 20.7404C59.6128 20.4389 59.3633 20.1782 59.0705 19.9731C58.7777 19.768 58.4474 19.6226 58.0984 19.5452Z"
          fill="white"/>
    <path d="M111.916 32.1411V44.8633C111.936 45.1853 111.884 45.5076 111.766 45.8076C111.648 46.1077 111.465 46.3782 111.231 46.6002C110.726 47.0257 110.078 47.2441 109.419 47.2116C108.775 47.2387 108.145 47.0202 107.657 46.6002C107.423 46.3786 107.24 46.1081 107.121 45.808C107.003 45.5079 106.952 45.1854 106.972 44.8633V32.1884C107.099 30.6666 106.721 29.1455 105.896 27.8604C105.476 27.3891 104.952 27.0221 104.366 26.7883C103.78 26.5546 103.147 26.4605 102.518 26.5138C101.717 26.4779 100.918 26.6244 100.181 26.9423C99.4445 27.2602 98.7896 27.7412 98.2659 28.3489C97.1545 29.7757 96.5985 31.5573 96.7011 33.363V44.8624C96.721 45.1844 96.67 45.5069 96.5516 45.8071C96.4332 46.1072 96.2504 46.3776 96.0159 46.5993C95.5118 47.0247 94.8651 47.2431 94.2063 47.2107C93.5628 47.2378 92.9331 47.0193 92.4449 46.5993C92.2104 46.3776 92.0276 46.1072 91.9092 45.8071C91.7908 45.5069 91.7398 45.1844 91.7598 44.8624V32.1875C91.8866 30.6657 91.5083 29.1446 90.6834 27.8595C90.2637 27.3882 89.74 27.021 89.1538 26.7873C88.5675 26.5535 87.9349 26.4596 87.3061 26.5129C86.5005 26.4776 85.6974 26.6243 84.9563 26.942C84.2152 27.2597 83.5552 27.7403 83.0253 28.348C81.8972 29.7673 81.3308 31.5521 81.434 33.3621V44.8615C81.4539 45.1835 81.4029 45.506 81.2845 45.8061C81.1662 46.1063 80.9833 46.3767 80.7489 46.5984C80.2606 47.0184 79.6309 47.2369 78.9874 47.2098C78.3372 47.2341 77.7011 47.0162 77.2024 46.5984C76.9614 46.3806 76.7725 46.1114 76.6497 45.8108C76.5268 45.5101 76.4732 45.1857 76.4927 44.8615V24.947C76.4789 24.6247 76.5376 24.3032 76.6645 24.0066C76.7914 23.7099 76.9833 23.4454 77.226 23.2328C77.7141 22.81 78.3418 22.5836 78.9874 22.5977C79.6085 22.5744 80.2143 22.7933 80.677 23.2082C80.9012 23.4262 81.0761 23.6895 81.1902 23.9806C81.3043 24.2717 81.3549 24.5837 81.3385 24.8959V26.7075C82.0032 25.3922 83.0413 24.3025 84.3228 23.5749C85.6723 22.8382 87.191 22.4671 88.7283 22.4985C90.3133 22.4368 91.8834 22.8265 93.2557 23.6222C94.5061 24.4517 95.444 25.6749 95.9205 27.0978C96.6365 25.6982 97.7409 24.5347 99.1013 23.7469C100.556 22.9009 102.214 22.4689 103.897 22.4976C109.243 22.5001 111.916 25.7146 111.916 32.1411Z"
          fill="white"/>
    <path d="M135.767 24.8966C137.316 26.4961 138.091 28.9263 138.092 32.1871V44.862C138.112 45.18 138.066 45.4987 137.956 45.7978C137.846 46.0969 137.675 46.3697 137.454 46.5989C137.215 46.8121 136.937 46.9759 136.634 47.0809C136.332 47.1858 136.012 47.2298 135.692 47.2103C135.379 47.2259 135.066 47.1778 134.772 47.0686C134.477 46.9595 134.208 46.7916 133.981 46.5753C133.764 46.348 133.595 46.079 133.486 45.7844C133.376 45.4898 133.328 45.176 133.343 44.862V43.0524C132.773 44.366 131.807 45.4693 130.58 46.2087C129.281 46.9617 127.8 47.3422 126.299 47.3086C124.809 47.3254 123.336 46.9988 121.992 46.3541C120.744 45.7687 119.684 44.8453 118.934 43.6884C118.201 42.5518 117.819 41.2248 117.834 39.8725C117.75 38.3895 118.23 36.9295 119.179 35.7865C120.403 34.6274 121.961 33.8829 123.632 33.6584C126.45 33.1736 129.309 32.9609 132.169 33.0234H133.298V31.6059C133.425 30.1916 133.024 28.7803 132.171 27.6445C131.687 27.1991 131.114 26.8602 130.49 26.6497C129.867 26.4393 129.206 26.362 128.55 26.4227C127.459 26.4158 126.372 26.5635 125.322 26.8612C124.184 27.2036 123.072 27.6289 121.996 28.134C121.434 28.506 120.801 28.7558 120.136 28.8673C119.909 28.8737 119.683 28.8287 119.476 28.7358C119.268 28.6429 119.084 28.5043 118.938 28.3306C118.619 27.9468 118.453 27.4583 118.473 26.9595C118.465 26.4931 118.611 26.0371 118.89 25.6629C119.259 25.2087 119.716 24.8345 120.234 24.563C121.503 23.8955 122.851 23.3934 124.247 23.0689C125.703 22.7023 127.198 22.512 128.7 22.502C131.863 22.5013 134.219 23.2996 135.767 24.8966ZM131.583 41.8032C132.752 40.514 133.367 38.8171 133.297 37.0783V35.8054H132.417C130.454 35.7695 128.491 35.8842 126.545 36.1484C125.478 36.2518 124.46 36.6504 123.606 37.2994C123.302 37.6013 123.065 37.965 122.914 38.3661C122.762 38.7672 122.698 39.1962 122.726 39.624C122.711 40.1693 122.817 40.7112 123.037 41.2103C123.257 41.7093 123.586 42.153 123.999 42.509C124.879 43.2723 126.016 43.6747 127.18 43.6355C128.002 43.663 128.821 43.5138 129.58 43.1978C130.34 42.8819 131.023 42.4057 131.583 41.8032Z"
          fill="white"/>
    <path d="M144.991 45.2558C144.495 44.9795 144.068 44.5944 143.742 44.1294C143.497 43.7321 143.37 43.2733 143.376 42.8065C143.36 42.327 143.517 41.8577 143.817 41.4835C143.95 41.3122 144.121 41.1743 144.316 41.0808C144.512 40.9873 144.727 40.9407 144.943 40.9448C145.663 41.0513 146.349 41.3195 146.949 41.7292C147.87 42.2248 148.826 42.6502 149.811 43.002C150.942 43.356 152.123 43.5212 153.307 43.4906C154.584 43.5607 155.855 43.2727 156.977 42.659C157.389 42.4237 157.73 42.0809 157.963 41.6672C158.196 41.2535 158.312 40.7844 158.3 40.3098C158.328 39.7417 158.146 39.1832 157.786 38.7421C157.285 38.2537 156.672 37.8935 156.001 37.6921C154.768 37.2769 153.51 36.9414 152.234 36.6876C150.002 36.3409 147.882 35.4776 146.043 34.1665C145.42 33.6362 144.926 32.9702 144.599 32.2195C144.272 31.4689 144.122 30.6534 144.159 29.8356C144.146 28.4731 144.575 27.1431 145.381 26.0444C146.247 24.8801 147.415 23.9749 148.758 23.4268C150.308 22.7846 151.974 22.4681 153.652 22.4969C154.942 22.494 156.226 22.6676 157.468 23.0129C158.637 23.3216 159.746 23.8258 160.747 24.5041C161.208 24.7468 161.599 25.1039 161.882 25.5411C162.165 25.9783 162.33 26.4809 162.363 27.0007C162.378 27.4841 162.212 27.9558 161.898 28.3237C161.766 28.4896 161.599 28.624 161.409 28.7169C161.219 28.8098 161.01 28.8588 160.798 28.8604C160.494 28.8583 160.193 28.7919 159.916 28.6657C159.513 28.4763 159.121 28.2634 158.742 28.0279C157.954 27.5517 157.127 27.143 156.271 26.8061C155.352 26.4867 154.382 26.3371 153.409 26.3647C152.244 26.3072 151.089 26.6148 150.107 27.2445C149.712 27.5053 149.39 27.8624 149.171 28.2823C148.952 28.7021 148.844 29.1706 148.857 29.6438C148.844 30.0685 148.943 30.4892 149.145 30.863C149.347 31.2368 149.645 31.5504 150.007 31.772C151.363 32.4859 152.826 32.9734 154.338 33.2149C156.104 33.5418 157.827 34.0677 159.474 34.7826C160.554 35.2358 161.48 35.9904 162.142 36.9561C162.716 37.9611 162.996 39.1071 162.95 40.2635C162.969 41.2711 162.734 42.2672 162.268 43.1607C161.802 44.0542 161.119 44.8165 160.282 45.3777C158.175 46.7609 155.681 47.4374 153.164 47.3092C150.298 47.4296 147.46 46.7163 144.991 45.2558Z"
          fill="white"/>
    <path d="M189.862 32.1406V44.8629C189.877 45.181 189.823 45.4987 189.705 45.7944C189.587 46.0901 189.407 46.357 189.177 46.5771C188.678 47.0155 188.028 47.2431 187.364 47.2121C187.04 47.2289 186.715 47.1815 186.409 47.0725C186.103 46.9635 185.822 46.7952 185.581 46.5771C185.357 46.3533 185.183 46.0851 185.069 45.7899C184.955 45.4947 184.904 45.179 184.919 44.8629V32.1887C185.046 30.657 184.621 29.1305 183.721 27.8844C183.235 27.397 182.648 27.0218 182.001 26.7851C181.354 26.5484 180.663 26.4559 179.977 26.5141C179.093 26.4753 178.21 26.6206 177.384 26.9407C176.559 27.2608 175.809 27.7488 175.181 28.3739C174.563 29.0434 174.084 29.8297 173.773 30.6866C173.461 31.5435 173.324 32.4538 173.369 33.3643V44.8638C173.384 45.1799 173.334 45.4957 173.22 45.7909C173.106 46.0861 172.931 46.3542 172.708 46.578C172.22 47.018 171.578 47.2464 170.922 47.213C170.259 47.2441 169.609 47.0164 169.11 46.578C168.88 46.3579 168.699 46.091 168.581 45.7953C168.463 45.4996 168.41 45.1819 168.425 44.8638V14.5734C168.411 14.2533 168.467 13.9341 168.59 13.6383C168.713 13.3426 168.9 13.0776 169.137 12.8621C169.646 12.426 170.301 12.199 170.971 12.2271C171.607 12.1985 172.23 12.4176 172.708 12.8385C172.93 13.0481 173.104 13.3029 173.218 13.5856C173.332 13.8684 173.384 14.1725 173.37 14.4771V26.7107C174.147 25.3782 175.284 24.2924 176.651 23.5781C178.104 22.8407 179.716 22.4711 181.346 22.5018C187.024 22.5012 189.863 25.7141 189.862 32.1406Z"
          fill="white"/>
    <path d="M217.556 44.9123C217.563 45.5128 217.335 46.0923 216.921 46.5273C216.732 46.743 216.498 46.9156 216.236 47.0334C215.975 47.1513 215.691 47.2117 215.403 47.2105C214.781 47.2089 214.184 46.9636 213.74 46.5273L201.556 35.7574V44.8093C201.579 45.1389 201.529 45.4695 201.411 45.778C201.292 46.0866 201.108 46.3655 200.871 46.5953C200.383 47.0148 199.755 47.2333 199.112 47.2067C198.461 47.2314 197.824 47.0136 197.324 46.5953C197.08 46.3695 196.89 46.0918 196.767 45.7828C196.644 45.4737 196.592 45.1411 196.614 44.8093V14.6182C196.592 14.2864 196.644 13.9538 196.767 13.6447C196.89 13.3357 197.08 13.058 197.324 12.8322C197.825 12.4153 198.461 12.1975 199.112 12.2207C199.754 12.1957 200.382 12.4141 200.871 12.8322C201.108 13.062 201.292 13.3408 201.411 13.6493C201.529 13.9578 201.579 14.2886 201.556 14.6182V33.8012L212.712 23.3809C213.141 22.9445 213.717 22.6822 214.328 22.6447C214.63 22.6427 214.928 22.7025 215.206 22.8203C215.483 22.9381 215.733 23.1116 215.941 23.33C216.16 23.5383 216.333 23.789 216.451 24.0669C216.569 24.3449 216.628 24.644 216.626 24.9458C216.617 25.2737 216.538 25.5958 216.394 25.8908C216.251 26.1858 216.047 26.447 215.795 26.6572L207.085 34.6337L216.676 43.0988C216.952 43.3132 217.175 43.5884 217.328 43.9029C217.481 44.2173 217.559 44.5628 217.556 44.9123Z"
          fill="white"/>
    <path d="M225.705 45.7919C223.934 44.7896 222.502 43.2817 221.592 41.4611C220.594 39.4309 220.099 37.1908 220.149 34.9294C220.096 32.6516 220.591 30.3945 221.592 28.3477C222.503 26.5277 223.935 25.02 225.705 24.0168C227.599 22.9749 229.733 22.4513 231.894 22.4991C234.055 22.4521 236.19 22.9756 238.085 24.0168C239.854 25.0202 241.285 26.5279 242.195 28.3477C243.196 30.3945 243.691 32.6516 243.638 34.9294C243.687 37.1908 243.193 39.4309 242.195 41.4611C241.286 43.2815 239.855 44.7894 238.085 45.7919C236.19 46.833 234.055 47.3564 231.894 47.3095C229.733 47.3572 227.599 46.8337 225.705 45.7919ZM236.91 41.2409C238.066 39.8051 238.645 37.7016 238.648 34.9303C238.648 32.1886 238.061 30.0923 236.886 28.6415C236.281 27.9148 235.515 27.3399 234.648 26.9625C233.781 26.5851 232.838 26.4157 231.894 26.4681C230.95 26.4157 230.008 26.5851 229.141 26.9625C228.275 27.3399 227.509 27.9149 226.904 28.6415C225.73 30.0948 225.143 32.1911 225.143 34.9303C225.143 37.7023 225.722 39.8058 226.881 41.2409C227.49 41.9673 228.261 42.5408 229.131 42.915C230.002 43.2892 230.949 43.4537 231.895 43.3955C232.841 43.4537 233.787 43.2894 234.658 42.9159C235.529 42.5424 236.3 41.97 236.91 41.2447V41.2409Z"
          fill="white"/>
    <path d="M263.993 24.6037C264.016 24.8953 263.98 25.1883 263.888 25.4658C263.795 25.7433 263.649 25.9996 263.456 26.2196C262.929 26.6407 262.271 26.8652 261.597 26.8546L260.127 27.003C259.258 27.0278 258.403 27.2316 257.615 27.6014C256.828 27.9713 256.126 28.4994 255.552 29.1528C254.542 30.4331 254.014 32.0269 254.058 33.6566V44.8613C254.083 45.1872 254.034 45.5144 253.916 45.8192C253.798 46.1239 253.613 46.3984 253.375 46.6227C252.88 47.0282 252.253 47.2371 251.614 47.2095C250.968 47.2352 250.334 47.0268 249.829 46.6227C249.583 46.4035 249.391 46.1305 249.267 45.825C249.143 45.5196 249.092 45.1899 249.116 44.8613V24.9467C249.098 24.6222 249.152 24.2976 249.275 23.9969C249.398 23.6961 249.588 23.4268 249.829 23.2089C250.328 22.7919 250.964 22.5744 251.614 22.5984C252.219 22.5813 252.807 22.8002 253.253 23.2089C253.477 23.4269 253.652 23.6902 253.766 23.9813C253.881 24.2724 253.931 24.5844 253.915 24.8966V27.2449C254.502 25.8862 255.494 24.742 256.755 23.9687C258.035 23.2044 259.475 22.7513 260.962 22.6457L261.647 22.5984C263.21 22.4995 263.992 23.168 263.993 24.6037Z"
          fill="white"/>
    <path d="M262.689 42.2386C263.087 42.4667 263.417 42.7968 263.645 43.1949C263.878 43.607 263.998 44.0736 263.993 44.5472C263.998 45.0198 263.878 45.4854 263.645 45.8966C263.415 46.2958 263.083 46.6268 262.683 46.8558C262.274 47.0926 261.808 47.2147 261.336 47.2092C260.861 47.2147 260.394 47.0927 259.983 46.8558C259.584 46.6274 259.253 46.2962 259.024 45.8966C258.789 45.4862 258.668 45.0203 258.674 44.5472C258.668 44.0732 258.789 43.6063 259.024 43.1949C259.252 42.7955 259.583 42.4652 259.983 42.2386C260.396 42.0058 260.862 41.8858 261.336 41.8908C261.809 41.8849 262.276 42.005 262.689 42.2386ZM262.476 46.5061C262.81 46.315 263.084 46.0345 263.268 45.6962C263.46 45.3444 263.558 44.9489 263.552 44.5481C263.558 44.1473 263.46 43.7517 263.268 43.4C263.083 43.0633 262.809 42.7838 262.476 42.5921C262.129 42.3952 261.736 42.2943 261.336 42.3C260.938 42.295 260.544 42.3959 260.197 42.5921C259.862 42.7827 259.586 43.0623 259.399 43.4C259.207 43.7517 259.109 44.1473 259.116 44.5481C259.11 44.9489 259.207 45.3444 259.399 45.6962C259.584 46.0354 259.861 46.316 260.197 46.5061C260.544 46.7047 260.937 46.8069 261.336 46.8019C261.736 46.8076 262.13 46.7054 262.476 46.5061ZM262.683 45.5895C262.741 45.6522 262.774 45.7332 262.778 45.8182C262.778 45.8655 262.767 45.9122 262.744 45.9539C262.722 45.9957 262.69 46.0313 262.65 46.0573C262.567 46.1206 262.465 46.1539 262.361 46.1518C262.29 46.1546 262.22 46.1386 262.157 46.1054C262.095 46.0722 262.042 46.0229 262.005 45.9627L261.415 45.1076C261.383 45.0564 261.342 45.012 261.293 44.9771C261.245 44.9489 261.189 44.9351 261.133 44.9374H260.934V45.735C260.938 45.7915 260.93 45.8482 260.91 45.9013C260.89 45.9545 260.859 46.0028 260.82 46.0431C260.781 46.0794 260.735 46.1076 260.685 46.1259C260.636 46.1443 260.583 46.1523 260.529 46.1498C260.419 46.1553 260.311 46.117 260.229 46.0431C260.189 46.003 260.157 45.9548 260.137 45.9017C260.117 45.8486 260.108 45.7917 260.112 45.735V43.3593C260.106 43.2562 260.14 43.155 260.206 43.0759C260.244 43.0413 260.289 43.0151 260.338 42.9988C260.387 42.9825 260.439 42.9766 260.49 42.9814H261.547C261.852 42.961 262.154 43.0512 262.398 43.2355C262.498 43.3244 262.576 43.4346 262.628 43.5579C262.679 43.6813 262.702 43.8146 262.695 43.9481C262.702 44.1653 262.634 44.3783 262.502 44.551C262.364 44.7196 262.173 44.8352 261.959 44.8779C262.046 44.8966 262.128 44.9326 262.201 44.9838C262.285 45.0488 262.36 45.1258 262.421 45.2124L262.683 45.5895ZM261.434 44.3383C261.56 44.3489 261.687 44.3192 261.795 44.2533C261.833 44.2181 261.862 44.1746 261.88 44.1263C261.899 44.0779 261.906 44.026 261.901 43.9745C261.907 43.9212 261.901 43.8673 261.882 43.8169C261.864 43.7665 261.834 43.7211 261.795 43.6845C261.686 43.6201 261.56 43.5913 261.434 43.6022H260.921V44.3383H261.434Z"
          fill="white"/>
</svg>
