<svg width="154" height="37" viewBox="0 0 154 37" fill="none" xmlns="http://www.w3.org/2000/svg">
    <path d="M10.7944 11.629C10.4144 11.6237 9.86021 12.0195 9.65965 12.389C9.05268 13.5343 8.6146 14.7694 8.03402 15.9305C7.72262 16.5534 7.86513 16.9228 8.30847 17.4189C9.5013 18.749 10.7311 20.0632 11.7181 21.5411C12.9003 23.3092 12.742 25.1934 11.2325 26.6712C10.0924 27.7902 8.74655 28.7983 7.31093 29.4845C5.2314 30.4714 2.98296 31.0995 0.824265 31.9282C0.523419 32.0443 0.0589549 32.4295 0.0220088 32.683C-0.104663 33.4852 0.343967 33.7174 0.639536 33.8493C3.12547 34.9366 5.64836 35.9341 8.27153 37.0003C9.116 35.7284 9.96578 34.5461 10.71 33.2952C14.7265 26.5551 15.6132 19.6093 11.9186 12.4207C11.7234 12.0459 11.185 11.6342 10.7944 11.629Z"
          fill="white"/>
    <path d="M99.8395 2.88967L99.7499 2.79995C98.5518 1.60184 96.6147 1.60184 95.4166 2.79995C94.2185 3.99805 94.2185 5.93508 95.4166 7.13318L95.5063 7.22292C97.2376 8.95409 99.1798 7.88267 99.8395 7.22292C101.038 6.02481 101.038 4.08777 99.8395 2.88967Z"
          fill="white"/>
    <path d="M87.0986 3.0099C86.7871 3.32129 86.5496 3.68548 86.3914 4.07076L91.0412 8.09789C91.2735 7.96066 91.4898 7.79704 91.6904 7.60175L91.7854 7.50675C93.6221 5.67001 92.4874 3.61686 91.7854 2.91489C90.5187 1.64816 88.4602 1.64816 87.1935 2.91489L87.0986 3.0099Z"
          fill="white"/>
    <path d="M18.0571 0.935224C18.0571 0.935224 16.9118 3.3156 16.3945 4.53483C16.1833 5.03095 16.0461 5.60625 16.0726 6.13934C16.2626 10.3776 16.4368 14.6211 16.7429 18.8487C17.0595 23.1556 19.1813 26.3013 23.1662 28.1169C25.953 29.389 28.9139 29.9642 31.9382 30.1384C35.7542 30.3548 39.5808 30.4709 43.4073 30.5027C49.762 30.5553 56.0692 30.1015 62.2867 28.8559C64.2079 28.6078 70.2037 27.056 71.2435 26.4913C72.4153 25.8579 72.336 26.0058 73.513 26.3066C76.3737 27.0297 83.9266 26.8555 86.1011 26.2115C87.5579 25.7841 88.8879 25.4357 89.2099 24.4381C90.5452 26.5441 91.2947 27.6155 93.5958 27.4096C95.8918 27.2038 96.0923 27.0877 98.346 26.5864C100.23 26.1694 101.619 24.9501 102.183 23.1186C102.532 21.9839 102.489 21.4403 102.584 20.5906C102.933 17.5873 102.468 14.7372 100.732 12.209C100.452 11.8026 100.278 11.4015 99.2908 11.4648C98.9847 11.486 98.5255 11.9399 98.3355 12.3093C97.7655 13.4283 97.3327 14.6211 96.7627 15.7453C96.4407 16.3787 96.5885 16.8273 97.0846 17.2865C98.1402 18.2576 99.1166 19.2182 100.441 20.5588C97.9185 20.8228 97.0478 21.0972 94.8732 21.2661C92.688 21.435 88.7137 21.4033 87.5947 19.4399C86.7768 17.999 86.2489 17.0067 84.9188 16.0251C82.7021 14.3888 79.1236 14.3994 76.1309 15.9405C74.7797 16.6373 73.3547 17.999 73.1224 19.6193C73.017 20.3424 72.7689 20.9388 71.9561 21.15C59.5685 24.3327 45.0329 25.8211 32.8302 24.4541C29.7215 24.1057 26.6444 23.5937 23.694 22.4431C21.0761 21.4192 19.8886 19.6088 19.9414 16.7745C20.031 11.5546 19.9729 6.32934 19.9466 1.10412C19.9466 1.10412 20.031 0.0907434 18.986 0.00101726C18.5744 -0.0359287 18.0413 0.945781 18.0413 0.945781L18.0571 0.935224ZM85.093 22.6278L74.9486 22.5064C74.9486 22.5064 75.6982 18.5004 79.8255 18.3474C85.7687 18.1204 85.093 22.6331 85.093 22.6331V22.6278Z"
          fill="white"/>
    <path d="M4.17584 1.42053C4.17584 1.42053 4.26029 0.407151 3.21524 0.317424C2.80356 0.280478 2.27048 1.26219 2.27048 1.26219C2.27048 1.26219 1.12516 3.64257 0.607914 4.86178C0.396794 5.35792 0.259566 5.93323 0.285956 6.46629C0.38096 8.54584 0.470686 10.6306 0.570968 12.7102H0.560412C0.697639 15.6711 0.840146 18.6321 0.982652 21.5931C1.0671 23.4139 1.16738 25.2296 1.26239 27.0874H2.94607C3.35775 25.0184 4.07556 22.9812 4.12306 20.9281C4.1864 18.1676 4.1864 5.16263 4.16528 1.4258L4.17584 1.42053Z"
          fill="white"/>
    <path d="M112.512 10.8691C111.599 11.8244 110.918 12.9223 110.469 14.0834L124.625 25.827C125.306 25.4048 125.95 24.9033 126.53 24.2964L126.805 24.0113C132.173 18.4061 128.647 12.3364 126.509 10.2885C122.641 6.5781 116.497 6.71532 112.787 10.5841L112.512 10.8691Z"
          fill="white"/>
    <path d="M143.573 26.6348C148.864 26.6348 153.153 22.3458 153.153 17.0551C153.153 11.7645 148.864 7.47559 143.573 7.47559C138.282 7.47559 133.994 11.7645 133.994 17.0551C133.994 22.3458 138.282 26.6348 143.573 26.6348Z"
          fill="white"/>
</svg>
