<svg width="19" height="20" viewBox="0 0 19 20" fill="none" xmlns="http://www.w3.org/2000/svg">
    <path d="M5.51 0.5H13.49C16.53 0.5 19 2.97 19 6.01V13.99C19 15.4513 18.4195 16.8528 17.3862 17.8862C16.3528 18.9195 14.9513 19.5 13.49 19.5H5.51C2.47 19.5 0 17.03 0 13.99V6.01C0 4.54866 0.580516 3.14717 1.61384 2.11384C2.64717 1.08052 4.04866 0.5 5.51 0.5ZM5.32 2.4C4.41296 2.4 3.54307 2.76032 2.90169 3.40169C2.26032 4.04307 1.9 4.91296 1.9 5.82V14.18C1.9 16.0705 3.4295 17.6 5.32 17.6H13.68C14.587 17.6 15.4569 17.2397 16.0983 16.5983C16.7397 15.9569 17.1 15.087 17.1 14.18V5.82C17.1 3.9295 15.5705 2.4 13.68 2.4H5.32ZM14.4875 3.825C14.8024 3.825 15.1045 3.95011 15.3272 4.17281C15.5499 4.39551 15.675 4.69756 15.675 5.0125C15.675 5.32744 15.5499 5.62949 15.3272 5.85219C15.1045 6.07489 14.8024 6.2 14.4875 6.2C14.1726 6.2 13.8705 6.07489 13.6478 5.85219C13.4251 5.62949 13.3 5.32744 13.3 5.0125C13.3 4.69756 13.4251 4.39551 13.6478 4.17281C13.8705 3.95011 14.1726 3.825 14.4875 3.825ZM9.5 5.25C10.7598 5.25 11.968 5.75044 12.8588 6.64124C13.7496 7.53204 14.25 8.74022 14.25 10C14.25 11.2598 13.7496 12.468 12.8588 13.3588C11.968 14.2496 10.7598 14.75 9.5 14.75C8.24022 14.75 7.03204 14.2496 6.14124 13.3588C5.25044 12.468 4.75 11.2598 4.75 10C4.75 8.74022 5.25044 7.53204 6.14124 6.64124C7.03204 5.75044 8.24022 5.25 9.5 5.25ZM9.5 7.15C8.74413 7.15 8.01922 7.45027 7.48475 7.98475C6.95027 8.51922 6.65 9.24413 6.65 10C6.65 10.7559 6.95027 11.4808 7.48475 12.0153C8.01922 12.5497 8.74413 12.85 9.5 12.85C10.2559 12.85 10.9808 12.5497 11.5153 12.0153C12.0497 11.4808 12.35 10.7559 12.35 10C12.35 9.24413 12.0497 8.51922 11.5153 7.98475C10.9808 7.45027 10.2559 7.15 9.5 7.15Z"
          fill="white"/>
</svg>
